<mxfile host="65bd71144e">
    <diagram id="NU4e2vE9xXA3S959noSJ" name="Page-1">
        <mxGraphModel dx="1834" dy="750" grid="1" gridSize="10" guides="1" tooltips="1" connect="1" arrows="1" fold="1" page="1" pageScale="1" pageWidth="827" pageHeight="1169" math="0" shadow="0">
            <root>
                <mxCell id="0"/>
                <mxCell id="1" parent="0"/>
                <mxCell id="6" style="edgeStyle=none;html=1;" edge="1" parent="1" source="2">
                    <mxGeometry relative="1" as="geometry">
                        <mxPoint x="170" y="670" as="targetPoint"/>
                    </mxGeometry>
                </mxCell>
                <mxCell id="2" value="ComponentWillMount" style="rounded=1;whiteSpace=wrap;html=1;" vertex="1" parent="1">
                    <mxGeometry x="110" y="160" width="120" height="60" as="geometry"/>
                </mxCell>
                <mxCell id="3" value="加载" style="text;html=1;align=center;verticalAlign=middle;resizable=0;points=[];autosize=1;strokeColor=none;fillColor=none;" vertex="1" parent="1">
                    <mxGeometry x="145" y="88" width="50" height="30" as="geometry"/>
                </mxCell>
                <mxCell id="4" value="处理" style="text;html=1;align=center;verticalAlign=middle;resizable=0;points=[];autosize=1;strokeColor=none;fillColor=none;" vertex="1" parent="1">
                    <mxGeometry x="385" y="88" width="50" height="30" as="geometry"/>
                </mxCell>
                <mxCell id="5" value="卸载" style="text;html=1;align=center;verticalAlign=middle;resizable=0;points=[];autosize=1;strokeColor=none;fillColor=none;" vertex="1" parent="1">
                    <mxGeometry x="645" y="88" width="50" height="30" as="geometry"/>
                </mxCell>
                <mxCell id="8" value="render" style="rounded=1;whiteSpace=wrap;html=1;" vertex="1" parent="1">
                    <mxGeometry x="110" y="270" width="120" height="60" as="geometry"/>
                </mxCell>
                <mxCell id="9" value="render" style="rounded=1;whiteSpace=wrap;html=1;" vertex="1" parent="1">
                    <mxGeometry x="110" y="370" width="120" height="60" as="geometry"/>
                </mxCell>
                <mxCell id="10" value="&lt;h3&gt;&lt;b&gt;&lt;font style=&quot;color: light-dark(rgb(0, 0, 0), rgb(255, 51, 51));&quot;&gt;早期&lt;/font&gt;&lt;/b&gt;&lt;/h3&gt;" style="text;html=1;align=center;verticalAlign=middle;resizable=0;points=[];autosize=1;strokeColor=none;fillColor=none;" vertex="1" parent="1">
                    <mxGeometry x="70" y="35" width="50" height="60" as="geometry"/>
                </mxCell>
                <mxCell id="13" style="edgeStyle=none;html=1;exitX=1;exitY=0.5;exitDx=0;exitDy=0;" edge="1" parent="1" source="12">
                    <mxGeometry relative="1" as="geometry">
                        <mxPoint x="450" y="180.47619047619048" as="targetPoint"/>
                    </mxGeometry>
                </mxCell>
                <mxCell id="14" style="edgeStyle=none;html=1;" edge="1" parent="1" source="12">
                    <mxGeometry relative="1" as="geometry">
                        <mxPoint x="410" y="670.952380952381" as="targetPoint"/>
                    </mxGeometry>
                </mxCell>
                <mxCell id="12" value="ComponentWillRecieveProps" style="rounded=1;whiteSpace=wrap;html=1;" vertex="1" parent="1">
                    <mxGeometry x="323" y="160" width="181" height="60" as="geometry"/>
                </mxCell>
                <mxCell id="15" value="互斥的，不表示并行" style="text;html=1;align=center;verticalAlign=middle;resizable=0;points=[];autosize=1;strokeColor=none;fillColor=none;" vertex="1" parent="1">
                    <mxGeometry x="340" y="50" width="130" height="30" as="geometry"/>
                </mxCell>
                <mxCell id="17" style="edgeStyle=none;html=1;exitX=0.5;exitY=1;exitDx=0;exitDy=0;entryX=0;entryY=0;entryDx=0;entryDy=0;" edge="1" parent="1" source="16" target="18">
                    <mxGeometry relative="1" as="geometry">
                        <mxPoint x="460" y="350" as="targetPoint"/>
                    </mxGeometry>
                </mxCell>
                <mxCell id="16" value="shouldComponentUpdate" style="rounded=1;whiteSpace=wrap;html=1;" vertex="1" parent="1">
                    <mxGeometry x="320" y="250" width="184" height="60" as="geometry"/>
                </mxCell>
                <mxCell id="18" value="Not" style="rounded=1;whiteSpace=wrap;html=1;" vertex="1" parent="1">
                    <mxGeometry x="464" y="350" width="40" height="20" as="geometry"/>
                </mxCell>
                <mxCell id="19" value="render" style="rounded=1;whiteSpace=wrap;html=1;" vertex="1" parent="1">
                    <mxGeometry x="320" y="390" width="184" height="60" as="geometry"/>
                </mxCell>
                <mxCell id="20" value="componentDidUpdate" style="rounded=1;whiteSpace=wrap;html=1;" vertex="1" parent="1">
                    <mxGeometry x="331" y="500" width="158" height="60" as="geometry"/>
                </mxCell>
                <mxCell id="21" value="ComponentWillUnMount" style="rounded=1;whiteSpace=wrap;html=1;" vertex="1" parent="1">
                    <mxGeometry x="590" y="160" width="160" height="60" as="geometry"/>
                </mxCell>
                <mxCell id="24" value="&lt;h3&gt;&lt;font style=&quot;color: light-dark(rgb(0, 0, 0), rgb(153, 0, 0));&quot;&gt;现在&lt;/font&gt;&lt;/h3&gt;" style="text;html=1;align=center;verticalAlign=middle;resizable=0;points=[];autosize=1;strokeColor=none;fillColor=none;" vertex="1" parent="1">
                    <mxGeometry x="20" y="740" width="50" height="60" as="geometry"/>
                </mxCell>
                <mxCell id="53" style="edgeStyle=none;html=1;entryX=0.5;entryY=0;entryDx=0;entryDy=0;" edge="1" parent="1" source="25" target="29">
                    <mxGeometry relative="1" as="geometry"/>
                </mxCell>
                <mxCell id="25" value="创建时" style="text;html=1;align=center;verticalAlign=middle;resizable=0;points=[];autosize=1;strokeColor=none;fillColor=none;" vertex="1" parent="1">
                    <mxGeometry x="110" y="800" width="60" height="30" as="geometry"/>
                </mxCell>
                <mxCell id="26" value="更新时" style="text;html=1;align=center;verticalAlign=middle;resizable=0;points=[];autosize=1;strokeColor=none;fillColor=none;" vertex="1" parent="1">
                    <mxGeometry x="384" y="800" width="60" height="30" as="geometry"/>
                </mxCell>
                <mxCell id="55" style="edgeStyle=none;html=1;" edge="1" parent="1" source="27" target="52">
                    <mxGeometry relative="1" as="geometry"/>
                </mxCell>
                <mxCell id="27" value="卸载时" style="text;html=1;align=center;verticalAlign=middle;resizable=0;points=[];autosize=1;strokeColor=none;fillColor=none;" vertex="1" parent="1">
                    <mxGeometry x="670" y="800" width="60" height="30" as="geometry"/>
                </mxCell>
                <mxCell id="30" style="edgeStyle=none;html=1;exitX=0.5;exitY=1;exitDx=0;exitDy=0;" edge="1" parent="1" source="29">
                    <mxGeometry relative="1" as="geometry">
                        <mxPoint x="140" y="1610" as="targetPoint"/>
                    </mxGeometry>
                </mxCell>
                <mxCell id="29" value="constructor" style="rounded=1;whiteSpace=wrap;html=1;" vertex="1" parent="1">
                    <mxGeometry x="80" y="850" width="120" height="60" as="geometry"/>
                </mxCell>
                <mxCell id="32" value="New Props" style="text;html=1;align=center;verticalAlign=middle;resizable=0;points=[];autosize=1;strokeColor=none;fillColor=none;" vertex="1" parent="1">
                    <mxGeometry x="280" y="865" width="80" height="30" as="geometry"/>
                </mxCell>
                <mxCell id="33" value="setState( )" style="text;html=1;align=center;verticalAlign=middle;resizable=0;points=[];autosize=1;strokeColor=none;fillColor=none;" vertex="1" parent="1">
                    <mxGeometry x="379" y="865" width="80" height="30" as="geometry"/>
                </mxCell>
                <mxCell id="37" style="edgeStyle=none;html=1;" edge="1" parent="1" source="36">
                    <mxGeometry relative="1" as="geometry">
                        <mxPoint x="530" y="1600" as="targetPoint"/>
                    </mxGeometry>
                </mxCell>
                <mxCell id="36" value="forceUpdate( )" style="text;html=1;align=center;verticalAlign=middle;resizable=0;points=[];autosize=1;strokeColor=none;fillColor=none;" vertex="1" parent="1">
                    <mxGeometry x="470" y="865" width="100" height="30" as="geometry"/>
                </mxCell>
                <mxCell id="40" value="" style="edgeStyle=none;html=1;entryX=0.811;entryY=0.016;entryDx=0;entryDy=0;entryPerimeter=0;" edge="1" parent="1" source="33" target="39">
                    <mxGeometry relative="1" as="geometry">
                        <mxPoint x="419" y="895" as="sourcePoint"/>
                        <mxPoint x="420" y="1640.952380952381" as="targetPoint"/>
                    </mxGeometry>
                </mxCell>
                <mxCell id="43" style="edgeStyle=none;html=1;" edge="1" parent="1" source="39">
                    <mxGeometry relative="1" as="geometry">
                        <mxPoint x="370" y="1610" as="targetPoint"/>
                    </mxGeometry>
                </mxCell>
                <mxCell id="44" style="edgeStyle=none;html=1;exitX=0.5;exitY=1;exitDx=0;exitDy=0;" edge="1" parent="1" source="39">
                    <mxGeometry relative="1" as="geometry">
                        <mxPoint x="400" y="1120" as="targetPoint"/>
                    </mxGeometry>
                </mxCell>
                <mxCell id="39" value="shouldComponentUpdate" style="rounded=1;whiteSpace=wrap;html=1;" vertex="1" parent="1">
                    <mxGeometry x="280" y="1050" width="171" height="50" as="geometry"/>
                </mxCell>
                <mxCell id="41" style="edgeStyle=none;html=1;" edge="1" parent="1" source="32">
                    <mxGeometry relative="1" as="geometry">
                        <mxPoint x="320" y="1050" as="targetPoint"/>
                    </mxGeometry>
                </mxCell>
                <mxCell id="31" value="gerDerivedStateFromProps" style="rounded=1;whiteSpace=wrap;html=1;" vertex="1" parent="1">
                    <mxGeometry x="80" y="950" width="530" height="60" as="geometry"/>
                </mxCell>
                <mxCell id="45" value="Not" style="text;html=1;align=center;verticalAlign=middle;resizable=0;points=[];autosize=1;strokeColor=none;fillColor=none;" vertex="1" parent="1">
                    <mxGeometry x="390" y="1118" width="40" height="30" as="geometry"/>
                </mxCell>
                <mxCell id="38" value="render" style="rounded=1;whiteSpace=wrap;html=1;" vertex="1" parent="1">
                    <mxGeometry x="90" y="1169" width="520" height="60" as="geometry"/>
                </mxCell>
                <mxCell id="47" value="getSanpShotBeforeUpdate" style="rounded=1;whiteSpace=wrap;html=1;" vertex="1" parent="1">
                    <mxGeometry x="323" y="1280" width="270" height="60" as="geometry"/>
                </mxCell>
                <mxCell id="48" value="React Update Doms and Refs" style="rounded=1;whiteSpace=wrap;html=1;" vertex="1" parent="1">
                    <mxGeometry x="100" y="1430" width="490" height="60" as="geometry"/>
                </mxCell>
                <mxCell id="50" value="conponentDidMount" style="rounded=1;whiteSpace=wrap;html=1;" vertex="1" parent="1">
                    <mxGeometry x="100" y="1520" width="120" height="60" as="geometry"/>
                </mxCell>
                <mxCell id="51" value="conponentDidUpdate" style="rounded=1;whiteSpace=wrap;html=1;" vertex="1" parent="1">
                    <mxGeometry x="352.5" y="1520" width="211" height="60" as="geometry"/>
                </mxCell>
                <mxCell id="52" value="conponentDidUnmount" style="rounded=1;whiteSpace=wrap;html=1;" vertex="1" parent="1">
                    <mxGeometry x="616" y="1520" width="211" height="60" as="geometry"/>
                </mxCell>
                <mxCell id="56" value="" style="shape=image;verticalLabelPosition=bottom;labelBackgroundColor=default;verticalAlign=top;aspect=fixed;imageAspect=0;image=data:image/png,iVBORw0KGgoAAAANSUhEUgAAAVYAAAEACAIAAABnGsk+AAAAAXNSR0IArs4c6QAAAERlWElmTU0AKgAAAAgAAYdpAAQAAAABAAAAGgAAAAAAA6ABAAMAAAABAAEAAKACAAQAAAABAAABVqADAAQAAAABAAABAAAAAACKyVHIAABAAElEQVR4Aey995Mk13kg+NLbyszypl119/T46XEAaAACpEiJ0jJWu7cr6e5WEZL+r/vhYiMuFLEraU/akE4rkhIBUTQgYcabnmnfXd5XentfVrWptugxAGamM2OAzsp8+cz33vve5z8sCAIUXREEIgicVgjgp3Xg0bgjCEQQCCEQoYBoHUQQONUQiFDAqZ7+aPARBCIUEK2BCAKnGgIRCjjV0x8NPoJAhAKiNRBB4FRDIEIBp3r6o8FHEIhQQLQGIgicaghEKOBUT380+AgCEQqI1kAEgVMNgQgFnOrpjwYfQSBCAdEaiCBwqiEQoYBTPf3R4CMIRCggWgMRBE41BCIUcKqnPxp8BIEIBURrIILAqYZAhAJO9fRHg48gEKGAaA1EEDjVEIhQwKme/mjwEQQiFBCtgQgCpxoCEQo41dMfDT6CQIQCojUQQeBUQyBCAad6+qPBRxCIUEC0BiIInGoIRCjgVE9/NPgIAhEKiNZABIFTDYEIBZzq6Y8GH0EgQgHRGoggcKohEKGAUz390eAjCEQoIFoDEQRONQQiFHCqpz8afASBCAVEayCCwKmGQIQCTvX0R4OPIBChgGgNRBA41RCIUMCpnv5o8BEEIhQQrYEIAqcaAhEKONXTHw0+gkCEAqI1EEHgVEMgQgGnevqjwUcQiFBAtAYiCJxqCEQo4FRPfzT4CAIRCojWQASBUw2BCAWc6umPBh9BIEIB0RqIIHCqIRChgFM9/dHgIwhEKCBaAxEETjUEyFM9+mjwrz8EPLNndjf7pldHKYqNjclMjI1W9TPMawSsZwBWVPQVhADs//rtv35c1f8VfcDlLvzRfOp8hAKeZZ4iFPAs0IrKfqkQ8B3kaXq3U1+vd/q6FiA7CHYaZGNKIldUFEVi0NYeH5avr6zc+vjzJ/ovgrx8LvGtydhkVqARepaVDa14jtbVapudXr+ueR4j7W9rpx9v3M2zAOqNG3w0oFcLAp6G9KXag9sf/s2/3rq/tuYFbbSLAvJz167/6M+vX702n95GAYPyvdLCg0/rn39qbQZrnlYsfWe8joI0wp5lZXsImVptYenDv711+95HK5aTubK/rVcLUi+zN88CqJfZblTXqwWBV4Kj9q3Abuu1yvJnm08f1rpTMStGMJjldrXeWs835LFv6G0HSAMA3fDcbqord6qrKyU3Z3P+RGAlgupavf2golyPMzxDHA7iQ2gNB1BAv7q6vlBZrRqqFdC+7zmuY+u+ZepG71CqBCEKIZ6X4pmJtKIIPIHo11O2HqGAw9fJaXv6KnHUcYRujBWp9/7sSn5eTKO6dnfl7l/es9j8hMTFBESGa3Zwbrc2l3/zy6WVrnHh+5OX+IvoacCVPyttanfEiaupXFY4fBIPoTV8qBCPZfHxa8XrP/wPZ+IzhRQrZxS2IdqV2sL9Q6kShGSEpqYuXnv/T7537Zoww0co4HB4v95PA8/CrG7fdDcMFiPpMZlkfVer911EkCmJFtiQ5zzkVNklX4fjP4SPfcUA4xldvXKvsqbeCc6JaPL3zsI+/LouFqFsLJ6Zu/bNi98Wx62nVZ+sTDidIJ6ShbiAKAIFjuZp683y6t0VY1WLizfnC4X4tzGv124sLD3pP3XKhRsZUdiVGowO5RBag2EwkhcTYvHK1PVr78ynZhO0YRjIqrLOPqoESiLCdzBP1TpabcOybXn2d94pbtEmw2YGFIquavWm7eMonqYonLXqhu1WHQmj+VdNZxFRAaOrY/897H9Uv1Oq6v9jMx+I8T+aj+XM/tJHTwxEiR9cUQQm5DkPOVX2o4BD+Nj9TUW/D4OAZaJ6paf2HiSzGpe/kuBzPGIJ5PVaxvLHm8urv9bnVHHiBzNj184m8ujbwuKdGw9/1lCXNjbHMTG/KzU4pO5RWiObRkGMFal4HsSNsEUJAuc4DhE8oQI3sb8k73RAZrFyu/Szv264BCZi2N7qBxRKfW3pw1+0HRJ75/sxmchVPqq0tH/sXcITU6+aziJCAXunb++vkEOuPGhuGqW2gHu82TV73eb9xYpKiGffcgSEAQWJtk6VzeXPnizcLzfGU47E73KGroXsbre0cPuTj20XsfNFVBiRae9tLvq1DwKupWvVlV6v3UnNuolxUeLjmMWY3c7mxoPfVu5u+JpyRimemx5Pz6RFFmNItX0xiy+X2qsPl01DTl7P0PTIXOypfZfWuPCdyQmEYns3Mo7jyCcDHJ4eKGlXg14s49BLit7EMGpEZhm24NvIa6ud2uJKreOx6QsmiXvNlae1plkli6yIbH9vS3t69TX8iFDAcUC3DLVRemy0/an4e5zCidrDZr3+GyMwBKGISOA1RyROfIBNZSbmLv3Rd/PzReAMFSqkBTC9FtTvLDxd/bvP/+e/LD9C6M9NakSmfVzj0TtkGf16+VG/YybTV5mxfEJgebtL1O+sP1j5q58QZTR29Y/PX3tnupgRWIwgESskxqbf+bb12drDn9xu3O/E5e8GSjgXX6mgzjORXlb1/iI2ZpLSGYpO2O3GumMY+MUbSWUurcSYV2pqIxRw1HQAOWdZare6qPY0oBAZSfD91lK31Wows66UoEhaDBC5i9BBLCALSmbq0lsX3710WUIZeACXXkP1RIz96JM7d5abzkatmW07swqAfffLo3pwqp8HHuYbdr/fe6qpLZQ6L8WznOS3tc31lTuPP73X3XDT1NjM+TPj80UlheAohoukhGR8ej7f4cbjDzc7K9W7v8VQF5spjqXkA3IBE6Fqv916cotS/eUVFPBb4OaA8hcVpVCUJcojta7h9DURMwQKo3Aa++JpCxzDa28YWrvLJX06KVAWY2uVHt9HbD4pj2V54dXCAM9kQHG6lqSFUN3q9aoPxKYp0DdoigDi7nG/o++cSCz2xeALGBlLz+fn+j/6xqePO1SZdFuq7rhAQETI99j1FNiB07SaauWe1DeY7A05l3B49cHKg4X/+38srerS5HfOXr554eKEDOKYIbINqyMExM9k5ujv/glauP3gk1//zd27Y50f/dnstasH5AJthD7bXCk/+K//bMVCId/2fOQRujl39eqP/mL+8qQuVNc7/Uopk3eSIslB7aN03+H9d03drK5bPR1PFClRYsmGbXSWibxJxqcEcSjLOPzLr+np9sC/puZf8WYJVhKzFx2XE+MxQTIZKSvj7uVYnssqCYEanDxfMAKMoBGf4JX0ZIrTfL8auIbluH4oQxhcIa0BvG1vrdLt9FsBMvwB+0AJpJCKKfFCWpAFaodmGNXekziRpXq+2V+vg10baLbh2j3BFIUJtRWDp9v/O7wtYiAGw7uGb0GBw6+BBL7e6XRG2gpLHqLp2NKPaPV1HWz7+Bx0ydYrTV0NtCBOy+Hpeljf9rcbOBbWr2q2udKXPUw6I5Jp1Ok/XNq4X66agp+ZuHhj6ua1zBiPtk/vQQ04hXCFz6CiaCO8V1p6tF4vde5/vhog9tyYXpDTfLiNT3ABKHSrV9cfLTU3VCw3J0xmYyAwHNJ9OIXRMUpg4orV7W6WFj61iX6PT4ynw9EJGB1QcVEWZ+U0JSiyaHvIixclj45nZDFBIiAlXqlr7yJ5pbr2NXcGyLW0PMlf/i9jtk8SY2mK8cjYf3ZcNEbmCI6HxXSyDsJiMl1bV9uW2sRcZWfzD78OaY3e2u27f/lPt24/+dR2y16IAkh5kim+f/natT/87uwVXgFyY4huRrX3DM3/gXTfrCz8t49W7q92BtXtnmDXrqUPWMgd3hadnxOv/Wgubr/dtY8akafVjeWPHt66NdJWWPYQTceWfmT1w79Z7bje1O+PIdRZ+8dfLS94a96N1NV5OF0P69uBlk0NVdd7Mn4/kSaFxGXJZNv9J/9cqrWxG+9/W7p6/hvnMkXY/4dOwpAWuMh+LxZfv/Pw8b/8pPH4dvWD/zR2bf6DWV4ApBReB+T8w8dbaJQqFG1rcfX+r57UGszUu7n0pZmsBBLHAVYlWMTn+dTa5HS7emvhk79/UP/7KZ64cen6NRjd1Yvp+PQHE+O+ECRwkkoD3ki4vxdDPk6nUtxJKMetjnxVfyIUcBSkYXHxtMynr6R3S8Quwn1q9/cX3w012J1y+fGquK4J7GUhE6dZCg6C4Zlc6q3dXbt1f73crWrIAvUSFqIAz+rrtYeVJexOjghQ8UxaAKIDpmqovd9YKH3Wxl0uU5jpc4arO/AJ/PNsraXV7q6z6PZSis6JIxZyu20tf3pvYaWx2nINOtgiai3d76x2LGOh1tF8tqd44siwhud/Y+Pp0kLp7kqnpTtAb4SLZqAb1+sra7d+K/iYeGUK5Qeaji39yPLS55+u97xa3uYU5OiOh3DveU4/FyHNcomuakg44dJpZYwfv3kufjaRtlfdSrAeouNYeLYPJX5bNIhVX3dcgpem58cpWn9UwTuotX+lH5Dzb3UvhKSjlbXaverq4qYmaXx+tjg2VYyn+C1EjHAa4XEhNTZ9ba6LWWUwKO4CRLa+x2iOoqeANgHLocEVkikz2z+2nr1Kf/YD5lXq25vQF08LNdhr957+7EG+K0x+N5u7OM3FRAC7MTj/7979y79bL7u9878784OZ95K+xIUowGyvNZ98tN79t1//Ei1UvP/83dn5AS0whIjTXut9/vcN7vy/xf9g/vz7f3g5UJjQxLWz8nTpw3/dtG49elo0xfiIhdzw/A/bWlgx1sbelb85/d4Ulwmlksg3W157YfHRnZ/eKz21Mp3rbmEE8MPzH/b///uA7WDfefePs/9HOjxHqYFuvLq4eueX/7iyBJqOP1NJZYTf1rFgtd0NVu+fz89f/OEf3pxOAv2jCENGYJR7H2lrzy0roGxBYqoXW//W1LiFhWn9/Pm3/7d8QWaBIvPMNeP+Xy923Aexf8dlz4dn+xAFbNEg9Q//RjUp8eKfnc1NvXX2T8fPWridHKeVAe0WAviYK6TatNrq0oc/XljpbM5+h52YP3du7GwagUBx+4LjgRUyZ2e++6eJG/0rYKZkw7stIaJyktFtV/Qq/I1QwMuaBaCiu1rHWL3/iU00ejtKQbtD9DtlW2bGZgvp4tx4qpgAbSI2OF1X2pXVhxt6w8nk5+Znb16HLZQZsKp6+XaNuvXbOxuf3F3t9+Ty5ez4mJLaJnoDz3NN26EJLzYuT127OstNx+EIMttPxUnt1q8fq3cXaxpWrU7FZgY+c0RoS7fS3Fy++6SzpinMdy4V33n77fCrkL1wOyvGcp9sP/kN2NwArti9BrRDp1G7u1heUpvedXLqwpWbs9en4yFjEqKAyUXu582Pf71YV59sVNyxuaLEZLYWFECj7WOMHcQoaXbi6sy1mcFXu5V/wR1GMUEsK0noYgGtlMw7Vd3Kk9/8Zh64f2ihv9LtVu/Va+5i/B2Rdt4euA2ENW7RIOXlz9oam0l3LqSuFPKXCnt0/nvGeHg3fMdyOrV+u7PGG3inNfb4c7d2uOQHG0htEoX9UpvD630ln0Yo4GVNS3ju1dbLD/7qgfNPu+Yocn568ub3isXzf3hZGc/KoTBscEp4Ws9YflBvth5Pv+uK09+ezcL+3zlnGFHJzN0Yr0sTH3X7+lq3caWiI3GbECX4Alu8Xsi99e0rU+/M8glhiBtYUcpOX5rf7Fe9n+qtXmXHZ44etFWtVO/JV7RC8YcXJ2/ufgVC9DQ3/cGMRf/71nqhjH4+IA0GQAlpB71Ve/pLo9VlL/9wOnl9tpAEDfyQHw5l71KhevFm2il7H2ttt1RTxzNoRNomSULh0uy5US765MDGaIxKSuP82O99g3ra/VXZUNfKrSsxM+ChA1/mFZ7wLK/kpyaWavXyJ/9zoebfE7cZjQMNHyW1OVDw1X0QoYAva24CW3f1WsvHOpLqS9SNK+kz00poNTho0DR0rbLSqJRWVUZ1W0uPb9Gdhd2uhGdsbWVdbZXbriL1dBdE/iAoHJ5EBCcxuTlm8txMPl5UyO0tQVKsEE9nRcnxW47u9numqwVYAs75QVu9XquXeifIXRovJEe+ApW6QCpCPFc5NxnvIfV2sE1sDKzc9G5tY6W+3kT45aco7t2roY2BydOwq3p1pd7R6ja12deCvm6DsHTrglHGOS49Ngb0S1zitrno7ddf/BcjApxjlFjmyrlusJlc6Gruhtobb7mJHWroiys5rsRxdgFs4MnynJBvxO1/Y9vdtjupCZLEBOyIHchAO7Nu91WducRNObq9T9B7XNuv1LsIBbys6dhvHShqQGB/+GCh8w8P7t3r4+enJSmr7Fiqua6l9mrttc/bv32w0CD+r58xoEHe6Uqw5YhC1zaSY7HJ8yORM6AMQVNUPMYkJIEO9//uZzvf770ZtgXMQyqf4CZCG7uTfAVCMaT3LbXWsBYfLG2U/vsD4x/3u8RubQPlzD4JAkhSwVaSJMFVZ8e3b2+fTviLYVE6J4n9i82HncA2W/Oj1NAJ6zii2HF2AbPnZ3/3P11WztPfurBUzObUS/+nXLx0NbXFpg0r1KsP67f/+5rKPs5NZCdPDNUjevM1Pv7C9fM19u31ahrOvT3WgQl9yphCInPn8cpGqbewWJqPV3OpAqOApxswrZ5rW7rraDTJ8TRNgEX6yIWF+u24kJan0+COOj2WEhRqV5+MQWmWobjws8M51JGqdtryfVeQWVEWWIo8yVfI9wPb9ixPdzkTEwmSBJ1EaDI/coHdhMBeiufnZqdyl3KCBNKErSuEBo7LFEXRID7fM7jtIif4G4DVLy8yNJ2EGEI2buvOKDV0ggqeswj48xFKMcGjy3Njyab/tDAnT129fEmcS4d6GVDYgP9Y6ZH528W5ZkDOTBXyxbjCn8hO5Dk79GV+FqGALwu62zy2+O9bf3WvWX5QL332pHAllp4Enn77EtMzM9/5/Sn57Acz/NRAOLf9ZvgXtup2UIqBDhyI16/8Okp/vtuRoXHR0McOIXX3xSt9d9S4QvOqmCxnpyRaq6vFsb7fXVzZJOzktYmZidRAqDnwHy0/Wf2Hj3MNKvXu+5ltLc8rPeCjOhehgKMg86LPhzx2eqp7/VohWNhc2HxYd6iNwls5iQexH06QNMOzYobCZ6SJa1feSV8ZyLr3nrL7+/AiKMBxnH5X87ua6fAOomHit9sKNeFAI1ima4Fx4g6rj+MY0BlggUQSCTk+fvba3Ntn55ggMcIP7+8f/D6BvP2Qr57hEbDcW731bJ8haI6hyOchM46yC9jtiovL3MyFhLEqbq6rJbRWllIJblLw2M5m5+5npYetpj/lJ+bG08mhlmf3y9fqLkIBX+50DWX7hXaQ/+iXreWNhZkxOl4Ihf8kI0oZotpqbLaCYFfWfSIS/bm6bOlmuVqmsYNthZrwLfvFtmvHt8VaBIX4GC16CeaeYyjt5nvVOprInED28FzdO/FH0D1r2FuzR8Vm2ITIU+QOA3Liak5QkBAS3PQ3xnT6mw9+vKqWlpamXTYmzmpC7em9H/9mo0Seufle4tr8WbA7ft1sAUZHH6GAUWi8/HuClfncxWy+c1a6tQBGdnfXLXoi+Y7MsiyTKAisTVaWNA1b2Uxm09KkQMhbFuQDnbzpdEPDX0JWoPjzzxTJcHxijOds6umy7Qr72tq2X1x6vNp+UqZU1k8OwTCwgWNFLlsAQ3h9DQwYhOLEO7LC73ofgCW/p3UcH5ngDUWzO/qOF4ejZ/Sc0oP6I7LeKTUf1lcYDotnxmJMnLRpt62B8WRJ6RuCxIG1JRV26PmugT+i1SnXNsqVER8NmpeE9IQcF9P8ZDLfulLkiJX25wt3HjYr3LrKQ8CyOmHz+bNXJ6bAT0He66fwfD35+r56/oX19fX5tWp5YK+emOx943uPgs+6f/fx0kZVLI7Pxy/wEHdSiVUKtc/WNjbu3p/GYllxlpPpIR0Q6uS7HfX2bTj0+KtXs2xu1Gz32SCwbWXgTX50D7yV97W1bb/4i589KN/qZtSMN7VVfeglwUr53EV5xejc/bcHbE2CnicKu94HsP+N5TsdG1Vy84TChvqOZ+vakaWd1kb/k0+aTyq/Br/gfgal3r04f/lbOXmaNnmrXG/oa8tnOnj8nBCDiD8sGDvvsDVHVnnYi4E/Yn9xcfWv/2Hxzq6PhjJ5afr9P7567eoHs8zYIAaBid1+9L/++eFK/S7vkKmJRPH9C5dvHrAaPKyJV/5ZhAK+5Cka+K4JmYni9UvV7hP+V0tN3Xu4lJSymevcRDJfvzz9iNjoNBduP3Q0bp1fjQ9nJLSN7xtUuZlQFH7H+O35+jqkRPLT2vzsGnWgLWxgv7jWx12CpDgc22X1gbrmaaWQmX+roC8mq5Xe+q/vf9oxVUABW971vql77XogKoTigXjtS7hCgSitpMTLZ/JXp3MpPuY1rNpCs1EpYylLnJAkMScE7Mn2/zASZKe+vPJ04daD1bWuqhOydEvIJCysY+tBAKTX3gukJSTJQhSInCA+UssLi7ceg9MhOoMVx5WMMsnLPMQyfN230Ove/71T9qr+IoBinb5Y2NDeVn72sFO9f7doSbGJy4WZOQo82zOf3v/oo589/cXf3uVxe2sHwpmfy81cmv/hdyfO5ihx1zz9eYY49Jybww9ta2i/mFXe/fb1jTmDGLEODJti5bH01T+6ynyO0I9vP/7x53/70/9lYDve9XRikj/37qX5/B/QIQkQ+u1tSxKep58j31CJ8dhb38lflS7/wMUxfieqn9Xu1J58Vqq3y2fepXJ5WQ7DN56Q9BhGglz57Df/9e9+/stPlmsbnoeNPfh/0PlrF77//T/61p9y7/kBNjDB2GYEQp8CDOK96X1N7a+6Dux/HQWEZmyslddGrBW/PAnOCEi+rNsIBbwwZHEGo+N8ZmzmuptAylh6jw5/WPtAO1BMFbs33lnma9jTOCsQoJ1XwLi3KPrgeVZb61u6Dskz7K1AdOEJzLByNqtks2DKs9VJggPJwuUcps+jHLdHDz8oQLJIzMbHsGtvIY3PjCusgIGtH3gfDr3oi4e2hVE8qQDHy15Mbho2EBxjozUPNP8SOA5R1iLJ9aqfa6oJ9v/bF8PgSpZNZpM82DsMHp4AGtsfH/cXLCCpwsX0+d2ofoMzvFUqb9y+U71fD9zxeOZ8VpbYXRXrcfUd8Q4f2CAmcun5+bmBe/V2bQNZTLfee1zZLJXalcaDkkAXr87xYwzmE5Ti4VVi7Tf3P6kG/WIhP5WWX+N4kBEKOGJxnPzxlnd69nuxyzbsJ8ABh/ixh3y1NPnWlf8yXjSxvpxlZRki1YKhXxjl5mICvr2+J4VWSABvpakYqW14JrOmV9hOoTnazWGEouLb1l+MI4dgdvwRtsps9XN/W8MTT2QJ2f3fIZbJoTUP23176gcT7zt9Y/eg32sRMGjnRNAY7fVJ74dnePnJwj98TK35yQvXCzeeMQ7fFnxuiH8uxa/OrH7016pO5y792QeX3j83X9wn1Q9lMcM4Dp9/0vxMm/bGixd++N6/m+XTyHRKS6u/+eXy8ic/vU/8YvrGW3/w5zeuvcbxICMUcNIleGS5YaSalDJ1XCCB8FQH5QB7pZDZVxFEuQm/LW4L4fa93vNzeCaDJ05uz+OtHxjBID6jgJMinNoHr91+HtUW+BMcXvNWu1kEAUC+4Npt5QsKPsvr8Ey2trTxG00/j6Xmzo7nLmRDC4uTX1vwyQVXeY1uc8ty6E146drUhasZgOfw/B/GZep06pVOt/J4tQIRmQLWYTPxwtnrNyHYSQJQgL2cXLI2RdRprfTUTql17/OnqqMnlUJ+4AZ2SLymk/fxaygZoYCvAehRk88IgYF+ZEsbj87c/BPl6ts3ZzNb0odnrOv44sO4TLduP/3/Po/1ifz1b/7hlf848S6rpFJDL08g21hqK1LA71zRqpWF1Y0Pf7r0kw9/gl1LXrty0phIx3fiq30boYCvFt5Ra8dAYEuO4E7fiJmUklaYLVnG8BOgcYSsMs5fvwlRAKaLKQjTfqCu42sYFj9JmVDMzzNSIXX5xplrw5DwO22RSEgqEAIFnSmiei12m39c0WvqxguqbXaq/8pvQAIKWo7oiiDwCkBgT9gvWpoEt6uhGdJQOBcGWbVcMshOgSQFWIBDrKWOrGFkdMeW2WYEtEqH9ijp2JShu73qdtxWECek15IRiFDAyOKIbiMInD4IPK8b5+mDVDTiCAJvJAQiFPBGTms0qAgCJ4VAhAJOCqmoXASBNxICEQp4I6c1GlQEgZNCIEIBJ4VUVC6CwBsJgQgFvJHTGg0qgsBJIRChgJNCKioXQeCNhECEAt7IaY0GFUHgpBCIUMBJIRWViyDwRkIgQgFv5LRGg4ogcFIIRCjgpJCKykUQeCMhEKGAN3Jao0FFEDgpBCIUcFJIReUiCLyREIhQwBs5rdGgIgicFAIRCjgppKJyEQTeSAhEKOCNnNZoUBEETgqBCAWcFFJRuQgCbyQEotiBLz6tEHnNcwxLa/ddCNkflymOheQWpwGynmlY3abjY64YJ1g+zCkYnSkvvqC+2hpOw0L9siEKMeRMrV1d+WRBQ6T41rzChSluTgNkYf83Pv+446D+uW9wWT7MKRihgC97ub3s+t/oheqagdkxPdRHMiLZQcBJyBK3c4Wnt206WtcIEMbKAsXSAI7REsOinmXa/a4DOed4mWBYjsCokULDzLytjeWHC4udgM0l5bTnmEHAD8pgOAXpRRiWlTiSpg7uj0GEfFXtV1uaZmoBGsnUs9PP/TcYRmOYyAqikhFFkd6hOALfDhzVMN12nwoIKqFwHPR1e0RhNh67p6papa2rxv52jqpzf9s7vwMXBYbZbZWXa22XwsYdAB0M5iSX71qu0bNNS3WQ4x0bvTYggoChGEiMGuZW3pmdAczrloupZBrAuz+U6CBAqGG7PZ0OcEqJ0SwNeRzQ89EsgWP4RgvgVu/ZqgW5Hp/5ojhRiENWQlGiERN25NW63mQUAPvfrdxqacFj4goSc5fTxN6Ys4PTu9tevl12MTJ3ZSaepVkMHYxMDfu/+ehzoPL16atcMjfOBtRu7k00zMxbefL0dtlp2MJZ7k5vfWUDoeF2x1mZUCYymcy5cSlFHUx+F0bI71efPvynTxYXy6sY6gYj2OWIpYLhcYyYHZudu/r9M7NifIfigP3v9Z/WStqnT8SASVy/kR1nRUhWPqwR9j9qPigvLv7TJ2tLpe6+uo+qc1+x3Z+BgZyyrjc3mqKBxWYJJscj9mTrG/a/vvGoVquudoI2oN+jL0CkrptSMum5q9l8VtyZHU+rG8sf1TTsqfhdQpmch+TCowvZ05C+1G0atzcURClXzyZySQ4aeT6aBfa/vf7x2uLizx60Vurm0Z098o1cODPx9g9nZ89cTKB02JFX6xqF3KvVsxfqTeAFvmloncZGs6bhvYzN8y4cHXDudFXbcobHFeTvMxql+uOHazai+yKWdlJigIYn/OjpjXwL2U1Tc0vlFuvFkhlWEgdwG542arNU1ZoqwSaUJC7KHDuc5cDWPbVqkYruJzzen3IPXethBmHL6ELa3mpFNeMcYr54RhzTctVqV5S65rgWYGEOoFG84TuB3dY0a3XRccx4Mi1LAgNkA+6ZgV61epV6z6xoSGECdgSRHVXnUSc25rYxY2ljrbXS9VySSzfrctnzsaMlIBhk76Nplo1B6rJgK3Hiiad4QK9ZQHQYkCIR6DVk61Zrpd/Hyq5GUcgMQbB7AeTdVkmtmbUugwmyFc42/GcBnGulZsshsEkXshAdOh+7tWzfBY7ptKtGs9LSg5YTiAQ2yuyAEMjXerYfmIyC0cyBt5qv1fs0VW7rooZm5e1KX6W/X7zgXqXenrQvsP+R0+h0uneWOBVx49NcLmHxXqVbrz1YatfaQ1wOpL3eabaXlyoWoipET1lRYtgWDz96esc5MjnGq1W9XmrjPe4sn0VDFDA8bfqt++q0Gjv/weVMMgErnKTIkAJwWqvq03VYO4sMbpG8hx15RHpc3MleT4j4O9ey8SykC/uCS6+2a3eWfFFTmCEu2yqPUSIRO5Mu1N5Ca2trmw8/WVt8nLr6wZXJYjZOIBYSRvgeL6UL178tYcqVNMqMNHVUnUed2LjdQv2n1aa50E96tE4/0FpVDoY9iov2DIPkPCaeyGbOzxZSksSNnS+kpqWTMgKkqARmt7F2u+wN6DUePy6DMexZvdwyuj4uilQyQYSsUkhtWX6/6spGwM8wNNAs3JETsqfjgUd4LsfHp88VLkxxqWnI10btYg+3UzWW73RsVMnNk0ruwNtVY/nDjsdu8KTnoVczZcebiQI8y7BrG71qp4WkgE8qIpcWcEZHxp7JPekPgqG5VIrVWuhpx9bIviFrLkP7httvtkuNStOxmLyYyZw9mxpLh5nphnns2xbRIUSPoOMSD3ln2UMEAVsdCAjOFXOsKM2cnZwqKl/Yre7Kaqyy0UM2Tu5FATiNMQleRuN4D+QXK+uq7cO6284C6vu+beMEI2ZnRGny/ASalHabOqrO3RLbd9hQCmConZrXh7Mvn2CkREygTrahwloIkqalOGmbeL9vWLbl44cIBPZIAQISqUZV71ThGKZjcza9nQB4u1M7f2Gwjm3bzYanmUQsxQlJnmLQgJ/f6DU3VlrtnqWTSwuWWStj6GCfB88YRhCkVEIUQ7lPAAnHPYJk4vGJM3Rm6qKEMiP8nF1dVd1azcapqfOHvaVV99ZaH2tSmO9HKGBnmr78G6unNe4vdvsOP/UWm5+SZUEgMIwvyPnkxZg9u5cRkLyQERi/eT49fgQjQHAoNkELRMZd0V23a09ULTptl3ql2q3PzX4A+b7T+amUFNtaGsMcuJCR+pPOhMmk304nZ3KEDIzsV3INaYHMbP7dmObjVCIrh9QpBksQZJ867LuA9U7eFZKT+PE9JzbmqcgpVcvxO06BRuI7VyZz+ThPY2QoeTz6GmEEaAw6ABLWSnXhSa3Wajik5u7/dq8UgGGx/QWOaMlBSDUdo9wTAU3nYkAEIIFGvqba68uNJ48eLDeW6vZC+dMhzjqsUg7DEump2Uvvvz07OwZyn+3E7kc0+Po/ftOogKHc2+g0S82g4wtKJhHPMIzVMG1fIyVEyoLkKyROkgSOh3w4E1CthAVnSyE/lp3IiKDP933XDU/XQZmhUI9BNBwoRkFZatpG37JQS6W0Ur9cr1Qdk8LSds/X8YaBOsBgBr7f23DX7y1WzKXWDCaTVr/tdP2mfoxe4OWsIzjmBz3HSEoRExIXA+oXERSDY3AAWbpm1Kp+S8foCZ/jAhLfs/4xwsNJw9HU9tJCrdPvwIAFUc4kBJHjxLQYQwCZAfvsOVrVrKx3XNuHPOKkJPGg7BhC6fBRQAdCmT3D8hQacEhQDPQRjm0Z7WqrXevovOSRzD4mwjVNvVHFA79vAXd2AgHJsHHXCsyKrnbKbswhpQmOybAe65tmT60v6+1awMuy7PX83ma/h1wR5MP8Pu798DG80U/fNBQwlHtr3d4yUXT41DVRzvsdtPJJyfBWYpeQkJrivIxACjEh5BAPu2AXaX0N3gzKDBc3EIwsL3DjMxyhBk9tV93s0Y2K06hiGAHFVx91a6uhkAhDbhBYTremri42NazD4ZSjPryz2thMHqsXOKwfz/5stOcURcLegzqghyD1BMlEv91ZWMC6Pq3MYtlEAOf2aAsE5jBsW9t4euunyxUzxmKJ8enZa7/zDpyEGRKJW2UBM5pGp1H6/NHGar3nJS1Kund/c3nxoBZlt25WTsvFC+lMZlzER3OBux6pGyKihanzs2JG4faKErVKo3LrkYOqHprSUCy2W99xdwHIbCuLakPfYCcDsYBojvNN3Gn02v2HT6Sucfm9745jWNu8+zPDDdS57/HZ4j7ufQ8jwIK8ANvl+49r+TV+9wahgAD4Xsvq1ntPHm+WjM3eRV/21Xal12t3N5p9lzRokySMTk8lBRqnKIwOrQD2XgPJsxnynD7CB2UoKDNQq5EUF1MKOUfzGi5jay5FxUjZyQsUsPs7lXimZbarutrTcQUlhIl4nJMYnrZNs6tWZT/gp1IcAu3w3gvzLNzomFa/XiZwor/35SG/epXaZseyGUbZS9EHnu1bLd2wm22BYISYDCc4xmCqp3a65c3SWq/tJwJBSYosCAJDufyI8I7gWDGXVdS+ZJl9c+TFSPtDCwitsVnpE10sAal/A5Y7hkQPHN1Xa6qrG8qUL4A+bE+LA9GEaUGXfQ+YpFBUNoKUPM8FjY7tu4znQs5eePlF10AKoDe7Kw8bVa+BJmlWBKkDZnet5gqgvwaCGUnPnpuNk6VG/VMQ4HVmzsSmLu3j7Q+2AhSLj3wH1AmNWmDjJRFZIWrdutxmSa03m05QZ0rUIW+ral1t2JwlBMehye3avpa/B3bB19KLl9JoYIVnXW394W8XHq/3azHfUzfvGJ5Akj1NlJKpywmOJ4zacrVCUIQi4WAxsp/DDE85S+vUFssuIgZlhB1dNAZ7PnE+LvmXfR4kYuwEj1wrHxDOyPKEfPPVW47KxYKz55lsLkFzMdJmiEajYd154FkN3bf3CPCG4wbKBW8+BiXWA3JzaXVERncEWLSWsbnUY0G6bqHUSBkCGaxfrjXbny0QFpk4c+3MRJ7KEGWtXLr38816l8SLZxLFQiYdjw+kAyOfIjqWVs5979zY22nNMxzYiwwnCCEjQCI4n4fX0AKi29DrmflgqnAlR6VEAviJ7fej9YX3bmcV9IZNp7HiOG0T3z/0QEPeaq/Vqdzto0V5RxczrOWoMe5vY/d3KAXQe5urj+6u1nCjcJPOhu/A8Ku7fK/XdNDMe0xqRpR5VjtECrhbzYG7AKQovtPvNNcrdzvYkspj0shudvtVff1Bx8EaVYKMrR14W9ZBKcRlTMUdcFIHan8FHrxBKGAITRz03SlWogpp0qQMq9kCwbClTMjJQkrhWFPd7Gt6QIPpGKzzEWw+/Bh2swtCM7XTB+nAvjIYQWNEkkcBj+BgAmkWMjzMH9n/UEUAX6u6g0DGz1MxCZRuPGZhmOXaKlAnQWBvFHhQGe6zdXtZywDHcZqlaBrEHCBi98B8b6CHAltFtVPabHQRkZLdPk4v1poHRj7sA0axGJ+KiWI2xggjDDhU4RitXulJ7dGjTYNvjqdj2bnM+B6dwsFR2HRfrXl2X/d833DQiNgfeCaKZvh4NmEC/qBo2L778AjBskIuJ2TSMtwcJrrf1xxo731jU++U6prXshnMxznfIeyO4XY2607DpKUzcWUsLgiIUl0cGYaulVeelPtuIKAkvTuLr7gl375Rv5SfbxAKwBhEJYTxC2d/kByzNI9H3WZn8zNf9znmbDY7neZjnm+qLwy1kFI4SpptNOuNpwtgdUARFLe6th6iAAPHG9W68eQp7nnhmd1WvX22bgEt+clzYOp78cZkdvyLqYDeZmXdvW0zwShrDTUPdQG5YuHdhGFjDK3wPIPTeJxiOUVslMulx79d6X1Kc8AD7ZUF7sAEk3Nk8cbs7OwPzmVnRlAA7P/uxm/WH9++f7dcx8ZdxT0hc75T896bgWwlPjF9Q8hZNnQ1wPZTE4DAbCsgGSaWAUsgbD/vtLc6+OWDxfH6Q61Z6abPmmJWFBJxX6f1ump3HxtTNq7MK9JEImTCwMwLbATa1cVPH5s1V/mM9YdGHsMqD1ryYQGgViqmJCcSV8al3HkRJUcQqNvcUGMeMALrY29TifEDb5+qsY2qzS1yr+5Ge3V7dmCWv+gByL0wnpHYJB9POF1klmqm2pLSCCw28slsRmBJXf+iOo55HziWp3Uc3zUZRnMwYFBf1hUQjM8laU5K58cmJk5gFwCnqsL0UICH/PzuhQ3sAgRGEhQTOGM7CDcOicUYKZmZyTe07upKxzExX5ZtjmGwPZ4Ovmsgs2P4QYvvkQnHcLasCYbnf7u+trLZLNdt0J6C6bPebTcrmyXMx47FBG7zcE448BzfUl3LtBDtEttagt1xhHcEMCAkmDQGtmZjoKzgtvqzt9Twl4t5Jkgpq+u9RgvRSl6JjxEOzyEMh3+MwKYyLK1kFX5onBuqSZ7xwhFOMYKcytCZicI+uwDaV5tJkAKYucJhb/tqU/T62MaoV8kztv5lF3+DUMAAVBiY95Gk0zf1pSe9ptFLnMXiY0lZypAY8LQvggJg/w/swIJK7hLis/kZIVW0JvaataibmxuOowEj8NbN2Nh4DoEsXcWw0saGalp+ECjf+Mb09GwqZAT2CsBf6jSHZyzQ1cC3QLUY6DISExPf+B4en3KpJy2HFK5dUQpZkPMLQ3XHoO1ArbqVz9c06hdBmqRjsOaHXRqe/7D/f1NSfP/izQuC6Qb/0lp+3KyTa8FaKOE78nL7h3PCsP+d+pNGrfa0ajfUQ4QjOzVu22jGz42P9HXn9eAGCy1ByyD0vb8h6To1eZHOcMzDBoGRAsaLcQV/J0aCuXdC3jm7AYul41n+5o3fRcnpucMZgYNC272tvkG/3jQUgHwbt7p2p1aq6jWDIgsJIZsUSJzxbASGXh6cGF2QQjdqCYdQhUDvleu1VhUON6ocHz7pV9pN1cRYcoR3hYXuObra3iw3HbwdO8dJIiuLyQPkadfz3UQyPJ8LeXliYgyhGNYLRQRuL5kAMwRpbEzJ5/YLhl6WRmBrWYa6ceCBUdtXMDBq4wiOU+QxNvAZq6rWdKSnJ+Xc1FySyYB/P1wDfwqzSre0DdMLJgA/JUUudK0LZeyuq/d6qmYggsvKMTSZMHRD43Sq/3yGloMugg2/015RG/VyR25bjMIGDO5irmo4QdcEES0liQQTGuGapokGmhRqKsUfAPbWcId/QIpByAWBM3OKbtP4UhcFGIWoGC9S/H54w5rnOJ7LF+dAI3B576m+p9KtH4C7DfCh6DYqkUbgMPi8Ys+Glnm9amuhF9fIxLTE5ESb8DxdCygqcMGpw13rtdoDKbQgIl3d4yMgwhOj75crlJLhimDSuXWF/D+sgkrT73o4nEcDKxdYo/tkWNvFn/Hvy9IIDJsd+kfWe9jn3lVcyL41jrjQeBcCejDTk7hfNX++2gTsNzmfyvADc+aBP0Wv2Xj4wKl77Ph3+Mw0Fwv5Y+CZVSfwVTTJScR7ZyYVWkv3qRou5WYuxOnsjbw/9gWMwOGccOAaXr/kOraXvCGKExfSKEt3kLZU7Xh3Kjkg5S9Oc5l4yLHX6jualJ0zfD9wA5xFVF7JJm98yw+stkwsV1XQ0x5Hnuyv4tjfYOjh+q1ep7ZeITv4ygGZf6QROBZ8X/1L4F3tTr3bbjf0gsUhcBbwDNT3ApsiwIkPYzglG7eBhaZoWGIHdjA8IGiGiWclOSOzJA4OIhgO+wdk/H3LMaoGowfcGE7GKY8KLFM3e2AqaO/6kKuVcqXVDBmBUtkCEdcWI1CuNoAy4YH/9verIV8+hBxL0ysr3S7W4M6QNEgEhqMkaU6kx9KSU8PurxmGXR1nJJGWaQc3GmrpSXW1XjIEN5aeS4iTCRIkcMOeERDsIDbGxOjx8aQE+8oiQTESo8FecKwwjiaOlV2GGoHDOOFQFgD2lD7mc3EqMZEuoHGGDno1D3doNRnQ6XQ2NpEFMsPzvR7puZ7uBK6/3aODECMDQgQjgJC6srygR+AgqgFDg4MFn+uJ74O2wQWVCNh9gmvlgTXzXJW+Sh+9aYyA7WJgA9vVbNyp+p6xVjK7fUnAKEUBG1eJS09M3eTHwI8klEL7ONKbpfqIj0BSgGn2McejwN1PkijatUAQFKIApwUooI4SLhG7SLJZ3GLcertRf7BQrTVCU8LhdZRGoGlwyxroJDLWVhiB7Q8Gf1+WRmBYqWO4YHWrGkhKOlwCFANbbQWMgKXnhK4/6/+m3tpYLWdthrsU79K1peVf/HatgYzcN8XpuYwMEtShBB7EAWBcxI9PABGEcxzznF5We8b6+v3wXMJQORLPFc/Mk5mpWR5TtkEKg4k0Aq/ejJIM4nNsHB+jwPQE+GCaIkmaoCmKJkiK5TlW2LHsADpAg/Af+3wEhvPr6H2jXtK7yE4UCMrm9JZrqRotIybJUQyPQ5yhZxg7jmMUmOxCpJHDtHEvSyMw9Iq3XaPRJfsuIfFEXEI7JpAYwYIUU0h0ihmGqPXW1u5p7Q1XUglwoNu0DDItjOfzxVycJ7bd8ICIYcAbH/5tXQP+37Otvla3NPy5NQLD2qAetV33PSmsh2mifq3cdGsNDlFOqcTjNthT7KGecBDoCNRA2hvyYi9wyAPVdqRdwMAyIg7BmAaWEUAAep4X6Cbr4lw8m5eLkyBUSYzEWbCfVSMwkLxYKjAW1W7f7Lo04pR4JqNIX1tMoTeNCqB5OVG8KORmcy6EiQCxMEUQJIkRsAFpjoa5O+GA7V6nde8WRPIKLvO8jGdbDUy3MTmPhDjsCwwnAyoVS8UuMmOzo4zAERqBWtMnHieAxRgE8treUS//b+gVb/pa1cmBV/wky++N5DOQCCj5yRtv+4/uV37146WNxi2cdsRxKv928cyFy1OZuTSxz9bgYB8NrVdZelgzlp5bIzCsM6yn9aAd1KCedaqD9LVq333YbCBKpnrspmyDPcU29RS3EBZnSCELXn80wxI4mOwe7NlJn4RShqPsAvZaRgABCAyAo7q0EZCwfBgWPJ2eBfcf6NIwkkV37e7tn/z07kLljpHCxq+89d0fzF8Uv66YQifcEQeG8qo+wEmKiSnggE9aYGYOTjsg0zZtxzMMwldBG87sRJLbHQFIfPccKnDAeK6hd6uNXoDhc3Cs4ky5pXd9RqTxJEirwQCBwAgBPIfY7RNzWNthGgFQRPIsByFrgLzgR03udjvwku4GXpI1y9IaZMol4hzNJUhQDe7UDndACAlkNieVl1Bvub749J4et8Zik8X0dG4ynRAyYIj3Kl7DntNyNuEjkmdoyjhRkMUXHYpvI69tO2obE3UC5BaURELkghcCUShXaJX7jXK1Z9Z1DyrH1FZpo5GSkhMcrwCaOURE9aLjOP77Nw0FBKCAc/uaqjUbuqGqgdNTda3VtTWHc+lCKpPeiSQ3hEsAH4S0ngc325AK5f9D3A8RgXmCAIlfabUDdsWxC5iQBjQCdOjJLzhJ0rGYNzcHhzARi32JAMdsEzUbYKHcEMcDLgeRTg9aHwSA71zHDzyPZS0u1lNF8MxXeCop4iGNdIKLE15UIzBsJKxHuZiRZkPNQsgIiJtN1ylNIir51jl+PAWMQGmzYpmf8xAbiUHgbSxkc0KAwAiaARHvceYEXzAKwMVH2gWMMgLI6yG9DI5fNVL2qEQMZ7elJF/QwDGvXV3X1lcNLSDm/8OZa+T7fNvT/ZWNtv5kWc3PmPHDo1ceU+GLv/oSV+SLd+4Za9jSY/f73U5XbfdcS7fJwAYXWheW/EDNvbdC2MkUOINyZN/UvPV18IE3UxTGItO3W61qq4JYCDig0AyY0FhsEuxl80nwFiRAI7h1+cBsgLG52m4AojHBXlBtduoajotCFpxgsQCoBdj2cPiDY3IyeehXLTuobZb7G5vAoPIPH4FX434t9vZnu3/VcqmytgSMOfEwJQx8+8GtH6LcCJ5NNms2xDnl5zBFAfHHsKcDD0LV1HrdXk9TO4bRq7VQkDiTO5++kOfxZL4oqEx3eeMRaQg8LYEunRcEBsIph+Z5B1QYoDI5sUZA6zWTXh+VaLCxBbfl3SE84x18CQZfLCluxe94MdNMWPMnsgvwNd1trlt93RamQb3K0ftovhMNIqQww9Nl64AJbMfudh3Q02TPxpPJa4lFp1yvL+p2swN+J4f5rZyolRcp9CahgEHEGLNTrbZaPd/BJFqUZT4NoTNzBIVwhsLBtTVkBLbhFfLGNBmk+FK7UfvVr9oWrUzHqRjqWq1VDVF9ZT6dnZJYvsALzo13wCMISyYgZNXQoCasxDN8fbO1tPTxL+8urtU6fmCQccTPFqXCJHb0ibHnq1LHNxt9swrWSYhYXgUPnS+OUmP3Wvr6IuAManWZlArg258fRLmZlEylUXM1X4nhtAz08ha1MrTGq648vHv//krNqKIsIWSmxr/3zmX+fTCj9VWzt9p+cOdfVxyfjqfPn5uYm5qezmRBKAaS1BfYuGCc4/tAZSCcIAlAh3tRwLPIAg7XpGzP45f11zX1fmXV6vhc4gqVzFDskbYJR/UAxu5CtCYPD5HAq3q9SShgAGM4tyBSLU0wjMyDIA+MRHkSvE3gEAGueC8FH54tNCskCsmk4wg1GkyBBgXgfyA7jIEdX6qQBVteEK17Y1NQexiBZ28V+6YVGqKzWQn+QZCcfe8O/wnwF1gWHItD03WW2SEwDi89fDr0ooN7nA3D0g92Fiwxz3Mctec6DpzrFBsnGNKxwgwFjX6rrum1Wq3bUB3VJzwqJsYL+ZnzM+PxjAKh0SuVRX1Z7TdJT7NViGbcrIKXE+m62GRCABnqcV0ZeTeM16RpWrVjgjU07HpfbRlqDMK3ShwjCrsh9EPagqDA9wZog62IHGCPTCus4GfBrwqHfA6HQNmzNLNfg/p7YOjR3NTrWD8QqDQuHYiANNKp570dxp7QjEbV75mkfEaIZQT6UOQMIyBA6hyKCXEUeiuAvqRbVyFqg4NjZreiNQU1AKKKiYGTIuBBmqJlmbK7QXWhXSdvDRgBjVFCcpOlwSRyH6J83gE8w3dvEgqA/QN6bHZsLOHCEQlSOwK2Afj9w5Lb74i2A6Ghn/z5CSNtUm5AQiwdAixSbM0naIg7ygkihA8Ov9+JwLPzJdwQHM6PJWbkb0qzlweMgE8yEEscVEoZ+eidc+ArF2KNeaGEO+zmSZaA7wUuUA2QsYgGfAeqO/CFkVJc0O62DMkLKEWmYgmXptX+KmQo+Lf1SredG0epYvLG9belmMSKiijKUkzgKZaCVB3sxPl4Ylydu6lp3bbWqrUhqMJjut3BlMuUfGIUMIzXVFte/tmtykbLAvzLsgrFpJO5scm4mB/E8BsCD4OJITkxnp1IXc7HJt9KBzkB/K4tCCiguwDtcBYoQhuRBXgM8s1+o/LoJ8vLyw9KRLmHW4iMT6Qv8PTkgQhIw1Ze6P+D2BO6bq628ioomYGzG+n/aM3gRuiD6QUWANdEIQN3y92N1fs/f7q60epC5GiMQ346OTY5o8TGM0ikEUnwwsQUp9/1Pvm7p0vNf3YELHOueO135uemRRHir5xUYzXahxe8f5NQABwdDEUyQMqf/MJpnk1Osck9sTcOfr4dW3zvG5xEeIxX4F9+74tjfz3fV8dWCSYqIMLULMFKTeMBFZOBnUcsCoZuUaAlIfkkky6OFafGU3KGRaBf360PCFxWkVJuHoygu7XWCr5Rt/s9KuTf9+EjkkViFpZpFjEQNeELE4dgEL0gnhfShazEQqM7ugnI/0PFp+IMPisWCalQPDzBRqhJIUm10wTkCMbNQO7sXhgNsd9yQnIqr/B7IiDhDEbHWcHNQkYGmgIecPeb7TsI5cDnphUHkTGBA+LjkCJbRcEOgU5Mxwg2I/PQf+awkpA7gFKyvBfEBZamAxqDIG27F6wuki+K6Ukwt8hxofMWhrFUIh9LNQAmNZ4oGyImJgrjqcK4EgOTiN1Pv7o7cJ15hdmUrw4Or3tLA0YAwpZ1+x5wBrJMwoKEbF0DRsCwfIeP4XxMEHieJllQaB5CaA9ZCdOGMKOm33cZ0K6Cdx03EjVgGBzdcoMOUjCC2ZfG6yAjQIDrDh1jOXCqojlmJLXZIEUXZPjQiCSi2CPSbIEA1zJNp9uBqSFkhaUwCGm2xQiYHumTHLg9JCBxAzdIlDLcn4PkLuAG1jFZUB0oEDn+AE/hgV13twYGx4PwocLhqVCHjIDh9joOJICIQYTkI9R1w1QrUJtDSxiJ85gJAuIdRsCHcA0gwwSGdJDcDc5bbVP7UQAAQABJREFUCEgOpgGvlGlQhAJe980f9T+CwAtB4JDj4IXqiz6OIBBB4LWCQIQCXqvpijobQeBlQyBCAS8bolF9EQReKwhEKOC1mq6osxEEXjYEIhTwsiEa1RdB4LWCQIQCXqvpijobQeBlQyBCAS8bolF9EQReKwhEKOC1mq6osxEEXjYEIhTwsiEa1RdB4LWCwJvkI/DCgHfNYQT+LpJxkpFZSCawaxc+NIAFs9YekiHO8BFmrSfpQxjXwNE1rd6yPNyTspQgvEBtJ2kxKjMKgSH8LQ3SD4LnXlKmeBZ8ol8sINho/a/ZfYQCdidsGIG/qQb30GVczF3LEay4iwKGnnA9E3uILgZc6gUivYVxDbT60tKHv6lDwvP57ytTMy9Q227/o7uTQWAI/+rSR8tmQMffvaxMZeME+PDszvXJ6nlDSr0uKCB0Ghl4v7c0zYSonqGv7PNeg0S14GArQKQdCNEBIT2pABLfajokuKl0qjqhx2yWdS3LsyHsMAmJegfskmcGetXqY1VsJvDRrLyVh8eG2Beddui4Au5knLCPdtjbx/D8cY2O2VprLD+plFfBUawbq6QIeRzCExzhiDJag2+brga0AzKoBPjhHUc7nMBhZrTmN/x+6JxjWWHeB7OLuTXIH3/nwYaF+PFCLIvbGoExAzIAvMIpXmJomiV8Ioz0gSEIIwGJDzzPhvByHsRdcwIMgseKJEUPMsrsQg4yG5rdbhjRLHTTYsGLe3R3bTlZeUEfKZAv9bi5263yq7gb7eRX0d7zthHGxu1Xwfv9k8XF8iqGulsZMp6vPg7DEulBpJ3Z2bFxCCQOAcf1pXa7+WlV1gNprsClFZe0Ha2PCzGBHnqbwXoAR30PA79ciFwHv7aiwVYXH332adXg7anfSY2d2Uc77O3fIK5Ra23z40/KpXI/FtN4GSJ4Q9CJbn7OjCfAmfR4d1HY/9ripw0drSXeIuP542gHLxxRp+3eDfPzxK9Mc9kDPnN7+/Ym/xrOVH+Q96FR3sTU1Uq9e7dOeKTSf3C3XV+F3KYQ2QxAwMppuXghlUzkWFugIKgk7js2ZnZMw+xovmFZEI3SpXhXmRXl5LiIjwZchv1fvX3bgJV57YrIZiHQ4Oju2spzpaOH5HzAZ46bu692KkY7+dW2/NW1BnjZNHS7W4csgUQsJTACt+N9Ds6bCCLaG+3eZqPagNMgTcdSGYVLM6bW2Oi5qK5P0DE5zRMQuRKDlL4OUAdt08YrgR6wuu1p3QbE2YDs9oAgjh7SwPnU1tp6Y62+vllqOj08wY9nsxhDbhqEVa0uc6TrZNOyLIy4vh6sL+ytbmpOCaIEa9xxMWd9K7DbULLalgNaPDt2aMibgw2ETwJH87R6p9NZr2tdDdDWzsUhFBcVpVCUFSXMUfK6rR5YCbZt6moF8iR6VCbLS0kI1LE31XroNO2YarfdMpDjM0wQ+JjRt0F645G25yEIS42PBpsdACdwUWBYerta7mieL0/UcSqomR4xkpcS00qoulDuA5spIEHnsrgZ22U9IFYShFGAgK8SR9LUVyqkf10mcRCHN8td+OHY5DMzAhB8ol5dbd/5cBBY84OZzHSKDyCU1YARoG3Or7ebjQf3rZ7LFs9nU+OpZIymtHWy+Um57X1K4FSS+mCWH+bhdSFdV3Olqi3f8VdpwlOZHCMmx2e/PxFPxBJZSSKAEdjZMbs3wyg0paeLv/htpYs6Y5DSaGI2z8pk35pYLm907n5+d/VJ9eoHl4vF4/hSkg9jzjB+27lfs5vulxRzFva/sfzRw1u3/ttHK/dXQ3/97Qsio9ycu3r1R38xf+1aet8pt13mVfyL4UDpQd4H5iIjJER+0QAPfury/Pn4eCbNkPxIfnMCYqbxtN5sVu8/0lSdyicxXkAOhD7g+LSicATtZyCnGiWIEEh6N5AsBApxyobdrvoKxJvO1NcxbWWhandG8iZjdhv1V2pacFf3gC4LMmRa3DmJIAacTCgTmUzm3LiUoo4OOfUlQPd1QQEALJ4R4V8m9cxQgNy+G6tUrXar5QTS7JlLU5cyEKaXHp7M3Vp3c2F1qb6w4jmMJEy3Pc3b7Hh+a8lYWlppWvccnkxbeWaakr1EGOLLtW3dsiHHrAfxCH2CZ4QMpCnLQXQ4u0tqhk3KPsTr2D4hIXpv4PT1XqtZrzdXG/VuYFFxrjCdKE5DLKo02UGySfnB2mqz0683FxdJx9ASSQjqJTE4JDUcjDWUIAz4TN3SO6bjdkwP8ia6hF7bhNDaviyKAuGTVs8DaQkEPx+ePPb+/DyYPWAyMCKA2IosGwMhyCBs+EGM5VuW06rqzWpbtzpOGC51ixOCmKxeGyLjLa7UxARNpQQI/wML6GANzzxFz/fBQN7huIHqiZCPWGBQ2JtDr2HeB9qDpGqWxCGlyJCxM3OzuYKEWQ7EfoLA5DCbMBAslDJptaapNXudvimlEywFEehYkBxBrDUBmMLAh3hKEAEQAqLuXAFkc+5XgHboMfGAhHDsKo/0/X2BPFdCliH8NMFAmEFmRNm0U8/XcrO/n19LJ76eRgcnc2/z6aN//sXjlfYKlfNiMrpXXXnk9TuG2e+4WrurGaX+v5Dp9V9Sv6+NC+9APlKC9MPlkJybujChCBigAEaQBd7vNFt371qwiPbygbD/3dajylL5V5/1uw47Mfet/GQhmUvH5UEGe0xA/Ex6Sn6PrVSWS+v3P3348Al99Z3sNKApdhsFDCQI3Ur19nKt2mwir2FCal7b83srj92+rmXPzaZYT6g90oDW6QRtIwwDhbndffl51qTBXJOcx8QT2cz52UI2IULYrMM2MGCweHri+gfFMzepxAyPlDDVNyAiC+mdWi+4t7b+ie7I703HJpQvlF98iZM7kHdoGraiFeFcnU4h5djlHJiaW1k0W0ZTmAnEDMEgzOo0K70AkUo2C/GSd6ERCvxiEE89MV5MFFKQQ4ghw6imJAmS4QCkBlsS4u2xBSCmbVVdyMOcmERcmp5AqZjHjEME+xHmEMRIe+MjkmEgpa1rlBHYfvYV/T0WZl9RH56tmWFUfBDs9s29IN6qBsAKYUMZRowxLMWB9H8Xzoc1FJ6KIB3w0+mUD5G1aBtzDPgCDhVKESTenObbSMBx1zIM3OMgihQF2YlxqZAdT08lIc4liJHCU7rVUDuVhophguEwQCv4tmNCsNtuv9PsdSF3qQ3Z4zAxJU3P5YrZQfS+YWcgurnCKdSkQHLI1TdrkPrEa5XalP+0STehPzKc8bjIbq0kLDzNGFYMcrwN6UONaqMbUNzEOAUcahmC1cL2lAyIJgogOGSsoUzENO1WB7cRVxwbZfL3lQbqg+UhFPrUDTozdVlCmSFl6kDar6WFherGzzpGFdPMgjoId3m8CHNf1S/z50DeYZtYWysEblAIZfHHTfYw5zKofNpm0iXZerVt19X1lSaEEUzruiwnGUTzDIpJkHsC1lbftUB5qxI6C3SVDRUDNTm89lBSsL48sPLortV6fYQlCDoTp+IkL/i8CNJDq6valhP2DDJQBZCDgkD7Istu6SAg5DQFYYi3Wvgq/7x+KGAYFb9Rqz2t2o0RXmsLahABGGP5ZCZ9bjadSWRINKLa3wtYDAjHRGzi0oXfz0/ankVzEN6VhnyhkPsaxD6gCoLsIz4kJXMsJ+g7tBC0Rczp+awQS/liWiDp7UMjPKXdwOz5jBVQyYAUA5t0mlptZfne3eWqueIXMXl67puJiaySTsoyC4E396zUIacqj9OXfhCfrFcg2/HGk4WfbyKHzc5cvXJmJncmx8vyePZqQrGcSTjgkRWgfme1vvyva3ZTp32IVe9rLcdz+MT5C9lMLg0Zgpz9+XnGUtDPerVq3LpHYipBedh2//eC5ZhfREizKBJ1RWnqWI+kHMip/CyxWo+p+qt45RhGo7ZZXa/1LOb/b+/Nf+TKsjOxt+8v3os9MnLP5M4ii9XVi1pqtVoayQJGBmZgzxiwPIAN/3EGbGgMzw82IM1o3C2Nxuruqu5isbiTuS+xR7x4++7vRWaSkSuTVaxusiIeCsXIiLfce969595zzne+47A7X3YDOkB51XZEsKXdXVWd4ZJytSRdvU2TTjPqPjM6zj5tkut59QR77LGdFGBFnjM0Np9CtAxbTLQcw4KddVQtwmi1H631W33vgu4dxCDKlcqJ+MIFl7zbnz48FYBNV9hvOr1W15YGIQOXyrjuzMghhw2E84j6DKMXCpjS52nWTFnAucDxoqiOa2tsIuD5PjhG+h7BYC1whMASAn5op6nVd326gdIkQ2wLQUNph36n33a7pMQqOsfQrGOZ7Yax2+ybngOvMJQFsAWEE9he02q0jgrLHD3j6FFZ5R6aYnK81Jdlh6FDN/RMwx4O/bAo0PBeCpo8OjcNjcR1mA65l8sljC6zrJj4jgtvNS2UStrcXB0zM+DSYTdhw0pQS7lyva7OV9w0icnUKuSw+0cFgrM4RE+06cSfYPundJ43akI6JDxsjVDVZ2R1YJVDuH0w3GoYA7OXEi7iI9hIqHqhtqTr+hjR6NlnclJOLs9reT2LvBwGL3GHOEREorU7GJoA8tlBppQPzsxJXIHshYPNrc1HW51wzTYIrmKuS/VavjIPr905pKCsSCl1OU/PRrJNokxo4DtJ9vbwJHh5DjqLimsZAiB0aNYHJTz44wlE+eLID+wBTCwa5SkY5dX4wHqBMGHbaTe2ng3bsSx/ksJNmFkLsQ+XAuo2YWPWsgldSLnjeh9Pw0MSq2VFjqsvJjJRFtHlY2vDQYu+7f9/gCoANQBNh8AGePEGvIPLcO5w2YA7OJzmZvvLfzSx+QocJySw+z765Zx/L9bWI32vlYor8yVFrzJWJxzuDF/88+6QDKr5nMKKqD5mGVajETCFdOEns/MLvEglRm/7/qZhBuT8DxdV6RZpW63tF//12Ret7jBJg3Mom0kKtLxLtfm5O39wq7LK/fld17OSwZARQptOMfdfl7JJ3GGw/dgxHGvxZqrNFXKa4rQaBHFAGX5OP4FigL2CICRbqsuIjfIg0H5nR4baGG7df/C//e0X959/HkT7I5fkzNV7n/zV//zJx/fulgnhcKCdfaa+cHv5p//243v3ssjLoQqAsvDs1rO1n/9fX9z/6hcb/tYIdHNw5kdL+R8Sv+5v/OZ///tHX6z14Q4kyJLCL1y5+8lP/4c/vXdPhv/iNAxC0GrVj/9Kve4tJhLAHRxl9/c7uXgrILi5T2+UZlGxEOTknio1Gp44LN9N8/zdj+dqNSmrCdLsb9zfD1OmdntFq0Elc6gAA5cqF/bI7rq1vbn5wu/Q2qJzON7IyCedDoladqUbSq14s0yA7PzEEQ023bWdbtjZCMO+R6GMwu/l+ABVAPboQUigdkOuyFXmqq8s1ZH8hrEZM/CYewOU1YkvCtUfiPt8bY0ZAzCeMxxgpWOTxSpWeJKe4bWwktsDVCwrAXt4YJuBiteKNFMqzOQlMWQDLPoSB0/CzKpWkcvJnkEM2wLdQbGQo2vO+hejB6aIyuZnC/O5MuFFQ2dnG3tt5nXBz5EP3DV7jQaWGIav5cVSCUVo6GFMJW4Uel6r4Y8owuXMEGjtd6NWB/T04d6eRLkRERp2TLO6wImoj/y6A2c15ozvDvACqAneIgWPk6vg2ScTmkhCB3jn/e5my3A8J0WgBcfBGm4NNxsdvTWQcwpo9uGhgM0SOlh8sfoeO9MxBptrHU1rF5cyDwyNUDwsqZeNl4922sOWQwbxm1T5Ge0d+2pU/TFCRDeVfKhB+H+SIA4RQolg92f1p103cD0UomfxzjEf/cDV6rRQrsyXlmagK+1WQrW4YQhAcblanR9FlEZ9DIBW3UOp8i56FElU+mqpT2LCd2MvMLzE56hwZFeONWj0ES1wDT+LMMUU4KmvF7KTJ36rf7/1OPhWW/O7v/n52jorzjFomWsPupTjkahNyqopuVJaqP2R6noBGOJZuIdHhkAY+gG8dLReFWUuhwGWry19X45Sks6hKCnK/dTpldyrikMAFp7ZTRK2OakIsqJXFAV5SAScmezcPNYOUhSPtgAjH3jf6Py2Wwko5abOlYsBmVCm60dJD4VAdh6w7svNbWzCI1TF3Wqa0eNuh2A1diggIpCmKLRRUlbmKkAvwDH1lscBXqC9Zz2mrqXK4gKjlImEIzyr3V/7xW7PYNW/+Dc//jfyT5KUBOAarseeP3g24B592Z+7w5d54Aj4kAjMlMovVP/tv/vxf5u+OtNpIw6/Rax7rSWVzisrkku0Xq79/N/vtJ1W5U9K1+f/nRTL7AlDQK3Nr/6vCw9GhsAyDIGV0pEhMF738aCPY3u9Zs/NvLWBZztmt9Pd29qH277Ue5krzAvS1ZJKLOvrIc9Hwjyf10lUYzjnfWUQUcJD1YWN9WC/FysrJF+huNwxmWZ1E9cet9w1Zivdyvb5x47I3He2m65Y8fTozcVkj136Lv+YdBUAzC+0NZGQiVhk1flynZg/fItZfJiH7qd78A4SwIYD7skqoqbMaZg8WU7JOQsTnBOsLo5v+1Dj9y0rDmWvGI+DY+lo8o/wZ565399+vLZpPd2boYX0Snc3Ya0+NYtoFxHB1LdQVdAeMp6RiESgKii5Q4+q9NECB8RbZA9CLhbE1ZQWWdi45x+YbNn+Z+vRb6znG8OjoCAZDGizMyQUolDJVaqqKIixR/pN30AognaY2dmbd2qrFUx1aVTdqP9yc631WT/C7gCGManyKZ/hCSU+J5XmylVeen3mi0dr7bWm1x16AW0FdRKhh36rFw1CXZy9Xb16B6bEqY20RmhSMR/PmWRueDvlKx/NElW4Ob72kSEvXc8lmkFCa4xek/NlCRVQRpWazrhphvkP2p5jtAJlwBZylR5ZxYYNuwjXDoye3fT7fnsQBINWYJNtH3uBkyog9IzApNOUYsxe2N9rCTwX8RfgNc5oxLv4auJVwFsIMdP6eI1BCrDtWAz5Le7wDU4d4c8G7Se/+eyLhy+DTQcOvcEzb69XLxgzP6ODpBgRvMKXV6tcVLEeeiLLr96tFGpKFCH8nEpcYDfb65+/9D2Ho2JoM0S3zz+g/vrt7S9+8av/99Ge+woapM0sL3z6p9du3f1oZXapKsF1R/o20X4e+r69shzKM/kc7BdyFEDEzBEUTVi5Se8DFe8TXpuYr5B5jHK1gt94Bqb62Jk5feVWnbepBzRvGqhXBM8Gbc79JUXmby7W58rEOBT//Gaf/8uojqM2U7qlBqtw9sExAkMgstq77aefbUUpPfu9a6WaJqW+3XVfvED8XlkuKvUarZ6J9Rw9hwxsorseOs6gsugD9N9ucGRkx7Hb7zY7j9r9HVScb0HxMQnqzIvMyfmPe2Q4xMI8SQtUb82MzAfdfHfmYrzG+R38Br9MVUAmPGQJmHbbt6k9MiEPw1wBUN/dRr9reaANwKhBrdHI2XYjssfMkZyGULl0ILwRyjCMCA+lZElGQMZZBGRRy7Qt4MW9C6Lvb3ptJCuQUl6VhYqS0OGw3+rsbhmGGfqoVh37QDE2kcSQ8nQpkhiaoESWy+uVGh3l6ed7Es3IpdnSYk0DEI2wiai957MbjJCQvERRCp2y521izmwVQuSwau3CdlgosrOVfG5JH3kTPYTOuzDkN7pUr92nLGJvbPdDOq20/WSQ6huJqdGhrzOkBMiGRHhDsrPZHwwag9B0s+396Mxtk8z3uEjnYGV1AXQICtcJoVbMi6fW/zObeOGXozqOqDaZGfGHWYP20Ewd2SnoOpx8OVVFrTUpHLqU68IsT5LU6kU9v0MSvdGOZtAxLeQMoY7i60KL2HHQ8KroUBUMpVs8SSIM4GEoDRpwxLi2lOeL/HLxjYLOlhYvGHS3I9JnZ+ulAu77BrfRhZ19yx+nKiAT2Fk2W5imjmkm+w1Wr4hLWeS9767/su8QT5V/weiaWH6lAnwggzwn3DPgaRdmixIGNGrgvnz54rdbURPexK97kFqNWfrelaXqn6/Gguv+5jNj2OcKs1fFcsRuicM+6UYLIVVdLOXyjO+9LCQ0Aop1NqFUsQ0/nRleaXmoG0zwCcpxbweoGczkYq6kUsLRWn1ey7CQH0MH5sNm2v5yP5B/zeVPX9Pf3/j8//77+2v9/8yn4yQrxEhxSPVb2k/v3svNhRHUQzbePGO3ff9vvrj/2//nt/bzfew4sNfOVExh+ePVf/mTPArC2xaWaQIxCzkDa5x+4jf55ihrsPHoWWNvt29bWajPfGhyCJOmQJzFDnwFJP3i4d7Oy4O46cgxHNHDSMxLQsrQWNFhB6YoIli8pWnEx4lqUj1zkxgmyCWwIpK3A0HmZhdvrCpIOHtzseBRDsuW+eU/emmIxycRbv5NeviW136QKiCBF9p3jU4LSP09hfCP7GX03d5vNnrOkBQOofJvKY4LTocrO+nvWCbZjlyWjT3NDwjbQcqZYzlAAkacRYD+RwxTYrQTPuNOaewRwdB2wsYQNc+5UgllPrPQ1WXGOPYXJK3wCj1T58Ik6rosRdEKleqFPI+8djjaIzgugPpXJC7lq4RrBXs9y+fNco2TE9Pb3cFqnShXoc8UANHOaN34V2jUcXRg1CLahbU9a7CDOpq9OOYdInOUvWH0ABXPVLhctZbjq1LKMeFBnL+393Qffn6b9LK861MHVuAk0wskJj9iIZeRzql7XPAFXJUpfP620ewGfYfNFQQgPA7PB05EIipvks7ByXAAAwsMm7AG90afChnSDDPgMAPx5ssaRZUKkqTQYJk4qBx/XpNG6MByriRXywZBSRJLHaiY885/59+/4SW+8+d98xumJFbkEMDb7caDAblmSWRuLMLtdve7LzqEVsl7afHSDxPlXG3lZp6rfm8mmR03BPb7z+IuKcCUPBolo3umCVZ+ZNJubDz4ar3pbiRVorCweqWakwUKOSVqpXbjL+T5Hy8cNwRIt5N0H61v9f/jYzGUyn/8R8vL87p0/ipxzBCI0+/9OIm9nkyttYyQy9cKMn27YkgStWdajY5JmhEoRBBN41SufLXa3bM6mwbd37sq6W482Hu027PJ4pWcMl8RlDGVeTkRpbxGlu8q7v6NtZdOMvQjtU0gHHCYD5+fWfr0r366nKgfl0477Q7BPFqeL0uhvZvF+ff6Xn/2J+If/vf/408DoCjQhJEh8CUMga2ZM3YZl2vjpc/CKouwBIKXwqJUV24ti5X8xbPgVGzo3FUaQQtdzM0s3NL02OD83eELY60VALdwQeMELa8trcri/NKPKirP6CUJ/oeLG3TB3b7GT7/LZ32N5r31JQwvS9UlrlApwwd/YfX4t7716ILQg4NgN7SStcAqxIOBHQYR0vQkHjAAOUv2xtJFYzfAL8ulbH04PA7yyTv8IGxZOWF+ZYYuzd3+ePn6PKJzcephdQSgjmJzIoei4Ofw2NVgx/pxOmQNl6ClnKCIMwugvYvMbuikgRvzBHaqgKELolKbC/y2sjFwgFFcU7uptd/lYi6XL2qViixi5XrLI1vxpIqk+YvaEwRITNNL+rEq0xIDALaCUGidm63I9buf6Av111mSxx+Chd1rgZih2TdcLr19pXztk3tlYkbG9PD9vaeD32xsD6kOqHtohuQVwrapre1AigdqOSe+RvtB/ceAQWLrdIRuxKYhgIePBEoaG4ZLRAQyX0CQcUTYMN1T4AKPt/P0XwnOAjzQd30yzVhEzr0gpciU43hVy0uFiEz7fdca3+JlNn/gxX0DN6DzGt71wQ4Hc1ASZL2GJBWOQMLi+GpzwBMFhIvHI0IpKhjS75rk8MNTAWSK3Rar6sX5wp25XO2GQiC949UBgEbkudhcccWadDo+/Oq84x8u4ws4uGI46D7b/OcGURmuFK7W9aX5n9y4lbslIo9fRoavfAr/f/icQ3/+7le/NVsut3hvobS6gHUc858B+sDor9/f91KmcGtRq+UvyWMHTzIpKbm8f0PtK2nycE3zEgXbbZ1WWHlZ0+jbxS+2t/ce/DIakPlYuVabXVzRS3MCAaK0472/7F8YgNWruagfbbZDw3Nml8U0J5LlmXSnmfzDY59pdGa/J9ZPsuUcuztXJAs/UiKuVC9UKoSSmUwZXtBovfjq7361bcrDv/hJqVxKyzXS3CD/4Z9duBK1P4u012g/zH/XdXGZKIoHUwUIMNN0s1y9CLptfPoce/KJP0LLHG70WwbBDLkN/WJj46RX6MStTvxJwmYDwovXU/ZaSV8cyxcc2fwN+8v70AXyjdvVai3znR6lCdEC0OEIkxynMDzgiep76X7lHpefWc0xhbHRfuLRX+/PD08FULzAF+q6QqzUFoDGWcqi1pfre6a9z9Xgl7vF4VkZRoAWOZBIzC7Wixoy0NkIIPl+7BD2Cd64kf85MPvG/u7+Vr8PKGuhtLhUqy/kkdmKDD/ckQTmLxxgUdra5nNYzEq5IvLSz9kLvGon2kAyKs+TAmnbghcrWkznOUaQMQJZJYs3ycNWur236e7Q8+Kte5paFUFK8w3S1GlBkGtVOTWYp43ACozSPIgzJKEq5MJqbtAzGsMnv3luKWsZNOhAzngxkpQ7wO3zEs1yWOwq1Whg9bYed7vrGwQkgDNjd73d6bkOKWVLLHYcck3ImZXcRtLdNx/99sVwqyUkBxBjrISUXMpr+nyZ1zgWZg+Z9IjO06G9ft/I788UL8oReCW7b/MD5jBFIaFUIFiBQV7V62ch0zBOYmA98NJz5XJtfl5//WP26YRqziSD9WzQ6PV8ws1lyYrvZvgef+qHpwJoWReX7zIJocBARWTuYg3+qreI6sHLnA3NM8R4eV9ATi9e0/9gWbvyB4vCckkEU4CAFFMaeNazeeMO/M+DvZ2H/2WnZ1P8zRu15bmFqlZgCPiKR65AQVKElSv0+vbw8ydr0Y5J/GCVEoqX3QsEHtHtRJbv5pdSsczw4B0DmNZLSNtnTYe2M5Bq4vKkTdIuSSK/5ZL68pXgxj6MMgVFdq3m/tKI2D1T9rT5FamcW6Dv/jWx/+DRs3/895+vb30Vxq1DsCsoVhcXb90b4fYXVyRBEujlOigHvvqb/+Mp8nsw+EiiQhC3kXb9k+vXZpbreyVcgmWupC0kH/01kb//8NE//IcHf7P3JIk7o0Qebf7m/B/+d/eQBqASGkwaaYYh2urO3734svmfOnVh6c4FOQJjPQHIS80tlXkid++GOFO+WCaj8PA5XqHxe77rz5nh4EVxy9bAWVYUxXyOEb+F+fot3PJdS+LE/UgWPpMq2v06XWv8jBEa3LGtPpAZjodUthhRcaLd3fdNHouQQnMM+C+O77bgnufhRFPU2frccXRgynYVO0wp7J3BDABeB17ikIvHlJZW5oiFQxwhHFpgBzD7jZ4Nl64XgYoi83GN8PweUkXXN7detNY37VDW55DjplCB2eubcf+o2STy8AM0ttvZNobEfqpQRpzerOYqF/MIZrosBLLd3htaAxgAEpORELvhwDZ6HaPX7EZKkF+uLsVyCseBKXqbW1tmYOr5vK6CpQ7MA+fsmrHPYgs1OSCKskCP+1MOMgWVQrUgCiFhISU281sxgkYIdzBeu50HgoRsx6N+Hf83OxkvgKsWClVd5tmjaYfTZV6bqd6pzlytMJwmytgSI8OiUr5DpoTdffh0f4dgRy8SN8QSy7IZajJrPRCOVF6QCpWCUM0zvJHp1O/OAZB1aoLFuherESnM8UKRIzORv+vjw1MBb5DACA3eW1v75X998HKrNUhSD644ZLbKM3z1xyvg61OFr+dxRdoozYjwVZ1IHsc8zPgCCN8hRT/lCil2fyMn0AGe/+mLX/+fT7casb+yKJaVwOx0n7d3BwNk9LzqCMJUZGQZ3f2g89zw+Wd+9LjtE390nV0sXbgXwKxzDzDqHZ8q3Wa1aiKmyGjbePTPzxpWGq1cExfKf3iDFWLDMV7sd7b/y0OZyc1/+v2Pry7UKkIqn+NYunifJWiV8sc/yyNJWinTWIazGY91G3uB79/567mFf2n+5ChZeLTjODIERn6ZlMoiC0s/WPhf5v64b2Ym/UiT54GKrVdThCrqlA4P4wgLePY9j9KKM2ziaOcsyJVrKz/7nwrfc+/YQorGIVn4Ej6gb88XMOrUu/gfVEDYixKQkYkplQMc4euN2zc25TunAs7ocbbOiEB8L5VrS0VV4o7Wn9OnYl2No8CDyxt0sGAHbndtA85HXqDg4IGTR9VomOzdLccOdhMx0bASveYLaKU8K8Ma5xQwUUFbAzUYOchZNq3QjkAPqYjFnIDCBKmfwmkZj7wA2I1kNAEsxeblXLIwPxTsMIoGyaCxvVfWBBj0gnAIQjzV2iRIPMd1h01HAs1vNekqvt3oDe2WZ3hwXed4fbFUX7hSEXJxy9jpgQ1pAx55xzAanR4nKDMKh+X0lAGKx1y8z6IFSRaWjrcGEpYETRLu1LGtv/DIIgs6/quffdZYSPCS92RYuagvF2FVL519y1PfgnmJ4uCEE4VU8pJj/vdT537TLwBwiCzbtls9BzwWFNXtDQiQR8J7TJ3Lc3j0zDgETRtyGEOEX1mdYi8Yt0eXfK1/v3MqYIQGL6xoJzLzGPittDKgOyCBPV9Q2boamM3ms+etVqvte51YatP1UrFIIejH8fDkUZ2h9+jn+xbjL8wquviKL8CjtKD+w9lSFZxlh9oaoFReF+uz9T8TmT5B5ouqlqvMaLLMgF8DANisGeCgZDmGojMCsgiRqj/0zZbd3tyzrIc7nd96YvluqXiOCkgDJ+pvJVE4VOphECi9x1E/+aw/E9KzN3+4eh2hNC2PEAVoSNm0oM398LreKy/0ex2v32iafmgqK/DNoannK8Tz5fRB/wLoDacqZXLlnjAXi0t1CTw/F3boG/gCIoswn7XW1//zr3ZAp8JzKaPPUbP13HwNKKQLH5oZeaCGIv2Y01RCAiHZeYizN9zmjT9f3Pk3Xv7+nTBCg0uwdvWZSzWOEQiliplQJfhUGlF6HaL6sY6zrCDpenFku2LJlAhtTi74Vc0BjzDzOvEDJjU4eRWpVtCrBSAEDicVLGek5pfomY+LioXEFPjTZa2kH7DQIkEsa964CjhorgMcHllsOp0Gj0we+oTTguKR7ivIUTUvIj6Oojd4MjDqaeDn2ZYTBCyrUrlK+Up5vpwhTI6mN0z6uqDopWKvr/Q37CFIc79BZOBScn1vT0pJvJe8pCuLKyrCOgB0K+co2aMuZIYkfM+JwUckA+jGGb4kRIVryzpICFUZsOZzeGqw9oC6WcvXdIQDAdx+w4GoE1gjJbIm5VIRLLVvOP1r/4zwzRke8q99uw/uwizl089y0wYEGEGQ7Y/CYAeGgI8U4YBiEhaAWjEvwg2AwlK2a1u9junCQwh6INQaywyBjC8gBe2gWhZlhCuyTNxMDgfpQygg5mPfj+Q0hH0RKjpkoYWnKzsOIkijWPCBo+egPbYXtT0R4bGKxklHhDvZ+SMXox8kA0/Ai9M4hJoJI5AAmFThQ0ySTiCDTqk4uurkJv+gPV5kDQNQGYCFLGvMWYZA9qDv8DEK00YZIAt+nSytK3uNFx2ZeQgiEcC34Ec+U24ZXZ3RAu/AyD/yGsiE3LIxQyDK4MNwiOZKEjwkHJElIp9/jJKRh++ijO35zxj9Mukq4A3imf48lcB3XQIX67/veu+n/ZtKYOIlMFUBEz8EpgKYbAlMVcBkv/9p7ydeAlMVMPFDYCqAyZbAVAVM9vuf9n7iJTBVARM/BKYCmGwJTFXAZL//ae8nXgJTFTDxQ2AqgMmWwFQFTPb7n/Z+4iXwncsReGdv9M2w0Hf2qO/ejQ64Evyk6wrIgyyoNHC4b+wlIM+gBjxArI+Q08ihPIBNX3TpAbsegLQuWyA5UKi+AXh70b0m8repCjjvtWecLfaI1Q/JIbU7K/kqN5Z4c95V0+9HEhhxJfQ60a93qsiV+uE1qX4JFYD5H6B42xE7KMdy4Ah9o0AP2PU6DrFV+D6Tn7lVQJXuN140PeG1BKYq4LUsjn8C8U8Yek6/2UM9WfVqoJBj9b2Pn/qWf0G5+J4XGgNcR2u6IIwnAr3lvcZPH09WQTq6Eg+jMOq5fELzWg7p8SDjOKKnG6UM+X5g2T6q62Yr72G2WFZrKx0lPuFaUPUkJNIVWWTYoyoZOcptwpmjtRpFSiXQNRfLYE1lwXRIxH6Equeeb4HqwusR1sZWw3v8tJegxhFdCBwBBCUMy7NIkKETIeyDwbdjRg4ycZHAzzA8SgbgHuDKpRkWyXvgyQIX80gDoHTB6zufqr8b9nasjWd7Zvy4obIFW6yznnpyx3FE0SlILPG2BAHjUqWFsRSgcdF/yJ+nKuB3//ZGnLkD6/59aBnp44+rQkYP/g4OJKu17//cAKXX1Z9JOWXZfWz3rV/tlwKxfOejyjyf0c4cpg+nWQUku9d5ttZudS3MdnBjj1qAQtt+aA1RmWBoOhnnEs2TfB4LskwH7IgPDas06mFHsRKnC7XFpR/86erKcgHTlXJRC/1Jq9XcHKQD206iXqdp7TzywZbCuPW1qiKSpKyVtaWbBT6qDn7V3lv/p2f2Zj8NUSJFlotFRRWRaMviHH1huVJRRZ7iR83F/H915z6y9Y4fqYfKX/sN0//K9kmhkM7lqqcqEIIqAs8tVypzCnXqx+O3O/XXuFTF6msu41MnfqhfTFXA7/7NIf/c9jyz2cCH1Ls+4g55F60Aa0DUbzgB2XU8X5RnsxU9SkMzSLheRwbnWUVlsLm+xKMyP0i2A+o7Li1JFVDccBkb4iWOjOTb8V0vZjgQFnL1khEhMfm4FYCiB8Gg6XabKObTQx3vrOphdsDypylsOUDPxMAEeOUIwDpsN9eNRqsblYepqKB089gyT6H0QmFG5YMqzaWoP3ScIj1FDSirZUWOqy8mMmwElBAJE99C5TDTSwPk9x4/QE1IsmBWzEpCcKOkb5CWO42dTLHOotIY8eayA8dv+P7/NVUB7/87umwLGXCW5YrYWvcZDhXvCPVWQe39QOl2DLe9Z+wMSfVqTi6OVADJE2xBLijX+JnFMwwBN/SH7Z32sy/2PYqfuXetUC+qRMKdZwjQZGYIiDlp7kZJrrlyrxInhaIOlk8P3KsExcoZR9krQ4Aaom6KKGpLS/VbM3JlUWaKAg1DAFMfe3+GFVhJhmLApv3gQLI+GFR8L+CWVmulpWWR0McLdacxKgEHUWqF8B0yisDgUa9EFg023bWdbtjZCFFFjMrKxMNSaT/vtFovmkHnVJ0fELzR+nylUrk+lyuxB0Q9NJGCuTeVWHpkR0A/vtlJ+aoB7/+HCVYBZ3ANj28yM64YkAKv7exGBOM/IduDvRPFv1D4BsyZ2MTmSgVFEVCiY5zgNSslF/pYZVKWhykNQb/9wMm8Br5lmc2ebXt2SoxKcJ47qMLenrO53w+Jnfgp0zEJmSiSw9TZ6/aCtZ19kitGXn12Qc+XOJ6JiaEXBVFAZJTjYwe4DNENjmNkXnXwb0qwkpQVvQch4njvDi9BNe4eEdi8knk0ULm3LEa02uqHqHeYryiFQiYT0GDGNvSMHQoExSkCRbgoQYwSw5o2u8xVFm/mCJRpvuBIwjh0bJAt0moehZKqbzp//FYBZ1qtODAd8KlkJYPH3/D4eRd9hkKBEZNyLA3D5HVh4Ysu+ZB+m2AVcAbX8PgAwefIsb1e04gJUt/4XFKy8jXHt9EYGYXy4urtn/5gdXV2TkjZMTouzP/AbEGRRCq4scdpvC4/PjKvgdl88fhvP3v5cn+TJIz02Hw9caPI6oWNlzbKn+sbmIK/ERKZitLYRb0tC2VI6fLDJzeXrs/d+5NCTQqSh7t21+zSjAWH38kjq58z6PbX1xo+wTboob6hq6eIk3ERPIJRVNIr5asfV2eqCnwNhGMmW8/smLDUqiIVMpmkNuGs2Vb0wpghOP1KTXw3no+Tbb7s3xSvsOWrpdz8WJ2f19eOGwJH36JmhZjSqPdGgcsLbG7fsWNyVUCK2HUwcJ1us+c2B1GC6Tw2gS/zmpPQS5ymq6qwvYshlrJj8zPyLaex4SSEPyuzOakEotBvffSMvPVw46M69qhsCkkxJKUKLCHIYCrmscBfpl/f5ByKiAQyoyZr9FxJjEolWk48r9E0zMggC6Bg/73b0qCHoyUU/R2v8zPeY6j+OHQtp9VuW44ZEp2d3cb2FgjP6aeP5aFhwIU7Ov2g6KuiKFWVl/kPeB59wE0ff29f4zMJ2j8QOsuatPpHywvijWWhhBJfr49DQ+DFbzJDoP7JlXwtf8IQiAYdb/2Jy/KOxATJURGtozuEtmmsP+yFhMnNS0xZkQj5rVUA3GRl1AG7+ZezC5cwBILujvXkn7peulv7EVOav6nRxWxdPjzIzGBXBFk8NAQ+qcMQWCBIVLM/dWScuZ29di7eCghu7tMb5bnSOYYAaFB5lh8ZAqN6uKTEludVuxN12+Egcq5KshuFrefDfpBy12m5KGT+yIzx8L09MjyI09vY/uUvXrzcfDRI90AAvv0So4HdXGdyebySg1FCajVm6Xurq6t/fr26MlUB7+37vLBheNkRyXFsYUHnytduqAvVIwdUdhnsbrult5IWB1zAIqpALlWwgx03WoPmphXttwJqA+EyuN+Pz6UETud+yw6Ioe1l5vC4kQG/QOwyVteyW2vPUG8wKy85frCiIudrsqLkOIlXBF7R8p7nGY7vh/7xSTu+cU37qhFvNJyEnrnJVlZvVui6dL7WkcBvGlzgGx9vz+nP4D2HXY/yjrDtOeiBxPOdYd/0/UEnDdJhkJjdDuEk+xIzDNobax0npcRSm5LEdii5FkKScei7RqeVBtSeQvjH6HEhR3gKoFdUlDUalV2D8MCT7hudpkvnTp1/unWvv4m6TattdQLRB6/q66+/0ad0VCfac4RBcyColrt8+Sr23+i539LF4+vet/SI6W3PkADt9tnmb3svm3+3Jfqn1hCtfmX+B3+5unplhHXLqhV5RqN5f73dGpyw3sc92Lk0pCgLGB/XT0OfiU8GvE4243zf+Jt9AYyU50qrFfCV10CvjCndMTvtR8+arUY39gYu6mD5z0kjfTI0fMde2/YiSppjviy2+43CfJGwZ7DHtoztxoMBuWZJZG58dqIiGSlIxUr5+mq5UqjA/EY1TsKxjObW4/veRvvk+Se7dezvyNx3tpuuWPH06HI+CHh7UKNsaf5Hcv62c+PAEPjs15kh8P0fyDP1MgyBxCLCvf1+/KttXY4ouFY/6GOqAt7/14chZvvWoLneabYsfyaXZF51xBeyLSvqkllNLUmlxZKoU9jTUAxHxYiPo759pgJwju85wbAdAXanlmRefk0cjoLcYb/p9FpdWxqEzIl4+3lyOSh/5ttpn5pJuGi+AGfZ63NT1AUWy4IQ1Qk/cK1h17LclNZKsqyi2hCKgGXuiOMbIlycwqtiGQAjegJKxWa8/mMFeV/f/Gt8QpCf0ZcUtazrclWOBfpSEZbRLmxGXpCXubgKP/BWxyRJ/tptbXlxniDUuEd4rLw1fNwWiJikTnXna7Tz93jJVAX8foQfi/mw+klBoX54r5qvnmcIEEh6QfEATHU3ipuGZKXa4rXV4lIe22MmM6nbqHn05aPY7zhJENMKJykFKQVb/St7JYspDNv9+z83I0K68icrNel1pkMKTKDpIGgpLt7glcpYvP0iX0BWBNVea5rUwwHtOgQQ/SQFv39JLam3+NlVlGTAFE+ztjUbwwdfeEJO+PHteq2WE3hUA+UxJ8lhg/AlFGOZL9yZy9VuKITmNt21Lwch0ajdYvSZZYkqKiNDYFR/2SZA9C8pWn1h9WOuehXnF48ZDhe9wTSOksBOGYGCT0Xyc3zH3Hz+xgjL0S5s8VbBJ0OkiiROytCHNWbwQuDjRUjVdyOUeyEj4nxr66KmvS+/TVXA7+dNpLQYKTVBya1cW1hcOlFn/kSToAJQgzAxPSZMVaVYqy0ceCUO6tUPmTiKnSiNEiDtGUWl4HcISEzvJNsLeKm3b/f7ux0yYrlZ4HTGjjROMI5Dz7eDOEX08NiPY+cd/wh4HRE7KKfkhUmCsolwgaAsIs2jvJLC+HSc+AmFpAOSDJBsMHQwPTiR4xUp00oUTaF+CRXwERBAPKuVKlxlvp4j9D4gfCwVUMNCmavMnor8Y+sAjALOr6pz2fkX4wiOt3f8Lyim1Dr8Avuj2Hc8p+1AiTElnZVRJv7Q1Xd0DSQSoiZ9kDABid0ThZhP5vDJipFAXpEPoyvN3EAf9DFVAR/06zveeCyWAp9wiWeGCe2j4FjqOVFjNxj6bv0KIdc5WUSI4NUrx+hNktAcdE/Z5Bf5AsjIIJytIZVvyitlnYqBCxyZJIHZGNVi7HVCxotdiuo02+7zFxSwAyyzt7WZWQsHWH09TfUsNpjNpt/tgTn+KsJi2KnV3myt/WLdJlj1T+7qi9XMzh816Mgdi10YOWDpREUsiJPoo5rRv9tGf9tPezUevu0Hvaf3jz3Xbm6bYe8JxfUa48CfN6MDo37LW+u4nOLWklc7799nP1FPUZASOghtlwiHaSAFkWNsDE2D4EsqV8mLMjvudyOyDEGk29tGu9EJUUCRMkc/pylUgDsYDvb7HZTJi/Y52zblLKiYdS6NTCJo+QJtsZEO0NzbT+QsKdgLQ5LChvpyB57BQtWwqMmGeINjAbJ1JsL/rLvh2vH4AiIs+K9SjE0y2N0l6N4scALq8s27s1drZYI87oNAAXg/IWOfEWJCQPVX1AEcHyJnPe7D+27SVYA37La+evhid7j225gXx4cklqk3oANTNyR7nrawOrPoaXAT/d4PGhgglSBNomdlETBfdUJr61naDdjaH6PUODAB35LVmnnRObVWvSbnFoP5zBCwSHJvZ8fyMoS08un3Z2fnVIjnIGk3almG41oxGYfQs5c5XqP0xdRKus87vbMR/mfc61R8AUnfOMjAJbrbaMVOtR6J1Y8kFfP/lB5H86woddyIiVArNIECQi7TGQ/5oL+aZBWAgYscdYqmUfEzOUiGf7t3ieEwupiiYA0Th5VC3+4Wlz2bJEIqMQPf77R26ZwPoA5HYprtNzs+yoryPIkOENgFcDmSTng4qrKi9p00DZqhGvBaXZdqOiUd33uTfJZjp3v0ksTnY6bIkYD0jxqUGQJKVw4tGgDh2sycXnwNECYThwhwz0KxkCvrNBJoRlt65CiJTJGi3SDpZx5BVS8EoVgoJGlA57kQ9Vo9rkLxWTlNnyH6ERlig0EDeE9QF+klKOIYyRaBx8cx6n9CyXmJ8RZRDGRPxq7hUmnXmWMCogD3PV4VtLvnBY2WO4yS4lUmX5D5kLT7TQNvkSnkBXArZHJAFkk0iCPHY1FTWKWobA/1ahdAU5Q0quyMD9nJH+wxuSoAYyEleDE/M/vJnP4Re21RKWrj2+RDQ+AidOCw42w983klKPIcBQfYt7lApC4d7dhd9/EDa62RA2KfJx3Y211XXLeXy1LFh18aEHa2wLNxkRqaZqv1rEuqamfutlRaKOS006scIxfk1U+X6r4WUmFC8iAGOezBRREBOMOQmZdQfMQVAA0qvMY8jqIP/cFXn5lJGt64R0cITCK1yWwPnq6HfX238jOhCB87UoMz1D2WVFliZOlY5u+peQSnnQcGE8vgzZRV4OBECAJmzhlRjFOXjr6IBi13/aFFOr0kckIiOgJxB07Y3jY9N51fYcQqqdDNXsv55QPQHig/+rQ6OzPCEEQ+YQ4SpD5LMwlfQMb0oTtwdGeWYYqKknKIsn7Yk+jDbv3Zr/1y3wJXl3I60OIrN1SSU7Pk0FEI7ujqS6ADzbZT4s047RUULBDQAt+OiwvvSBYkvbJciiXLH+XQjqYq5oMsCPJMVS+W8QGIGpYgkREwqAn9hNjfaSFAl5OWy8XZmibR4ihzEYGtUeYitEWYJn4YkElEg9/vLYYxiV2TRKY044cU5qcghCy2H5l/nQywrg72elAS1GKWupstmWQSpoFpm8lu2Bf8/BLPkEhdSoSIImWGVkHjcyTxs/6FIrYR1jM9wSZ4DSXc4YLH/iFlmFyRq7w5azDgEGsgW0HYg+cTmcJ4xojX0HWtfZMbJmwlJxQLjEyRfd9xml2fUFqGIhZkBQ3L+BdaIcKpyhKlqAw3loSMvo12ASmSKrELGBUs963hoIVsCM+IOELU85WKngO+833nMrxQ/me9k+/Od7RISbM5Nr6hcthCgyLibbvGjDLkQaaRw/abJY520W97mzeen/mxtYr00Z/NXfGjmOdImsZyTYHUi4zilHFTxNDFigZLFlNOEJl4Vt0YSt3PvStUvPLfFHI3yzSoco5nLoJByArOQRwiEvbGTMHTOYJs4BHdTmR5traYCiIhOYzvk2TCSKq2cDWmWW/NDsxdtygxcFLGXJhwxfSNPvbMGg8J10wFj5T5lFVhRkDTfpNjxGvoeN1Nuhby+ieiMiuKIlkPOGeZ/bwfUA2rHg0LqzlG8T2rsesZqaCSTFFm+EyjnXkAHw18pLH14P5//E8PnjW+dEvk3J3v/+zP795S3n8uw7ce92eK4IP8EkvXQRbdcS/w5ftCgfBOLZ/yIV3+Bpc8EyMvY+mrLCNolR1w4wOmjgN2bhCEfIis/9QJ6YhAuqMdep2htdOxnL3grhrncyJfkbNNQ2A7zv4OeLeCOYWnVeZdg9oiL/aapjeIOV2hdY0VYyLATgDEhTISsOD6U/2B7w7MXgFYgQ6hMKzKAAmYwh9zGi446mcWgA/JoBcFlsHxEaOCUEiEiz47/dBiOTzvbf5BDMjf3zU7lsHOk1KJSWPas52EBIeiRPV6Sfqi2W9wgxIIE217dyfteqxyg9NKSIY6ahXMmzBMwsCLMxA2bBWgG0FeZnb2m0MPOIMgtEirt7fTKeWK86Kki68RmW/T0t/RuROsAn5HEn73jxnNf9O27G7HGfSGfaOfcJJUv17UmHlqo9d68uvnO1/uMLYWl2KGTg5nS2jbxtq6Eae+MCdyeUVQFY2tflzQ/fBUvuCFvoCDDiGB/niOoOPGze3Q8tOZ66yUQRAoG4m1mKy0QElVORmssE8GttFpV022vMMU80qRYQ5xCq9wdyeERY52Fp5p9JR8Iqk0x0Jdf8M8Q9/y2s9bvZ5H6SuwQ1yr3UXsNKTApGiRaTsmP9/o5gLhI41KzeHDjZqbyisfS3MFQj5S9mQUgRYhtIJ+hO1SmuGwHMfe3nTtlL77r67cY34q9QGe2tjpO8/XrZkVL/8akXmig+/Dn1MV8K7eAhaDY/jz/v7L9tZ+LyQH8lPJjFJw+BzSXWXg2ca+mdEREdLjJ5jDJxNYxhN7OTIIuwPf8e0EUQGGZHkwEDE0KDxD0wgtJ/QRYifdxO9a3XhjuN3ZcQbsHJ2n64JXoTpDt9K0FE2AHeAbPZipMeXZnGNYAxeu9lHe4ddaUcE2RDrYh/SbPtZHOcf5EW2EMrpUznG6TsOnbo9Em8JGYsAITMzP6nzb7JotlyITqU7kdbDzjTtgT7+JyPO9Zts3HDI/AyJiVgQEEWehL+dlGZ68R9Brmj1rSApenHKZKwAcxRAaeFQSgY1pJnS8iAnDCIFMmuOwZjOB1PWZ/q65A2pBok8XaKmaV6WKQPCv5JTBMZ3Iy3ZfMMrwvxTk54YRBilZvZYvFu8VXob77fZLJ+gOAi/bCx1tIE427334e6oC3tVbOMnw0zY67s5jO6SGzzw2VwKHj3Io7MzLbVl+swmPI72+qYJ07EQjSCpP0qv15Vkw/BSogfVPXzQ39jdi2uBlRq+o+UKlmMspKsdosq6VZ8oS63JEs73f++yzjhFppXv/eoHzmZ2HCf1oq12z+dy9Glx3qZHk3TSsUZZkrVIZfnwAAAboSURBVA2e7O703hFrUKm4cruE5GEvX0d4tCxJ+RG2f7xTvFYsffIjZjtPPP3/4mAvmb+lz/B8lu500RFgEm037WFYqUliPS9JXOqfh2g8+z6+Pew3m6RWVhej3IghIuWSuKhRlJ0jh0TIenSOBYWZRHNMnpypCIbB7nbdwZ7zZMdmdPHaj7WZBS2fkT69mirARYPNMA4JXEQCNEjRmTHwwR6v+vXB9uB9bXjGOV9dZhFsEyQshGOUQbDt4cAXqjVoDSB6L14Iz+oeSVEUeL3Btq8WwL0pe3RgG42h1Xa8VGb16tzVO7Wcw4tNo289NbZbvvW066eOvxPLPNhxeSHHRMOLZh/WO7B4ilq1gPxCUcjW6ldL4FkNyr7Dui9X86DbSNs7xiBoMMMWwuyijPxA+NJBDyqW8oFTgXYDleJsQcwX2RPMwsfuPKp0gETIZg+MA0A2yvmqJGFrkcnsGx2MIEozs3nZzdFiyogkr0qSpMikLECsZVFo8PZe0zJ3enSoqvm50uysnKMHftvd7DuWm7E3JlYn3IuMWNUqfC4PtlPsA1hO09jASJvP+m3mi5EhYPO6rOvgN2bfb0DRVAV8o/E0dnHmtz/G8JMg9yaA5yim+BSYlqwUx+vTM2juKKEfmTOnAQXHDYGZ8E9nlh3/zpEhgPg0zyNrBgFpnkuHHDadnc5XD0MzLFz5dKE8X66UdIUV6Zt/IOyu+48frj1r/XzgDukqW/vRSmmVkVVdJ5V7M+VzWYMA7UkipMF4yCsiGWgpOuP/HWv+UUeOPAIwBGg61FlhuLW3/8sv9trGjqoHhflCZaYwU+Hgyx/5zMFjYAi3QkFa0osVuNwv0H6jSgfA7+x7Cx4hrsj5eo5BEjGJPEiKVfXiqyzDi7MGA3jpnoUwBHoZ2gdqjxfEUm1eLoYxSphkYVSaB2E5GBuQYJGxmMNKowyDI5v6J2l+6aNi+apgycMnm+sv//azrbW9A/cG0NKlykL5o+vC6hyZEwkmluT5RdF5EH/2H16sdf8+lMnK9aV7f3b36rKiHMvLOBLce/TvVAWc9zIwXACbl/LVAgqKyW/W5SO//Qh/Xjrvll/7e6BXzztCj3DA1i3RgqSo+YXVufqsjl0rhjYhLmGDGjYbTr+zZ7EeL+VrpVK9BEZgMcvIz593y6/7PZBWEpGTOiwGVbbT4QWtVtWqNZALQZjZ+skAo1zNS5Rc1tTCa9uaoEAPVKjJAVGUBQAAj/A7BCNKSm0JwduyJgO8iO+TDI1U1xVipbZA69UlidAv0CNAAaqcm2BTAopzkWaR6kchY1lhT2Znv+oyyEpIvVhItFLhKpmbrehSnh+cyAaGUqTkWaVUny1KsyoBaSNdmkUtg1KnmhNaEr3vKqRSqM+V6nO6Kh6Vb3n1jPfsA/Bb3zDM+p516J01B2KByRfaBuJopKDJyHLF0D5jJXxnT/xaNzoo4OkGfQMYYTZXlITDEFTW/tizPaOH2EHfSwJK5NSKogASSIljZsnXeuqZF8HZFoLt2273bDd0gTyAKaTmYPNk9PskEmy9IEitLH2YVgG0GStqApKj2B6ECeHxoAzJmEU4MiZSH0BnY4AkZlotiII4IjE/fSbud/5xxp3fcL6buD0nSLqJhiznskRLNAKTQ8uyG0eGAAlNQuckRSmVJFkajYoPGRo0VQHnD5/pL1MJTIAELlSJE9D/aRenEphwCUxVwIQPgGn3J10CUxUw6SNg2v8Jl8BUBUz4AJh2f9IlMFUBkz4Cpv2fcAlMVcCED4Bp9yddAlMVMOkjYNr/CZfAVAVM+ACYdn/SJTBVAZM+Aqb9n3AJTFXAhA+AafcnXQJTFTDpI2Da/wmXwFQFTPgAmHZ/0iUwVQGTPgKm/Z9wCUxVwIQPgGn3J10CUxUw6SNg2v8Jl8BUBUz4AJh2f9IlMFUBkz4Cpv2fcAlMVcCED4Bp9yddAlMVMOkjYNr/CZfAVAVM+ACYdn/SJTBVAZM+Aqb9n3AJTFXAhA+AafcnXQJTFTDpI2Da/wmXwFQFTPgAmHZ/0iUwVQGTPgKm/Z9wCUxVwIQPgGn3J10CUxUw6SNg2v8Jl8BUBUz4AJh2f9IlMFUBkz4Cpv2fcAlMVcCED4Bp9yddAlMVMOkjYNr/CZfAVAVM+ACYdn/SJTBVAZM+Aqb9n3AJTFXAhA+AafcnXQJTFTDpI2Da/wmXwFQFTPgAmHZ/0iUwVQGTPgKm/Z9wCUxVwIQPgGn3J10CUxUw6SNg2v8Jl8BUBUz4AJh2f9IlMFUBkz4Cpv2fcAlMVcCED4Bp9yddAlMVMOkjYNr/CZfAVAVM+ACYdn/SJTBVAZM+Aqb9n3AJTFXAhA+AafcnXQL/PzOewG4VfssZAAAAAElFTkSuQmCC;" vertex="1" parent="1">
                    <mxGeometry x="-190" y="1020" width="181.68" height="136" as="geometry"/>
                </mxCell>
                <mxCell id="57" value="" style="shape=image;verticalLabelPosition=bottom;labelBackgroundColor=default;verticalAlign=top;aspect=fixed;imageAspect=0;image=data:image/png,iVBORw0KGgoAAAANSUhEUgAAAWQAAAC4CAIAAABb8gGXAAAAAXNSR0IArs4c6QAAAERlWElmTU0AKgAAAAgAAYdpAAQAAAABAAAAGgAAAAAAA6ABAAMAAAABAAEAAKACAAQAAAABAAABZKADAAQAAAABAAAAuAAAAACM7Pr4AABAAElEQVR4Ae29eXMcyZUn6HGfmRl5ZyJxJACCB0gCYLHuUpVUfU1ba6xlvavWbM+YtXo/yH6I/XNt/1iT2ZrWZru105e2V6OjDrVKqlKRxRMgCRJIHAnkfWdk3LEvMgFk4iRIgioQ5VFlRGS4h4f7z91//vz5e+6E67oIXxgBjABG4GkIkE+LgMMxAhgBjICHACYL3A4wAhiBYyGAyeJYMOFIGAGMACYL3AYwAhiBYyGAyeJYMOFIGAGMACYL3AYwAhiBYyGAyeJYMOFIGAGMACYL3AYwAhiBYyGAyeJYMOFIGAGMACYL3AYwAhiBYyGAyeJYMOFIGAGMACYL3AYwAhiBYyFAHyvW4ZFqtVomk4F/IYqiKOl0Gv7diX5YKH7eQwnjgHEY7DUvuz3sdMznu3lRsgCm+NGPfnTr1i34/Nzc3A9/+EP4dycrh4Xi5z2UMA4Yh8Fe87Lbw07HfL6bFyUL4EJgio8//rj3+e9973uD+TgsFD/voYRxwDgAAju95mW3h8G++Rz3WGfxHKDhVzAC30QEXlSygBlXT5IE8OCmNwXdAfKwUPy8BxHGAeMw2GtednvY6ZjPd0O84E5ZIDjBRAv+hc9DUbGC80A0DkMJP4c2Ay0H4/CHweH5OGLnrRcli52E8A1GACNwthHAOouzXb+4dBiBE0MAk8WJQYkTwgicbQQwWZzt+sWlwwicGAKYLE4MSpwQRuBsI4DJ4mzXLy4dRuDEEMBkcWJQ4oQwAmcbAUwWZ7t+cekwAieGACaLE4MSJ4QRONsIYLI42/WLS4cRODEEMFmcGJQ4IYzA2UYAk8XZrl9cOozAiSGAyeLEoMQJYQTONgKYLM52/eLSYQRODAFMFicGJU4II3C2EcBkcbbrF5cOI3BiCGCyODEocUIYgbONACaLs12/uHQYgRNDAJPFiUGJE8IInG0EMFmc7frFpcMInBgCmCxODEqcEEbgbCOAyeJs1y8uHUbgxBDAZHFiUOKEMAJnGwFMFme7fnHpMAInhgAmixODEieEETjbCGCyONv1i0uHETgxBDBZnBiUOCGMwNlGAJPF2a5fXDqMwIkhgMnixKDECWEEzjYCmCzOdv3i0mEETgwBTBYnBiVOCCNwthHAZHG26xeXDiNwYghgsjgxKHFCGIGzjQAmi7Ndv7h0GIETQ4A+sZRwQhiBVwEBW2to9WxTs4sowvC+VIDz8bgXHKvmMEzHgglHOjMIAFMUb//Dw7z6Kfq2kLj0/ZnIRUwWx6tdTBbHwwnHOoUIOCay22q9Vlwr1ppq20WG6+5kk/cpoURaURQ/h7bYoBe/mMnc+vyrRfU3bjJwIfTOqG80LrEIPUNP2PVdp+0G2YAylA4oCvds6ezk9RW5eQaIXpES4Wx+YxCw20hdKszf/vgnn966v7pqu1XUJ4vk1Ny17/7w2uzcTHSbLLrxGxuP5m8Uv7qhZ91Vu53eeH+4iNwoIp6hJ+z6rrlqvxaZnfnu383MzUWfLZ1XraKeAaJXrWg4v6cKAejGttmutwvZhuHWmBgr+V9UX+DorlFVC7nlm9nHC4X6mE/3URyhW/V2Y7XhdAKpt9SqCeIG4ND7ermVuZNfyWxYCUNwRlw95OZXi9X5nHItyIkcdSBertm228VarbZWhNybXhyzBiSVf7KymK0XVUFjTMe1NMvpqKquldRGtR9zIEWCkWgp4lOCQ1EpIDHQ8YiB0FfiFpPFK1FNZyCTNkJau/Bo6eN/fFAwvwr+SWD88gnpC4IIvZZKM9/626vJGTmKiu27mbs/vqfzyRG/4JMQ7bXx7tcr2eUvPlvK1DuX/nj0sjiNHrvC5s2NbPuOPDIbScSlA1EGpugsf7Jw69Z//SRzf6UGcVzHJOxWIDo+MvcXr/3l9GREiMUUMSHT5aK++cni/X7MwQTpwCiX/uDK3NxffmfyqqjwBGIGg1+F+9NAFlCRulbXGquqhShhNMgIDqMWLIto0VGCEb05J3nU7BR5sIuiPxgbiSqKJFKIxSvCp67xOTAi62q5krmzuqLfSkxHhPSfnYd+/uIXj1DcF4xNzb09/a48rD/OO3RuxKy5wUhACkqIoVBXOlgrb67czXRW2kH5+szQUPBdwm5US4+WFpuPzc2h12Ky1NduDGTK0VWzkqlsPl5YAxnEGFY4P88gMihG06Nzb8zOXpmJan7ObXQ4s9h2q3tiev3LNVRLLTRaxqY5YSqj77WHTQJx/U90pR611S6WDYdEwSjDkLxe7BhW3vQTrPii8lf/Qy96dxrIQkeo2FjN3fnxehuJqf98TRnR5aVP2yp6LH+HUka9OSd71OwUoQBCY2PTcx/84MO5OWlCxGTxos3iVX1f11Ax12g15sPxtpC8GhITIuIpZDcqneXPs8srv1OnWvLIn0yk5s6Hkuhd6cmd1xY+KrWW1rPDhJzsazf2lZ8JpnzX3rv8VuIHs7GLcRHCtxWolJ/jWQr5BdLkCY1C+2NatZXO8sfzWfNfSvK+hOFBV+opri59/JuqSRNv/rEvQCVyn+Qq7X9rXCZDYyckfx305Wd89vWThWvrhJ5vVjYebJRVypK1hlirF+8+rrbo3IW2KHXnnFuz0+zyzcVH9zdLwxHTL+5IEF3mXill2Fu/j5ouIi/E0pF+6DMCgqO/JARA2GM4MRxKz4yK5lxwKJCQ/NCPu1dPL9Bom9m26LLSc8/qLV1t5zONRrUWmbRCw7JfDBI6p9Vr2fX53+furjtt5ZySvjA+HJ2IyjzB0a3qdJxc3qiuLCxrnUD4WoxlD245FO9jElPx+KXX3h5+c8y/GyOvE8GCC0khEBn2xzTy8y1fhqCLn3YYa/eb3i/HQHa1VSs8yRRqNh+9pNGkXc48LpS1PJ3mZWQ4p0W58fWTBaF3UHGzpdefnIuaYuBbgbZQLi78tlPSJDLtbM85exiLLjEWG5m6/P3vJGfSIEEojKe8smobneUvHy2VP/rok5XFAvqbP3JELxRPRnqonY5/gRd4KXZ+4jv/JWK4V7YVnL289fQCD5fr/7Q6jJSx557V651mcfNBs6aFo7NcKhmSeNGoU8U7a/OZv/85tYlSs399ce7N8XRM4gmKhvyEUuNvvqvfXF34+e3S/Vow8B1X+YO3HFtD6mZLbT4hUhrtP8ewIaNaWjM7HXL6tbAyFVV8A1OWr7Uuv36ysDVVy600G616OEECME7NrlefVLia65timN6cE8GE17tgGTsgKbGxy69Pv3f5ih/F4IFHFsudsY5E37l5d6m4bK1kZ2PpVJyhFAarLjx8TscFwyPNSGFlPKwgNLo7Tz29QDlbvLuIrKhv36x+d+wDf7k24XSMZrPxuN2qoMhFfzAu+J1qO7uWufPwxr36uhVlUhMXzw3PpJUIIrrKRS8/wfGZZE0YDi5ka5n83d8TqE5MpFORwB79ha01zdxiudK8yWbUZW8a0rsoXmaCSUUJpAI0ZXZa9WanoXIEwbMsRR6r+blmx66ud9rVuhB22LDE6JzRzjXEJuKT4UAqLkqnhSuexRRlG58T/qt3WqWNh/WiLjPXRIbkasX9c85tsjj405QUEsbfGq0RHy4sLbU2O83KSk696heReKzaOjhR/PTVQsA1XLOsl1u5e/5mh4u/FkiETLE1n5l/9H/8P0srqn/0/fNXrl+aHgmAKUR3iOkWj5KQOBGbYr/zA/To9vyXv/vJ3bup2nf/dnJudo/+wqxmm1/du79h/O8fgYKzP8SyySl57rvXrsHKji+m1jZXQI1qS0OU4hNZb3n06ZcFg2V+TW+oZCjNyJB2yejUlqmkRgfHJLmnc3l6Kn+QGMcqz0vNiUtzrpTwhaxpX0jy+X2cr+knI1elgBiLReQQjdinTdm8FWwlrSQ3Loy55kbzptrcrLQ7BudRjGfh1y6uqWDbJyYEhAw1V1Zb7l6ru102eX1bwO1xQ3kBjXRvracGGtx6rVlxUcfxpk6HreB0NTh1WNVf2axWm50d5A9dpd/K+f4ydroWjbBSEJSVrn2hjFij3tqVMgCyHTpoffgy0tyydPDsLNoWoQpDjOyLwlTRbMKTUubu6vzKvcfVSpay2+a937eJekqWoiGwjDyeVYJr6kQz3za0TDNgE/5zMh1FtebC0vr9zbwmObGR6dfGrs/FUjCC7GAKNySsayhiDKVlA5GNjaUHa8WN2v2vVlzEX0ipQ4GoSB1rgdPUUbtTL5bvPaEzTVm54EvHZWnbcINgGEZWBK4WaG1WO+bDL9tEaySgJGDpDtqVAHlgFTkgTwaijKQEZMNGdjDtt9lgLHCs9j9YoJd6//WTBR9IRWe/Lxtuik7QNBtlfIpp/U/DtE3z0FBgOfoYWfTmwzQrykGObWl1veM2VcP0I282CBZ+Kx//ZKVm2WN/nkKotvpvv11+ZO+1uttlk9e3BdweN+ZeQCPdW+u5fffHP7t1e/GGYW3aPbI4eAWH0OuoeCdz69aPfnrz1uLmTt0fukq/lfP9ZVzvWjQmELo+NTvr2Reed6OFu5nbgykn+6GD1ocvI82ezr9rZ7FSI9ZG/zKQvvDtSVKpepYXN3//+Ufz2bsbnWz7PmKEH8/7wqlJaeyDq8e3StDaKL/WCJD3Q1FaCl3xa3y1ufjLjUKVeO2Dd/2zF98CtTcwxYGGVz35Ypr/0Bdcu7Pw8Fc/Lz28nf/2/5Cam/n2pDjUrYP9axy9qtkaThh9yFx4uJL/9aOxEhP9TjwxPS745K2WS/OiEB9RfLmhws3CYuGf56V/m5gOzH33tWteu7oQigrj3x5JuZIbImkmystuyPozH3JINhIRjtf+d5rJy705Rk98uRkA7bFfgv8Rimx9yFteAmHxBK6tNZTlpa9urDXsQtIQFGSqpo1Ie1taAQMbT/ooZAuLi49uZzaKnbqFDC/UW/22WpVG5u46T9yWLyOUeDb5Ymt83iiuzS/fur+QKa5UrA7rom57dQ3dUvOdSq6iarWuleGWpWB2eW1+/sa9lUxRhec7Kz623lQLC9mH7g3B0WtjE2OBKDAjqAEOLaNjE5bRqrSBIFDr959V60UhqeZyy7USEClyac+e0gtd49HtpQibkPtWjC8jTU/M27KzWC8Qj8l3w4GJNwwW9BcnesFqQ1u3qHqr4ycpi40qKXH4+oXg+VDUWLFy7hqdoASQaCipp/3eqiO9uGZalOgfnxlmWPVBjqyhyu6esX+NYyvbvRSy+fzCyvKjlipPiEPjY0ORdIiWtk00PakwmA6n6lfO5yzTAhJvD5hvduViCYYO+L97eaLPxPaPrWen489uSE5Hnp49F95KtWWorapuNFAgKIR2zRhVwl2p1t2V+xeTM9P/4S+vg4rNQYrUc/6x26y6vL64+PH/DSouQn77f/xgPBoXkEhDs9Oa+ZW1W1/kMtmPEFps0c8mX2yNzzc+/skvFrN2c/RbgbcnvzUmxBQPc6tW7Sw/NgXFim7NoHsrAvO/f/T3P6+uW4HR9//m/cnEzoqPVl0tL36ynPnk4x83bo7Xv/d3M9eCg54I+8tIOahTXX689PGnjzP/7xd//8tf+WC1cnYsffndv/rWX4dpAewpM15oVr/14HFak4P7rBhfRpqDdQusyfXWR/zpmYl7v/zicfWfVkZtZfSvwMbxfH8acqzRlZdQfMjP5acr/15uC48ejasXL77xV8mhAE+lora22rn/D09q1rzvL4T4RZAXtshiq46KH/+kpTHy9N+eT4y9fv6/DJ/XSSM8zCoi0AoC0fCIq5tCfunhJ/+ynqkL0x+cT127eLBmZDr0oe/Kta7Dm81JXbWoNw05Iu3TFnQWyKK7Q8Hj/MqThWVho+MPzSiDM0bQUyBUdQjOcH2Mf3JkdmJuIrhjbGs3c3puvpjNLJXsFj86fvn6xdcnul3UI4vq4y+XS7//3cPi7+5nN/XEM3ko2jAfys3nVubnM811ayg1NXPuzetvToppxZsFW7V8Z0yuGSgXlSjGYglDq23m795Yu7ex0hgxh6Zgie+t6+PdnHhtpp2/W5Tm6fril5/eyzXQ2uZocirm49xdM3CKRUxIikyk5ybnxn1gItRKyaPtW257/rPfqcskGvK9MxKdunxt8lov9LEX+ruHrbtPCm0inx/zTez3v3wZaW51ApDfGEaSYH1EFOmQ81hF4q+tSSt66cobM+9ejoOE2ddEbr1y6B+C4Vxf3O9H00Mos6Hdyat6kn777SRoKaCJNzP1ev5esWA9Cb4ps+YbXXcRL60tGWpz+Wa1zceitUuRq0PJy0O+bcETokDrOfICicmy9Fa1mK/WSQl0JjV38RYqdhf197/Iin4pOhIIKn3pZn+k0/rkLJCFVt8s3v7X+c+e/Px2qBO62J8xQj1uX36/NHR58sLlibgfrHH6ehAdrGEWb5aqdWv2QzlxNT0agv7Zndl6ehDZHx+/PJNt5u1fqJVG7pk8FHspbxQ3Ns+9S4avvHNt8rXJ7kjVzRIlKcL4DO0gmQsQrCFSxUol8/izx+UN8tJbbyrX3r4+GdvOifcCH4hEZz+40BDf+eyzomMb5W/li2gkBjZAvRJ6FiihkHLpjasX35wcCm/ZEfTyv1JE0nwhzI698+bV9/aFHl66l5FmL7cv4V+CJZiwf1hM/dlbzOP6bzc7rdXNylWf5opQ3S/xongkJsXI6uh4NX/r0Zf/Ol/8V3Zn8rj/u8ro5fEP/np2bq4v3eyPdFqfvFpkASxfb9c6K/e/NKhSY9soqyuiZ5eLpBO7EB2/em54e8a4JUDC+BQUhGgqFR9OBf3CjgOPp5UwOs3qxkohW8lTF92ab/Fewcj29d+EWnCLlSd5rbLWIK1mQ7Parh0CT5ZG/cjVDUGknF7KjbpBDp33T85NjEZ7MkWvJcBISCtxQB8WJJBTAxu+Tr21lmEaHWX4wuTYNTAyBJOzfquh+IDEX46PVS6N/0qolZqddqFq6jCj8d6HC8oY6JYxNtIvI83wUjAaB8MUlhMlYWQ8PTSZDirgLuG9shUq+02nYqpbpSNCXlDvOtE0X2qPhfwSlEsKnOKLXb1Qd7PhR/W2td5qDFesUGSLT7eL9Vx/D7ezEJig4lq+8GQwVeR++5tKuUWYo4oY4Lj+mORNk7WuL6xaF/lpddRE1sBI9lw5+hpeerXIwptFF9Y25/9+3vxZ3yyX4IMoOJEau/idb89eudBV/g2upSNvhKRpcBTa8UHsAd3XdOQeLS5m/6+1jnhP3lZ99aJYOjJgITO4vHltEpYOvAsIq9RYPXp1Y3hC7PR0KG6HGp8Ih4ZiMn/47NQ2kdo0WlRFv9Kmw+mwEvfcYYDLBnsYvB7l/cnEdKBZInKEUWmppnWwo2QvowP/QreP0HQYNDmSiOiTsT55GWkOZPn5bjkeRRN+uTldXqi5hlaZyalIFneGh+dL1HvrcDuLc/Lcn19NB//8wutX3KGFh/VE1H/5b2fGZqAOdyaJKng/Fbu+sCqbiKfCYwlR2DZ1f/48/cHffLXI4mB4KM7HxS6lLsxdf2vy6th+519vhCTJAKx2sywaMKvz9PO2beiqbekuS9Mix1AkdNGBi+YQDe7HyWtD6anZ+LDCSzuC/0CsfbfePLaXMrJoRRTDksgegbTjuIZh66RqRUw+Joi8z2vfg0wBX4DxUaQ4SY7xPLJMwuropuUcc3iCb1MkITEMzdHbE5d9mX7GBy8jzWfMwr7oLthwizLHsmGwlTFIQzVhAwpYqh4Q0fa986IPoJpoRgwq6UthJzCVehRCgdS5K+mZqWkfHWW8SrS1Ta3+1VKrmRu/2KLiE8nQWJCRXmaeXrRMh7x/RBM+5I2v8/HBviGDBkuD+ojj5zSYnLr+3n+ihy7NRlDsgNF6wHgJ0SyK+kdfv/qfh0f/ovmtA42sPK0HcbQS/fh5wzFPAwJH21mAcXhKVhqN2uj4Y6vOrmzOGsvDIxNCNOhRglYvFW9/upwp3Ru+Rscuv5MIDGqjTkPpjpmHV4ssPBlhv2/IMYu6LxqI4wxFwXSeEoIBYeh86NKbr53jzoWeOscV6YDIXx2K7Utx+wGspNC9lFHHrakq2VYNC+YRh6RMkgS4EnCOCKa+jttRtaaKTM5F9KBw4VmC2nq7VdC0EsEotMAx9ICYtP1p/HcPAiB82Y5j6ZplGw5Hsc+H26F2Fltfgxrn7XBo/LLYyXRyy2ubKJzzj4V4XrIb9Wz29peVe2Wkj6XCF8cjEXFQG7Unu6f558nMX09zCQ/PG3TdLbtPQnCWS+XFjUJLOxGB4BlTBpNi0cfKdoi7J1m3q+UarHRoXcuwgcxDxopaYzM3Xy8/MiWXDckiQx/CPgOvfeNvgSz0nv5IayAfz78c3Lwa7/mwpsfPCQuLrU++yKxWMrWGunl3c3Hlp58nvli6Mjk2/v5MNKKADf4reb1aksXJQuzNNllODkUTfGWjtLZQ1rnM6OtDge7eXD1guvZ5uuHUNB6RrCKR3LH83rspC77g0Ji/lXWyj6o6u5S4pohDO6vr4Mtgt2umgzRv6RQW24JCQB5Jm52N8vrDJy0xmngtJg71d/0Cqw2tfr+wsfy4JpftZDLgSwUZ2LHpbFwkSdGsQBO803BMxtRNB6hxa53neCW0Ow1zY774gC7WNsoLxQwnEMFYyscFaYO1qm0wf91Qmh3JL0ixIOOZvj7fZWlEu1DbyA147kAdbO/SJoWksdlUiR4Tb6zU5h/clgoFIdN+UloziuQIBz6vI8nphODfq416vqx8DW99k8nCg5sT5MjQBWWtaSx8WlzO3pxMyaFU3+Owa59Xq1p3cwnEBq+OC/FjkUU3ZVmJTb02VHWTn3y2/iDz26C/ySg7q+vAFJ3lO55RVmKGUsITYlQOpc+9e6785cYvPv/CXOsogQ9pxTPK6n2wN+998ihzS7rgRK7MjITPxZAMjR5mJ6/+RTHg2BNiiI6xbsL+cnXYIhch37OUy6ysN7/8sryY+x14ozdjKPLe9MwV0A6Ms5qobxZL6uryuRoZvCD5DlppOu6XCDAQLq1kFp8MeO70fXyuzQ6Nc+nQaOetDx+Qt+Z/+qv7yyVStJXY8KWDfV6P+9nTEu+bThaeZ0piOplqXo5kF+vZpXs3bK1V2VFzgjehWlNdqSCAzZ1rDew0/9QKBMsIMTGdGGlPpzLEer68cOuu1mJWxUzQw9xpt/T8hisHCZ8ZUmgb0bKSjF+9PqyKQyv59cKdhZtcp7m6umNLUl+vr9azWpA/NxMauzKSDIIPrWdudCbIAnaapEPD/mBnhNncqKnLt2H9YiwhRRPPvBe2N86zSkS+ci45O56IiD67pBcelUu5TSKiyyN+v5yQXP54Y3vv7LLS8u2lh6t3VtrFpo/1R+8LhNBRG/oBuLvg+86wnM8XS5rSw9WNx8u3HkK00XNEdCQkRsbAwoXaZXH71DZ0yiJ808nChVlAdCY9w/3PCH1+68E/ffXPX/1M/RXn8l3loutECPvC6PTse/+JGRoXBelZdARbeyWQsFdC7Mb9Tz756PFv/vGuSBrdlCkxzkZnpmaG//QK3duzgJI878PzKPY36JMv7z/66KOFX/8jWHZuSRa0kmAnZiemLv/RpXPTY8lj++OesuZ2SHZcTiKiU5Gxxvvnf3fj3mPPk+Xn4/6xD+aO7XXKhIZ9r7+fnPVf+ROLJMQdzwu96lnobhSrm+feYxLJQIDbtZ/FIfnpPe6dXfbVF7/+l9+s3Mh0Ns17bOrij9Efz154509+8K2k1NP3DUxDura/Bth+NwrN5iYYgXetclY7+tJqrngG9lh5RciC5Ag2KMZSE9esEFJSUQn0yU/d5wId4y2C4pAYC6TQLKvDzhoL+Zsq7BS8PfIQ3n4HcKREMB4W40Gw7IWh/NjX1l4J6bTsgL6jsNrUVRU8Do2ueAIWnKQSF0LxkMj39uwgSNiVQ4qOIxkVSE5fbmZgCWXnY6Tg4+OX4pMzcxcjFwc3rT+6jDSP5HgwRcy9jtpirGsn4lI7pTgs9GWkiby1p94enMMK4Q5HAkFG3K5CwjOajgeHRq5dHyboWjujb8Ba0E7hj3FDCX5maDp6cXQE5i/dWuruDFLZ2Fy/fSd/v+haw0HYaTfg519obKdg75VYYPj8NTj0cKAWtnYhKWYXNqub64v1Al8Wrk7NmHJKh0MD2ABBZRfWf8t8sTlUG4++umeXEe7AiW/HqJSvKcqWK3F3ixc4HcBji77y79A8Hfutw7ac6WrZDtoe5tBP7gvYysPeI/YGbUMGj5w54EibbpKHbsNzZBm3y6WvbCKT4vY000NDX0aaB2x+499R924fAuRtjVNrNIttW3WFpx/Jo+fdxr2FT9b+6//quYG987+8f+n9PlkgtQA7g9z43d3/7ce3V53wpb/+/utvz74/xI3KA+LhkSlsT0NuLd38xZcr7Z82p5nk5b/5YPbdi8m9mxV0v3WruwvJvaILMuB4Ov3OKPjHezuqbCwuf/lJZmVDbIlvwA48O2eXvRBt7Wtof4AHz0Tff4D8HPKJ3igdUca2N704JN7ux8d+qydfwJZJytDuFF78Vz8P6bFjpNbb3SCioEj6GLEhSj/9A+JvlwsdWK5DQ19Gmp4409+Dc19ed4Wm9wU/4wPQFOh6LVu7e3NjYb3sJInI1PnhxKW4t851/Ku30wqDXF/7kSG0vihfpuOXrqRBQOnZ7XlfgZ3DwUuo4Z0/sHG/u1eII4S4+KXExbnrIH2EwJB/NBMMGmstt9nKdIr1jUdf3VAbWmoomEx5O3e+Sme4vyJkcfwaxjExAt4WFMV64fG9//7F+gY6d/0Hyuwbe7x4TwIk7ys9L6F7TxoPwpfdEW+vkJHh6M6WeQgc/GGPz+5OFnO5nFpYn88s//xnv/zlL8Kh1777xtyL7MB2EiV4xjQwWTwjYDj66UFgS7dijb/m0xglqoCadEAjA9ooKa4Mi9euwy4V4+nILi/erUIcnUI3EsmJTCgdMtSrYpQM9c86GYQBdC6uJ5aen72+zzsJ9vj0JOL0mDdVEcRb7fvZ9VoL0budkAZTO7X3r4jO4tTihzP2NSKwpVvpbYrH+kfBFaC71aC3nrw1QdAt2o2P8YG9W/tv5frQFPql2joASbP3HSbY/0qj7cBG/kzgqEOPtzVE3lbMDZPaWa/xDewV3v/qqbzDZHEqqwVnCiNw+hD4JvuGnL7awDnCCJxiBDBZnOLKwVnDCJwmBDBZnKbawHnBCJxiBDBZnOLKwVnDCJwmBDBZnKbawHnBCJxiBDBZnOLKwVnDCJwmBDBZnKbawHnBCJxiBDBZnOLKwVnDCJwmBDBZnKbawHnBCJxiBDBZnOLKwVnDCJwmBDBZnKbawHnBCJxiBDBZnOLKwVnDCJwmBDBZnKbawHnBCJxiBDBZnOLKwVnDCJwmBDBZnKbawHnBCJxiBDBZnOLKwVnDCJwmBDBZnKbawHnBCJxiBDBZnOLKwVnDCJwmBDBZnKbawHnBCJxiBM7e7t7dMyNarWa+0m5rbRf1T/V69mogEBxIw3GS5I+EZJkVKBtZdqdju4jkBY5hKDjugrA0V6uppluz/YjmQhIpMIMUDLs422ZHb1ebFiKYYIAReDjPeBt3ByHThrPUTUiJ5BmKIuHmoKu7tezTznP3vmUZmtFsdnRDd0jI6IEXxXAMnKHB8SKD6MHMHhgbP8QIdBHYbrRnBw7vNIdm/vHCz7588mRzhUB195Dud6wiCwQRio5NXv7gjcnJ6DDfQp3O+pruIDY2HPH7Be/8Pa1m5W4Va/YN4xIpx98c5VLKYP8D8tLa1Xzmy0dtOP349RlF8I7b3MbdRKilmXapAQ+4iJ+TuO2QPdk71nnu3reMZi7/aLFQqJRMum0dXHY+EA2kL0VjsWGZfKZzd/ZkCv/8RiFwSNP8RmHQL6zX2TqqUS/CkEz5IhInCQNn3UFoW2/XCyttE4lCyC/4vVDaO5jPMtVWfW3Nlq1qaCjglwWQSbb6qSc7QGh1JddAjDWtMS4Rgi8O9GLXVI1GS9WpTjMkS1LQzzKEbbTrOlw70oFRRs2H2bJ1d6ODmIZMiEYLjuTdukiKJVmZ40mZh89BPlVNrefXnbbDyFEZ5AdgL9LWkV5XDadoypwtT0Yb/hZZbJt1Al454NpOk5N5kj1E/Bjc3r7a7OxJ5bAjGndHg9xubdtfrzUrLuo4fXGIFf1SdCQAJ9iLlMT2Kbj33V5ZXIbbE7o7/d6v7lcA5qJlb9UsC01/oBIOegk/243A2SMLOKAu6osLl/5DavSZpyFwJHIxv1K98zFMGcSpb0/ExiOiy0EH9qYhvCVQWrPdKj+pGchMTlkwbEO7JngfnbggNtajG4/bVK5+ji/E5BiN5IGW6FrIaUNkAlm74UfQ4WXCqjON+Waxc6c1IQSGrl8IKXSr8mS+BNe2dABxkLqab1oL5RJiAkyDX/X3644Wg2xkMhaLnEswfp8SP5/SXGZlqQVH36SnJuJjQSAvRi24hburVTPbTFtSMMo25VZ+abVWre/t5L0sbqcZPZcQQnK/ow4WgNDrcJ5opnvG563FzcEguKcDo1z6gytPOQm9f67XrduLNwxrc2DupIxeHv/gr2fn5r49KQ6SRe+7xYr5aeucI8b2hO7JRvdn9yvF6u1uzZ779kRCZHnA5KCo+NlhCPQb3GExXrXnMNiLnAz/x57pXNRuMRsIra8whcKtiun6J89dHrsckxECFcN2qGUZulrtmC5jGtuNmuYJOSn61SHpflHV8sW67lflMGRhQCjxxIvu6b97R3HohBzlKUBYgTVI5Lgw8j3/UdXATwzNCnTYLyoaYVuUKyuhRGK0W4qGiyymZbm2FbRYReRrvNpqr+UqFY2OBRiRB5btUQLRlUE0y6yxw66MhvcS3BYc3h9LQ6283sjnG1qhjfycy9N9joR0CLVQ21i6fcPoVJOjI9FoYOA4660DfgrFtdXsvZWNUtvjYAde70sWtt5Q8w/yK/R9alRLhvong3a/W99of/WIs/xoKpSMKcyAJmggh93briSSrxcL9x+rOhMKtc0wgZ7l2NO9CX4zf589svjD1yOQAi8r8sRVxSloCxv1rFEanYnExOOeks0IocDwm0xYC6oUSQmRoMDSAnNxVtH1kV3TEBmmIebGKGLCr18QU5H+uDg4ZThW+RmGEEOMYfC1zYAt+85PK2OJqOuK3Z4OPRxkkJKO7nG8Sgo2cbBYsfOhYDJ9/bsfjDu+2QiK9c4M7oaRZotu555kMv/9vz34TWD4wx98eG1OmhDR1nyiq4UpzD/5+CeL+ToKvfm9q98Lv8c7gwd0Wc0NdePzzfXHP6/+0Vej09+Ho4YHglulVubXj9t+PXPVlxqXBjRBO1nbuiH0DipuNgrFBZ3VaHStT2h7Y+LfRyBwlsnCtQ1Hb+m61tRcw9o7pndnrBTFcZzs43hmQMtwBFwHBkHTg/PBfcHxoSDX4DIO0lXCgUnycS+K4SlmiJUtn6m7rkkTmmnaquno9lN66c4HXNd1HNtxHORuvUIgk3Sahq6XClnKr8suYtsbKF8q1kjdMBlQsLIiTTdkZNsUIwXDgeRwkkT+7ttuzTFVEmZOPE8ijiYGJKSdLw7e8HIwOTWX8I28PYJG/QMh3umed0TXvHmrst4qreRqwbwaT3KKp0KxQY/TyuSKmXK9TTqBRPDqtYmZNFCJ0udA1M4vFG8/oVZyD6sPaiSRHZ4DpQ5oZPnuR0jX4txG26iXqlq+avskSvQUznsukFNsQ9Pbeb1eMQie4QIEnBKPr+dA4CyTBTCFWVwsFQqP80apta/3QicgeDEci16YjMZCe7QMzwqly0pEeFwhmzPIQRSlCM+aACIIClY0kWm4Wq5eKM0vVQtVbSeVo3UWJB+glJFYLHZh2L8lcLgdylpvlzsLd1tLOb+PIBitSJQflFCwoWjhCBAARzOMHNAtYCbb1jVk8bAi7HU2y3LaDQOe8AGXkRD9vG3EhX4ZnUm/FvqhP/Co6N7X1ZUnpau+CPLBjEFrV5pLX9YrNSH9H69I6eGx4WhURINTN8gJH0hFZ79/MXAH3fm0YhQ3i8OukJiJbpFFMEpce5/fsJlOU99YVlPjAmL30wDUu6Zq9vKGWK/LV+K0mCLDPQlqB1x8czwEnrchHC/1rzeWa2hmNa9WCuW2WDNpmdplU2BDE2rkDLONhpK0EgqR0FWeP78EnNktRCUkpx3QktLigLTsJQrmEzxLuixLkTD4eT3StV1Hg+WORlPXDWjQ2zIO/N1W0nvn0LpghIFcj9dYilV4yY4j1iYgCVc3QT8Bh4aDjqOjd9ymFXQoXxo63LEuyALDsJQ/aBu6XbKddse1GaJn/mEZqNV0NZMUWJd/AbLwMPHOFmfnFCSvVIs3WlYl1zHltoM4u6p1WoUG16GDqcuTiakETCL2Z53i/RLvTzoGVfx8rd552NZzVWsqQHnmL97cjx06F7JbEl2uaiTViiXV4F7NhWtrhJ6HteuiJbYpFGH1IE8MLnEdCy0cqYvAmSYLy7abKnIZYewi6Dth4FHYvvJMza8U7/waJHXTUFUTWQdIsM/URjzNBcsy4TDM2gmW3daK9tKAdTrFRyNGYmCo9po6MAUyS81Scf5RvlDW+jJOxB/jhwLJyLTP0DTDssCmA9k0B0M+4+qObamWpVmUafEsxQREgifbyNzI16w7WRhAQUbYLiAh2PSwFGYnr16Mn4t0pyFZtGkt1ch1oyfFI+hYgRDR7hAdi7RVZG6rGyyLVFuM5nr8Jom7GPaZENmKTElInAiI2UvkfdVRdXe4ZKNoe9NE7VZqxKaDiuAHptiN167vcLISm3qtU7SXmjxqdZAl9MiCpEXGPyp0WDG3xmq12lWJR+IezQWht1Fx0WmqanBURYpY2kCg6AVlM76eHYEzTRYwizdM5NK0PwxGVHE/ig00yYbdtGkNprM1TxCHycMLXjBW0xRFC3snIJCw4YLdBM1ZiGMJCnpqd1zsf86Fwb1T75BuWR2mLTrE+2SOgAUMx9JssA3V1FpH1xFHCEl4nqKrHd1dqQYQKUQijMLVkNZwyY5Y4RHNEp4y0ptwuYhxSB/L+yOx1PDI9mqIE2kSBldleoWlOFoIC1ydUA1XbzlWEN6FEB1+VQwJTMjCFB1iXHZb0unn+JnuQENAgiVaY5jXq66u22alQ/vaDcex3PgoycdEgd0vUwx+geJFMTEmuTpddp1WC1l0byWDoFhEhgXBjfMtidLrGvAP4eNccWBFxtZ0LVdSwTrNL9AET5RKrgbi2jalDn4G3z8NgbNMFk8r+x8mHBYeW6ajtnTCAuHAIWgwt4BpBMm7TMQX8U1zqbH4Rmf5fotQK441KOMQjkGYZTWfWVxcLpoSOfxWPOy7LGctzVndgGkEFZNJBTq+rjHI9QcCiA0znkRz3HGTZBhOCZIOMBVym7plwWKiZ48Ay6E5FLSROObyR4/5x0eQpl2/n4CpU8FEdtNVG0DkrhThSEmg+T3kuS9VikGiD1awHbWNOgyyYDnbuxxE2wQnBIjxaRoUKws60opoJLY1merF0TQ3t4GqJpLjFMHSxsBo0YuA/z0+Apgsjo/Vc8V0LOgcMHVQKd4iZNAzggrO6xwERVASL8L/4L1itApEwTArjtOTcWxTN9S60Wnoml4DgwmwOnRh5uLYtuEaDaPjNmCBhzVhMuIZjtM+XiASYT9iu24n3Ww+ZTWkFwecW/xBqqO52TYyqrYeti2dNPKW3mpx4OcS5OinjPnHR4QkEcu6IGNAAW3dMXVP/GFkipZpoIKnXPAyybogoYCcCHQGcGxdnuaFFtlgMExaJqqDHrOq+yRT7Fpndu04NE0taHILUQGBkRy39DRe2k4Z/z0AAUwWB4Byko9sE6lNB/QPUtRhQyQM/T0F55HfAKaoZObLLa1CJknufPrqpMAzFhPgiabPJjoDZkuoqxGQWDftByZC0o6l0VNWQ7qfpznkU8hKTa4WbQKWagVYamWLm0TDRMGEK0Zcz1DrtF8uJ7nRKapVlZaLVl01hyeARz3rzK4dh2a082LKYuQxTmAMtUnA8jK+nhMBTBbPCdwxX3NBH1KvOh0b+UZJ0Ucf5mVxYHJgOmGbLk1ZTIgRBVDj806basJDYCBvmdMzd+xqBEBcCR6YwtEPSRaxEZ4xou5aB5xR9KFi3RI3W1rb4fwsFZSoPWs6R6d2ZCj0UQMmVWD6SsEyDALnF/CgbbZMkjRNWC8d8Ps4IBl42TYIkBRgkkVwsHC0Kw5ogaQY77oxKte22nV1CNg0AdoMTdNy+XbNspULtC8siQ5j2eCwM+B6sisZ/OOpCGCyeCpELxTBMXSjUrLbrhggyYBEc7sb+iFps2IglJ4WGmWltFlqN54sJbP+yNVxWeII0FA48B+YhJOkt4Z62HWM1RAwtQA/GpFtj4UeVHWtrHUqHaSs2KBTCcUpMQJmpC+wmLw7Y+BI02i4qos4BkmiLdY7qmatVZtIDVz1g33FkR/qSmfI0Ekx6LAwP9rTaAFSQeSp8SE13yYXm1apgGTQtbTMwmKjYbqhC4yUFARJs8CaH18vgMAe3F8gpVP5qoNgetyplwquQW7ISB8Qq9ub+VxFbRC8+WK6ccfSrU4DNrloaCzMMkJBXugNyC5YQOh6q1lcrVY7FDtGCAoN6xVH4+RZnbZboKoDpQT4v5qtilrV8w2Hamgh1mdzZZTPbVadcivialRug2W1Lvu4lOtyDBijKjwPqyLHWw3pKk9EeCka5cxyc3V9uaExviooPf0hkQ/7yMPc5Y8uwp7QLQ/RdjVrSSrNxwEiweVl3q2rFhSsWdVHGM9kpGtRu+fd3k9Y0dBzxU7FIqVhxieDD+zuaAApzfIcG+eaZbsBfnF61eQtvdPKNzmVZIM+IRykeUS2dr+Gfz0rAntwf9bXT3V8Fyaojtmslddyd2vEUksk/AO6tE55s/y4hAKxoOaGX6AcwBTq+oPsZutuHrpz5K3r8VSyq653dWRWWpXCo4eNkiXSwxaMoCCEH32B1anRWCzVulan9Y6jN2ElUzM11NxcaNLLToWoLIDL1qqFXD73VRVlJY99wKvDsiJKLDo1G0/GEczYj3/RvCAlknSrXfvyN9mWyKSuDYcmR0QfmLSCCfyLXz0P0Va19YCNWWJslJajrMnGEky9EgT7EJqwrvo1VzzCB1RvdQqLKzXV4UavCvHu6smOinM7fy4nENGka7TdJ3XkNNyAqpEItBU2E/S+eKQdx3Ya+O9TEDjLZHF00WlOEuNpNhSL+kTwR3jakL8rMRecQ62WWiPa5YZRrTQa5WIDtU0bqGBHfwYLIHoxU8mt5VSnbCIpVxL9+TYT8DG8Zw5xnH4Iu1SIYUFEXdMNSNiyqlq70GlqNB/uLiXAMuygsnM7jwSYfTrgG2LYVrPVBEd3qwGLltUVY3X9ScEo1mUUsFaDST8KKn5wi2EYRSFZyigvNRqyO/R2gI+wDH+IV/r2N47x1zXbdrtYL2Q3VrKrbbbjCwUiCZnnRRpsaeOS7I5Ka8WavnhXrKjWxFggGuRgZXOwRdpaQ6tnS+tLy2WnSQfAiScSpAWItM+rvmstGuf4csipaI1GdUO1JaUpJThfnGc50UPpINuK7opJp1Gv5kr1jt2BtRk5EI6EfDIvUARYtOJrEIHBqhl8fhbuCZckScanhEdCV4f9iYsyCg9MQxwLFjQ74I7BhhPgILrHK+Ho8ju2ZnTyxZXM5m8flht2a3RcSAxPnIuOhPyhbbcQvVEvzd8trK11QnKjLeRvLbaKncCHVzgpEaRg8D+4JZKczPqm/JERbniP8xtYQLRqT+TlbJVi2ciVmcBEekoiQly3DwxMQwSnRYENpq6BO4mmOpsbbtWkjXK9tZkpL91aLbYWtCVKOS83r7cuT81ejg2HwP6AoViCYTsMTZnkvlH7aCwODwWm6Cx/svg4/8+P/C0p8s57/iuTYkgCRgUNRTTg12YvLd+4XfjJf6vbkdT3/m7mWjC6x/4SmKJ4+x+WN+tfOW/QgUvv+cPgaXZITXn6F5kxzvuX8lDUFbft55wRGnY26dpxHGJ70l0xqTy688X/99mDNXXVf06auvrO+29dmkgNgx3MgHHX4aX8BoWcZbIgOZ4LDSkymkiMUko8vduj8ahK9jrgvoGoq5N3OzWrtVJv2ctLbfAda9c1A6wnpIg/mhgdUVI+WBm1HaNuNMuVzdWlklG0/VJqdEinG48LVH1zdSXm0vxUXA7Le3dqIhzYyarWafB5RNiC6A+LIXBVh5l8V/dhdkB5UWhaqoaEjsvSbdj4UzfBpMovKyJoIru7gcIeO+AnotaqlXqxqtoCImElxXF0HezeD7RaBGnFMHVdLbZUlZSSo1Ef61BVqb1ebaYKgt/z7zxGh9Fa1c3NWxXnCZNBS9s244AgYdSoZinbpNpMRFQSY1E5rcDmHxACfCHyUpAfjyTBMOIrtVjKrH2lkw1ZcMAWo3+56oZZqDVcHxkeCyTHwl0ZsB+8666bJi/FE7Su04/XUYtgUyIX70kiu2L2f9haR9/MNjaytVanDob/WkVtFpc3a4KkhOK8Xz7LvaOPwrHvzjIclKQI4zO0g2Rwf2QPG5H2QeXC6hqYFwJZ7OaLrk7eri1rhV9ns/oTakY5d+nS9JsXhpKhWCAEnVYA9aVNIE1vrtYefr66qd5BE24y+eb5UJJumjFzNad+Mb+6UXTF99OStHenJsdsudXFaqFYzJKhQOjiW+mhVDdOV/eh5hbXb/4WLDkf2XKuY9sf/7s4v7j8+mvnLozPAknRIBkArXSQudmobN5fyG7ktA5sNSMrgXg8GPHJEwTbTrtpFqYhbv0iCqQ/uJq8MiIqftMoF1burJabSLn6J7JjkJknbr6c8X27SUhXosdaPK1uZm789Je3l6q/2r35TSA5Pnr9w/Gp6T+9Eh4Fh7KoBEyx0+C2fVKjP/SvPLn/4NFHH/30/9zcdFFzYO+f2MjklW/98dT07FvJRDIswvZ5+2pr1wMwcxPGh3iSI8uOSIbGBW7sUEnEe1FvacXFQrPFhz/4/ls8EyQ2Gzpzu9JYXCyflyIIk8UudPt1t/vxmfhFMBytxKF17nXX6JXOs63sqO1WtQQbYGqGCz4VbTB2Lm/qTY7lJZkC6bxrmr0FhkO4hgPaBjYoC4ZIwl6ZSiwxMTE6mojBSj9s/G2req1Rr5Tq+bV6vlG1RTI86o+nh4bENHhwiDWKzT+pNGrlbGYZVIfkCAy3orcKAJaZht7WWo0WqbQcnrR5WEfxNBRmqw12nODGXcpVs+uFnFZzJXF4OKpR5kaOsOtWYTnHdIhmuBgJDYW8CZAIhp5g00n5OL8sykEYICNKWAn4/H5eNMDLdA0JRrR6zvUNjQ1xUUGvbxaK66VSnbLEeGTsssS0SWOjXqmv5B+XbHuDTCDk83Mkf8genAgWGeQ454/H/dnutje75lYEI9LKaCh1DmYf6cFtKrqADvik2gpTbj5h8xsEvdsKguJ9fPxSZHh6MrprW53ed4F64ghcQdCOvTjB8FDjsibFh0FoEhM+2DujV3sw8WEYXgzGQxZBSzzbq1lYyGqXW6ZBC2OX/Al5ynBym80bBb0MDm+eBx++diGwQ/S7nn4jftgdR81WlpY+/+zuk9VCzQEPI/Dj0EAc5+LvTEwmoaHuGgkROLFzTORc8L3JS7Y4OhaPJcLBoOLjobESwDuQWjWTmf/do1zTtccuiMNjbyaS8ZA3HrqUnwhPxx3/n9rzT7L5m7fR2kbng/cm+BEwyoTdfjutWr5cbRa4aTcyemEiOBYSwiESqRvlzHxmYfnunXLdFgLn5+KXRt6JKX4eOZ2aVt6orzzIzM//qu2no+PvvvXm5YnEsJT0h0PTV03DAtJgaDAYZTmWAdcJkja8AmxdLpiYt0F1ePffV8otxE1MBMeTSUVROJGYe0Naedy+c6NaXHyEvlO1Jy/H+MPIYks6eGP074bf379h7/Z2u0dKBF0L1Nh06EPflWtN1Tu6YUCy4H2wK2BaUWDDvu2cd//2vhsIuldQANz3B0I9zUVAUWZnIR4VULb8a7sTH14KRMZnJeB/PiBuu+PvShb/OBqBbzBZHAAMSLmSAJvZpqOJNEyQd22lAvsruawihH1DV0IkLXe3sfXQc82O06rUm+VStZzP1ipNxyYDTDgdSo6Nx/iY1EPY2+1CjriyW3ZQ5WHNBecPkCh6WSBYgVHiEhUIhROg7h9LUAGqXciCDFJoV2rFFph0cYQUlUfOJybTk16a8J7WzgtFq2B2Oo9B4aA2yjW13HCivOiXfeBvcvgFm2pZZrvdylcYtdpQbYMLhoaSkaFEUIRjASgkjsMuncnsqlvt5JrVSq2mBsNm1xBql9jQ/cCWdOBtWnH4B48O6VqgihFlLJIeOzrmQGjvu0AM8YGH3due5gLxIBLtuiDvYIsB/++SMmmOlsJyq1LrrCy08iCk5WEaQoucPwjmJ0faie1K/Jvy4xtMFpRAiqnQROBt/+SVrWmIN/LSnAjHakiSoOzZI6UbHzSAUz6OALaALee6l9OpGGufb2SL/54Dt+7guauTE7GwPx72KzwI8IPtqDcehun225Lu0txwgOtJLqQSj7z2Z7JpD3NBkjAUZzmb2fz5Z5VCk4qPDsVGLrwzLSiK3x8O+329NKHp83xgJDor8WOFVKVQ7NBFwm6C3jXo646ig5/ddQ9UAVZSesMqVFcQHBoyez4SGxqJBmD/bjhwCGR12G1cDE2MvMVyJZjmWK6aM21RcwXI6qDqcVeir+wPOOYgOhVT7+fuf/oPD/NaSU6y6emJa/6pc2FZ3i3MvLJlPMGMf4PJgqQRCep1+D95LEC78cFamds1OG296pI0wfg4KRabnBxOBP3CAesIvfFQos1JHpQjSIKdcLpvU7wkJSZAXPBsw4wKalKUCyursMueTwqmoqNDEyl/1O95oA1wD03xAQn+D0ViiUCpYTwqi6DEpbdPK9nK1uCfrn5B0rRxV/bOCFBF3ifwEykpHo/AwQVbScMfzttAOCW6Uq3t5sA1hQenzzN6UbwgJlP+almRVwJVt86HRF90PKmk45K4M4M5o2V/jmJ5W7c9x2v4lR0EvGkIrGtqRlFjXThswyeJAqgSDzW7AqtSC/b7BxGGpsAOZCedrRvHQFar1VJzZThsgBb9fkkWvD0fGM+Ma/9EAHbIAXUJnGnWgq0aSBp2eGEPcejYMrvW7YIhWBbyOyoH9qT+AMWDg/vOkUi9XECTsE0TJisazPA5UWJA7XHg1/fm/lX7jY2ynqXGMFk8C1o4LkbgG4zAvpHtG4wFLjpGACNwBAKYLI4ABwdhBDACfQQwWfSxwHcYAYzAEQhgsjgCHByEEcAI9BHAZNHHAt9hBDACRyCAyeIIcHAQRgAj0EcAk0UfC3yHEcAIHIEAJosjwMFBGAGMQB8BTBZ9LPAdRgAjcAQCmCyOAAcHYQQwAn0EMFn0scB3GAGMwBEIYLI4AhwchBHACPQRwGTRxwLfYQQwAkcggMniCHBwEEYAI9BHAJNFHwt8hxHACByBACaLI8DBQRgBjEAfAUwWfSzwHUYAI3AEApgsjgAHB2EEMAJ9BDBZ9LHAdxgBjMARCGCyOAIcHIQRwAj0EcBk0ccC32EEMAJHIIDJ4ghwcBBGACPQRwCTRR8LfIcRwAgcgQAmiyPAwUEYAYxAHwFMFn0s8B1GACNwBAKYLI4ABwdhBDACfQQwWfSxwHcYAYzAEQhgsjgCHByEEcAI9BHAZNHHAt9hBDACRyCAyeIIcHAQRgAj0EcAk0UfC3yHEcAIHIEAfUTYcYJqtVomk4F/IbKiKOl0Gv7defGwUPy8hxLGAeMw2GtednvY6ZjPd/OiZAFM8aMf/ejWrVvw+bm5jZuzpQAAATJJREFUuR/+8Ifw705WDgvFz3soYRwwDoO95mW3h52O+Xw3L0oWwIXAFB9//HHv89/73vcG83FYKH7eQwnjgHEABHZ6zctuD4N98znusc7iOUDDr2AEvokIvKhkATOuniQJ4MFNbwq6A+Rhofh5DyKMA8ZhsNe87Paw0zGf74ZwXff53uy9BYITTLTgX/gJRcUKzgPROAwl/BzaDLQcjMMfBocX6enw7ouSxQt+Hr+OEcAIvCoIYJ3Fq1JTOJ8Yga8ZAUwWX3MF4M9jBF4VBDBZvCo1hfOJEfiaEcBk8TVXAP48RuBVQQCTxatSUzifGIGvGQFMFl9zBeDPYwReFQQwWbwqNYXziRH4mhHAZPE1VwD+PEbgVUEAk8WrUlM4nxiBrxkBTBZfcwXgz2MEXhUE/n+t20RTjHbWlwAAAABJRU5ErkJggg==;" vertex="1" parent="1">
                    <mxGeometry x="-190" y="1300" width="193.48" height="100" as="geometry"/>
                </mxCell>
                <mxCell id="58" value="" style="shape=image;verticalLabelPosition=bottom;labelBackgroundColor=default;verticalAlign=top;aspect=fixed;imageAspect=0;image=data:image/png,iVBORw0KGgoAAAANSUhEUgAAAVoAAACSCAIAAACL/5VMAAAAAXNSR0IArs4c6QAAAERlWElmTU0AKgAAAAgAAYdpAAQAAAABAAAAGgAAAAAAA6ABAAMAAAABAAEAAKACAAQAAAABAAABWqADAAQAAAABAAAAkgAAAAB/S55MAABAAElEQVR4Aey9B5MjV3og+NJ7IOFRQFUB5dpXO5ox5JCckZk9zcmcbk4RN7qQFHF/7BRxoYvblXTSrqhdaUYackZj6NuwfXmDggcSSG/vS6AMUKa7q9lNVlfjRUdXIvPlM997+b3Pf1gQBGhURhAYQWAEAYTwERBGEBhBYASBPgRG6GC0E0YQGEFgGwIjdDDaCiMIjCAwQgejPTCCwAgCwxAYUQfD8Bj9GkHgFYbACB28wos/mvoIAsMQGKGDYXiMfo0g8ApDYIQOXuHFH019BIFhCJDDP0e/RhA4ERAIHM3Tah3N2dT4gBZyKSEqULBZsRMxulM7iBE6OLVL+1JPDHCBsfzhg2XlH9fGkVz4o/dm5nmZxRD1Us/qxA9+hA5O/BK99AP0ELJMpd1ZKyvtbjNAhr9nF0/zESE1EY3JKZ4Q6D7r2qvf3qrc/uzhjerHy2f8Sf/yxWw+LycJRB2Du4VePEdTtOpmu9OtaZ7HROLZoizLEQaxo41/2L4aQeUwqIzuPU8IWAjVOms3b//Nv9y4+egz293y9tCBPHlx6p3/7crVq+/O8DvoIKyvNlcWfr1w/1eluuJRTmSzdrmsI5FHwjHQAaAVU6s+XPrgH27c/PLDFctJz1/70V9eu3L1cmqEDg5f4BE6OBwur/Jdz+yYymZXsyu2jLHRr8y3uwhpllIr315Y+2ypMpZoiyxP+MgIz23LCYhzP8zqyHa3xQKeqZjKnWpp6WGHq2PJQhKneH2r3Li/0koUhUiUhi17iATBd5Cn6Uq7tl5rd3UtQHbgADroVlbXH5ZXK4ZqBbTve47r2LpvmbrRGai5h55QyI7wfCSWnkjJssATaJtkeTU2xAgdvBrrfJxZAi6o3fzbOyvtf29dpTIXnhPfzmFoPFsYS/3Je/zF8WneQJt3lj74+zYSgqwUF3mKJPpjNJV67eYvlle27oy/7uWEH6eVgGJ/tr75K4+akmYyEfpwCYKnIX2pevfmB3/3ixt31ta8oIV8YBZwKYOPXy1e++Efz8amc0k2mpbZumiXqw/vDNQcRAdRhAqFC1ff+bPvX70qTPMjdHCcrXPS6gaehVlK13Q3DBYj6XyUZH1Xq3VdRJDJCC2wNELDKPBxnC1CHEIxUZZzxagsMwfePWmzfz7j8QxFL39ZWq7drMQJI/uWNu5giPmqbcOpGxFkSb7wxvh3pi/xDeee531xhjEEPB5JxygAbn/tlM3Nm582v2xQVuF8fiL/er7stmq3f7WqlPW1ihyLSZMCEaUP0Ae+FdgtvVpe/nxz4V5VKUiWxDAYyYtxsThfuHb1zcvJmThtGAayKqxzsCYifAfzVK2tVTcs247O/ODNogMkxtC0+/oOzQ6aQRwnqRRrIsOprTsuQUcmo8LLv0OGP42hub+UPwAXoNqtUkX/+82xQIz9+LKUNbtLHz4yECW+Oy8LTAphw3N+HGeL0BhCr81dufKjv7p89WrqwLsvJYi++UF7BtJLel1fW55t47GzgpQBZp4O+mu39Wj1/Y+yFTz++jtTb7w+keDyweaXPxj7dKW7trJRtKi0OMNF6aM0DDGErueL1Nt/MT92GVoNJFakYmMgPsxHGYLAOY5DBE+oQInsr8k7baAvVm6Wfv63dZfAROwAxgFio6fvWG+6H6M3KEF+J1MO1lsf/J1qUvKFv7hUkNMv+w4Z/jS++Z3yVUcQ8r3lu41No9QScI8HPrSjNO4sllVCPPO6IyAMKMh+6WP6dru+XquW7q2Wa1rbRo4Pm2DvRPBM3VRWlLJc6840nXSUQPwxRFk7Pb1sfwkuymcv5cz2FXmSysQTAkMFCL6O/undblurW8ghmGemmALHcLsb3W6rQmQMIReJiBnOZoHzr25UbjxcvKe0iUkmN3VuYux8PhZBWOA0Ls5EqJX6R0t3Kh1skz8v0MkjtAMsQhkplp67+u3z35ucQEga/qhxHEc+GeBw90BNuxJ0pLRDL8l6A8OogW3QW0DYFZ6tdlrLi5WmX4ld5BBlNFesamO1QhsCX9hHSLxsi94f72lDB5ah1ksPjJZfiL3NyZyo3WvUah8bgSEIRUQKCG1zqDuY/t6Nxf/3Q7PhRa99+4/m/yT5FusPqqD0SqV286YrNCTG1nTkwvuvADpgo/nUlR+/NmuP74gSgV2HjdI/vVduVP/6faTx6WemmDzTMCrrHbNVPX8GxcaiUSbtabS+vL704MP/trGicBfeOZO/du7CRBQOW2DQsGgydeUdzb2Z/fUvmv7DB/G/Mvnk164dCPUUpq5vrVmKRqQLTATIi/am6RnB61fZ+GwqKfZH+3Lige1RnyZ0EEoBLFWpLKodDShEJiL4fnNJaTbrzIwbiVMkLQaI3D3lNtfvfrLx2Z1mqS2S47nYpeuzV4sgOpIH6FCtslKLGYqDVJkBKQK5Rze81Iv+hMETbESAfwhl91V0TaRWWpsbNz4NOpHgStucC7A41Bk+gfe9NPgTQx6GmbaptzfXuh2LyL3G5mISY6JqdePRJw9ubi0rjBObuHxl8szVdJ5HfP9lNiqwF1MT1vTYA2qr1nlwYxUO97N5PRcdsFboVzURqnRbzUc3KNVfXkHBdgsDMqAI5ZGaYjhdTcQMgcIoHAQRT56BbyOvpRvqmsK3PTbFM3HaNWstteszU3EunwZjhp2+Bmf8kl2fJnQQSgGsTqdyV2yYAn2dpgi1XX3QbeuJ1BUmPxYX2MFTbv3uyn/5KbHpnLn8o/mLr01dmEiF+2+XeOitIwiiU1fei/nIFVMEu//pS7bUJ2K4oPxTLDhjV1e7KjVxVoqleNHfrD76/IP//D9WqjSa//HElTfOTqenhtYC5JipyOT8/E9Q9MadL//tp5W7Nyrv/mn+6uUBa4X+9FoIfb65snX3r/+tJ0rcFRvvyYAuTepCZb3dLZfSY05CJDlikGY8EkieifQtVe8uYnmTjMxSdNxu1dcdxcKAUohneY4d3jpHNnSiH5wmdBACGk42MXPBcTkxJgkRk4lkorh7SRrjMnJcoHoMoeeoDXX5FkjOl/Wck5o9c+X8m9dB7IQdxO4Eywts8bAFPEofcZTWOuQ8+xZymuMbXAra5IyaY2hgLafZoUCDleSezZwUgdNSU/bZ8O08HbSoexFthnPdtjswvRpKUqwEQjgegQxlU9m8v/Xo/s1H1baGNF9buEGKaGsFxdJPrXkJ4Ix1GoZi1ldIx5OS18WU6Fjle7WlB5stXBfGi5fPzF0t5pNDNFqPw+PBAIKdB/Diyt01a6Oxuf7lBotuo4I5noAR7pMRhNM4pMCq6Vanpt9famyoWHZOmMxIIGzs0YwIpzBaogQmJluKsll6+JlNdDt8fDzV0ysJwLYAeRmVC1EPj6RkIR5YRnzS80k5E5VjlDBAVB7S80ty6zShg/AMiU7yl36St32SyKcoxiOl/9VxUZ7MEhwPhCVsdeAA1U5l+c6tStVOX7kizswWU8/A9R2ljzhKax3227eQW21ZG+PvwvYY3/iwtfYIrOXWFHiKxuau9mzmzlxO1dEBG76dp4MWdS+izXDb9u0OHlT0X6B3uez5H19OTqDQEuHmp795/6PNT+5ry1uBR7Dv/1//9iu5yGCvnX96zQuwG3pVN+nV5VmCTsyxPI8qpRu/6VS73Lf+MFa4dn2+MJ1CICY8rPRphOvzP4nFH919cPPTlVv3/nvr92+enYcRnpP7bxzQF2w31FcYU7mibS2u3vnNo2qdKbyVTV2czkTEPs0IJwnix/jk2uRUCySan/7T3do/FXji+sVrV0FKcuWynOanMpPO70vIx6h0HDTWAveDHzoBhmIpeoiWOWzsL8m904QO4Gvn6Sifmg/P3u0iXYCL5M4v5JshB9iqLz/s1Fp06q3E2MV0Ojz9nrpsW7+Vaut3l2/cubdSW226Bh1siyhdC9kVpfTw5me85bXdmaliMtqTgcP571h6o7lya3m59cWaHLARD9MDB3cDLLB1V6/WV7AbH/8GNB3NpCY01nY1HYGt9Z5yNz5e9oNc4s2oKPQtIF5EmyEc+nYH5TX1VnBWRJO/fyYWiuGfd7Fdr9nVcNGNoQifTk5efCOam5rgamS3sdyMYDQfnvnbcl1AfJataMqaAoQUkT8bY+mp9opfsxv7bQYP6Au2pQJ9SmpLq35ZWV3c1CIaPzZTzBeKsSS/4xaF0wiPCcn81NU5BbO2wKhZgTlvv4/hVPg0iqYB4W8XjpUiO9en5O9pQgdPsSQ9DlCvt9aWY3VHTkViheNyfdvWb5998Hc/e7TpdSffjn575u0Cl5ZDSGJ6K6gtLiytvv/L/+fh7an2H/3lG9cGz/NwhGqtu3T3PspfPP+Hf3D+TOqS72LtFWP5g/sLKz/95L/c+Knw70y2WCzuajpIdbX31P3pJ8u/qUnF8cvx3H4LiBfR5iA0+7qGN5KXxmc+v/Db6l//M9I40Cxcunq1mNplFnpagMG3Drkm4QRO85JZmFqotMkvlotJcvZPrv/pXEpwIxOYXaNLHy7Wtf/euYjHC+GZv40OQlpMWVv58m++bLms+MfvRmfmMt/78zHfv0SlaSECiAPgekh3e7f6lNTq0gf/+nClvTnzPXbi8tmz+TNDlAgcJ6yQPjP93p/Hr3fnQyYOmt0xQnua2e1197JevWLowHcCu+tobqsdM/GULIqpnj3c068eWNRb5bvl1bt3V7obbi4/d3n2zdfenOGLfYWEXkU14EaVj2/8YqGk3l+rCHm9GGHSIK3aKwSGsaSYjhYvF69Mgy5D1MaNgs4h/ZPf/ubhI7ydEJnJ5Ftnr86+0X+62Hv66JPfLnUdVK1NlrW0xAT80NI9rzYPF7Fv6xo4IcfonYYoCwEemZi9+p033j1Et7830QNXGJzAVEKI26lLAr5k3FlttnAbXZyLgMEgQn5lQ+0sN8vq7UaatJMhVbJdQq8HU6lu3V6o25L8lkWeS/CFRJpGkzs1EGCMJxXfsZx2tdtqr/EG3m7mH3zhVg/n+DFKIIVkPBf7yv4aTxrTCXs+tKdO2Nhe3HAYLEhQRELiGYFH5HFMCSxQVjz6vFQrbc1+F09c+s61meszfalEONqAiWKpy2Nz3R9967MbleCW0XpUqqrj6UHDaDEdn7rwrei5b12ajAMuAIEGIUS4qQu5jfob8n02x7S+893Cdw8+1d6Qf15xu3bj7UoNTaR7lgA7EHoRbe60/Xz/wucX5ePi1Otvc2TtwX+znM6W8u5EDQUv2J4vPPlZXh4rTCxVa1uf/teHVf9Lcdelev8cyegkU3wHiJ/n5K+xv/0T+/vVRAfPthwh/2kb3VZptaPYeO5MZObq9GRqmy7oNYkRDBDDcmbq6vkpk1U+V4ytals1ZQeFkXz6heL52GQ+MTWelvltGwecIeUU2NLlOFaLCq0zU/lzU7m4MPxUynF1r+N5htnVkAvn5UB5EW0ONP/cLkHEEgQsxafkqYtYcyGPP2yrfqdzoaxhQO+Iz6Gfx9kdsIEXjc4JY/WY/R9sS2m5k5oQiTABC7YoO6WnVVm3u6rOXOQKjt5T+uw8PP1/d3fp6Z/qwAytAGs4Ht7VrePYGob8p2vrassKDGJqOhHPpUUW2Mv9heHEZO5sotvAK4HV7Gi2awaIPcwGfv+b4F5LkQmJG/TwO1jnuHdeRJvHHcNQfYJDfI5PlianFsC+V9G+16d3ngc6eJzdwcy5md/700vyOfo755eKmax68X+PFi9eSaJBVk6v3Kvd/M9rKvsgO5GZ3LNVGRr/6f3xiqEDHMdommA8nqipnm8YpgonLXzRTwWGUJLvebale8glZZ5PCHzofH+gECQtiAmBA+slZJuW7XlP7xFI4DjFUByYUB2HhTkwhKEbL6LNoQ6O+wMnES2QPBmVGx1CVWzrIL1z3Cafpj5oKwi5GOfRpbl8ouEv5OaihSuXLopzqR7t1vOFLd03P1mcawTkdCE3VozJPNiqvELlsO18iqdPUIiXaJFIMCWwjXN0I9yIp01bdIrX74lTe5zdgRSNZgoRWqupxXzXVxZXNgk7cXVieiIZC2Mo9Hxh+/6UdSr51jvpC1OcJL5aH8irNVvU0y2zopTJOd1ap9qoE5utjiw64tNE6YXzmiIImgHpnxG0dR3XdDskLUBMNVQ81zbVhma0EAnBOhiaIPoegUOVRj8OQACCFdlgguEYHInTQMSB9+Gxy1F2B3sNuXiUmz4fN1bFzXW1hNa2Isk4Nyl4bHuzffvz0r1mwy/48bnxVKIYB5+3PbHCXhOn9+oVQwdhFI8UGxnLXoiWlrSF9dUym9s7H56wzKF0mqR5McZgur1cbzS2tQb7jZj6XpWNuuKzRSYeEWiyZ/cGkshReRwEXNdSO1XHsGWO4iSe3hO/Pu6t4z4jhDg39a28Tn/77r+uqqWlpSmXlcQZTagufPmvH2+UyNnX3o5fvXwG/KNeDVuDQQC+augAPmmelrPpy1cy5Fr0wbq2QN36yEPd4nQhmortj3fUi3dQdbddmCByHklzUixXiKib/ubDlkUvZa/JfG7Xr247IkBl88a99sNawI9HcuCxD5KA/c7zg0vw8lzDcc3QDEVESbD50UGQYrnIA4g+9Qnqm5rbWK0tml/YdXN9aVWJ2lRKEti44FGE5ehac903mmT8HA8eJhy9n+x6WkgFHuYbVnururFVHojdvBO1WUzxk4mx5nyRI1ZaXzy8da9R5tZVvrm5XCNsfuzMlYkC+FNGd/wpn7bX01DvVUMH4Zqx0bHUlf/5LPlFu/zhrfvLP7vTuXGh88d/dflabL+1H5i+1G5+EDo4z73HZcLIeZIop+eu51rB2Ie/3ri/8ptYpEvJu351O/F8Hr7/EbXmJ85fy12fS8kSkCSglXjpS0CSIHnhJKpAdloBh8xj6WXC6budmvbgF2sb9t074AiFPGFm5tK1H6Xis2lLpOtazxu1o3GZ69Hsca1FB6EbQNjURndxcfVv31+8tRe7eSdq85V3Z5h8PD/15ndN7Ob9//FvYGl+m3fI5ES8+M75S68dsFYcbPqUX7+K6KBnY3chp3tXzi55nc3q3S1lhbjxiaq0YxBOa5D0hzCeyloJCXJkwgUnGCgEC5GCLmQntAv5FWyj0rh347apUmv8SiyEJKZ3g9r6woqpMFOR9OSFwtj5DN9zyDkN6AADJx8hHYlX5iburirLWw8+sfx2fdfn7xiRAkMpDMVLYmE+O3Mpn4qmSZ1Ul9uN8lIn0sGScxEpF6PYp5Ppb1NkteWVhYc37q6uKapORCM3hHTcwtq2HgQHQA/EDEmygpzOCuJ9devh4o0Hq8DJzWLFcTktT/JRPiY8na6ptyVO03+vIjroCf+2rdMjxYXpL2/cXPj8l+//7J/bBjNk7IdIOU9Pv3Hx8sU/5KN9C0KEBMRPp+fw9/4MpT+78+GHP1/41T/c5nG7b8rixpE9ky6cOf/DMxevTR4aQ+El3j0QGYCfjuQal17TjRt3PviXO6V/mNj1+XuaWJJkJCWcfSd9Kf+dH6gsToMhsCSHhsC0vuYs3y2XN25HY3a0MB/nszx6ygAC2zGaPv/4r//xl7/+dLm64XlY/u7/jc5dPf87v/Pj7/w597YPXmKh4GaHWQitSDHbRXpXU7urrgO4QEcBoRkba1tra1vNeckM+FDX8BIv1TMO/dVEB+H5QAkJeSohxiIZuUuJ3UVFaynGPijiHM9mipFcMSXtWBDCJsFlPl0sij7oKaprXVBYQhhvuy8dIBlEZqK54rXXzvU/jx1aIzwPGT4RL14el7FgPBmNUfxeOGBYBYGJjmXnX8cNHsvGksLgx3DU0xfRZgiAfqzELKZfRlkuK0R2v8vQq0/mU+PFq2famPboC03fgupPLTmAWAWsQCYKqZmLlyIIPA7C0vMQVTbX1764s7qsq4kZtjAVjQlxME04RsO9pnb/w4kA5yAmSery5blewNudVQBCAfJBQTyl8map1CrX75YEunhljs8zmE9QsodXiLWP73xaCbrF3FghFR2MLrHb+mm+eDXRwd6KEkKKm3r3fOzK/3kJ0ndBrJ6hQgzE4R1+0KMRLsS/L126tp3ko6846PvV9wJmDMmlQ61E31su42KXuBwl7nk6oJ6+IzL5+vxPxi2XDDKTbHTQ5z/Uhhz29EW0Gc6y77/Iml5uJ/zJ4Ny3vRsLvzvxjtM1YGxfzeev5yHaXPvyo5/fWVCk7LuZwmAMgsGOj7ju+4kUr4t/GYldmV798G9Vnc5e/It3L75z9nJxn3ZgL0rFF582PtemvPHi+R++/QfgdYJMp7S0+vGvl5c//dkd4ldT11//n/7y+tX93qhHDOH03H7V0UHouyYLSRkli8dZ1P45mZQLyWLhqd7bo0e243QMvQUfNkT74dn53NDt7R9HPX0RbYZdHhkrsTee7acZlN8e3jP/AQQKEaIa6sqtreXFFT2i8pNnC7nzgzEInqLtbT+RbHCF1+gWtxxtaWz64tXC+StpiPXYpwv68Z3a7Vq5rZQfhFGzlYB12HQsd+baaxAyPw7owF5OLFmbImo3Vzpqu9T88osF1dETcm4MqL1XJcvGq44OnmK/jaq8IAgA6W5qoN77+NdLK4px/nfkwtX58+MXhmIQPJ+u+/GdQET0z19IXWKsF0ti4i1WTiZ7nzoiaMRS25EOfjCvVcoPVzc++NnSTz/4KXY1cXX+mWNGP5/Rf42tjNDB1wjsV7Qr2GMCBKEdm59lIYZlMpTC7MkFIKEBFRNS8cLk6+BQVMzzgw5FOwB7bAv9SjiD0TE+7U5dlyAJSkpmBCwg9ss1oB2eieSSh0TNJlFPliSj2SKqVaWb/IOyXlU3TkX2hB0wPvkvyFz7TO+Tq45qjCDwTBAIBXg7oc3CGJYQJx3svGm8zyyEiVs1F9NDeUpk16BruKOjWhiotR20zjo0RdoOs6CV27RHRR6bjrUvbuynn3ebQYyIvELMwggdDGyp0eUIAq82BJ7BS+TVBtho9iMInF4IjNDB6V3b0cxGEDgmBEbo4JgAG1UfQeD0QmCEDk7v2o5mNoLAMSEwQgfHBNio+ggCpxcCI3Rwetd2NLMRBI4JgRE6OCbARtVHEDi9EBihg9O7tqOZjSBwTAiM0MExATaqPoLA6YXACB2c3rUdzWwEgWNCYIQOjgmwUfURBE4vBEbo4PSu7WhmIwgcEwIjdHBMgI2qjyBweiEwQgend21HMxtB4JgQGKGDYwJsVH0EgdMLgRE6OL1rO5rZCALHhMAIHRwTYKPqIwicXgiM0MHpXdvRzEYQOCYERujgmAAbVR9B4PRC4CREUg6DVVqq2q00Nc3UAmR/BXBjCLISMIwgRJJxUaQ5wkOuZxheABmAOIaiCEhOgLlmYLZ1J2h7EUQycQHnqEG02AvpaVhaq+sijIpFKY6FjEEHIdXPDmiE7UQDkolxiKMGMwf1gnCajtKG+RBRmWXZg23sTTVwDMherKparWOrkBr5+IXiRCEGeQfFCI0YAMOo7INAP7yq5TZVEsOpeJThmN6K+JCI2rAsS1Fty4FVO7pgkN+JplnIAM9ydJiHb3C9UeAFvmmbrtJ2fYyQYjwNlfbVObrtk/DkcRv06xpfmBunW1m49y+fLi5urWJICYaAfMxhcBgWTxVmLr7zxsxMapxVkWFsrFs+otPjyQgkV4e2zbZbvlFre5/Z53Ex8+Ykk5cH0QFsCFNrVVY+faghUnz9sswxKYQdhFQ/O2BLQZ/a84hPvz4O6GBwsOG8lLZ686YP8byvXMmwWXHw8b5rwAX2+kdri4s/v9tcqZn7nj7Nz2huduKNH87MzF6Io1Q/w+zTvPbq1OllfGpV9Y+XBETL37qYzqd7q+oZvr4JybrvLrWqrcdCnuQ8JhbPpM/N5DJxEfbS4E4FXICculJp37mlujg39fp0hqVfrlyPBzf5y7U7wk/X0G2lBuc/ISUFRuAGzkV4qlmaUl2FdGs8F49wkfApGeZTdB1dVdbXPdFtxXPRiMgBXbG9tvD1OvC0tVruIMq9YFIBFgeoDK58D0ieaVhbG0rTbWEZR8BLmO0p8O52wZCKYaWNDfXuXbgpRiKW7Ug7DxGkCA0ChmIYsUc1wDIEjum0Kkaj3NSDphOIBEYP4CgPaAetY/uBycgYzRx4qvlarUtTWy1d1NBMFA4qC7BVu91e3Wq1uvtzT4a5p3bSpUYFCno/MDkY6V7g83anW9M8zd6b3WC6OmmA6un3q9t+zREDijkiUPoeGHqp7i1Ttzs119tewRd7onq2ZjcB3crrGQFj+ZCmGxzOM16HsPIsxa4utTaVcoOFnK95N/BdwzOa+mMpvmF6luUIbIjEfMbxPONrJwEdhDkIpQx3/of5yWMzCzqcwJXV1q0PgLDn596dTk8l+YAR+8wCZPkgTEjT21hs28gZm3NdLNzjGCuR2bN8ZyNVWtCIsjLLVtMinBPiwDcRuMjXoDKGjibbLd2tlXS10U0kV1WvuVRVlty9s4XAdByvV2rGowU8CHiKLK2t7m08uOO6STmdmruSGcuIcIYgj/Bcjo9Nnc2dL3DJKR7JFAx2u7jtirF8C6ZRzl4m5eyBp6vG8gdtj93gSc9DkDpjO6/xjRt//f7nNx6FmVUHCxmdZIrvXLp69Y/em5nn5SNOsB6VVH249ME/3Lj55Ycr1poCd7YLPTYnXv3RtWtXf3w5eW4AHfT7rTWdX6izPp9+d4YXBrHazusDf3t5E2utm70VnH13Osu/sBO1l4E6KvkXxXulbunR1kQVpUKaTuRwPh8dS16Q7JmnZhaGSYMQVlanVr93q9bwTPk77NgEy/OMUfeeTPEN0rP5cTag+tnAB2D0tV2eBHQABzbPiPAvnTz2vDsIbaxS1eoNOFAjM7MXCxfTQJH3kwMjBE9d17b0FjD4lGMDBdErJIuJY3xEzwl3arpZqSlWRBcTMIQBwiIkEXoH5N6JODA4wBaBYVpGRWE7ph/jyQiHtT1kHo07Bl4+/DKAtOMeASKI2MQsnS5c2M1x3KtuV1ZVt1q1capw7rCntOreWOtiDQrz/RAdIEBMasXqVCods6pBAtiAHdhkGNAOerVdWrr5mW20xiYnUqntVCj9scHmhkzHjc7acmXx3vpWp6oD5TOALKGWpfvt1daGcIuzbCMNSdm3qYxev0pJ++Ih40bQXHwsLVOHSl76PfWoiYpSq95Z0C0qHtecBBZmsH0hpZdZk5Pi+Sznks46zLDd1jOCA6nlcYmhpHDrHLsArD3PVEyl1CqtlZSgg6LRbFLOxUWOoAA1H7vBb/KFk4AOvv75w2fPirI4PS/7VfNeSdm065OXk2l+J/H3E0cUGMjZMtxOKci6HDOem0pkJcdxPDiad8ous2CC4AKJr72ez48fwSxgoZxyf/bonXa+yt/YWPG1H70z5UtXkmgw2RnuqKRWXlxZ+df/7/6vouPf/7PvX7sqTPOQGanfWz/T8Y3bf/P+Zs3Tr/4g+aPi/8F7ArWHGn2z6bUebiiffPgfzc+zM/uoDLWurvxyQYtYK/NSfko4VPLS7wmzDFQDfFO7Z9Emia4N45yvMvej3iWFmDj7WjyqZNYU313xgykz+Cr0SEgXAC6o3fzVVtPc4C4SyeLMZHYsTkQYhAdxeuJbk7FLf3DmSPHwELPAImAWjhr513D/ZKGDwLN9S7Uss2sGtru3+XYAAZAiCAYYbolhqQFuf+f50/6FdkhKkGJTuRjTYVZ8OOswf+9LfmIzvq157RWzq3fYDM6muXg6lTp4sgBtErhuJxEHmiEyNpabmDgse/MTO/sKFVgxNjZ3NStNfHsCTUYGGtKrqHaLD5zPbzQ31PpquR2r6JkxRqZC+sgzNVNZaW+tNlRbp9N8YT43f/lyagihuO0VY7l7+2Hp7hYI4fCVSkKKipMCEe11ggcuE3Q0W6m3zErLkwSC38vKuDuM8Fy1TUurWErTxliKiYK8f/fpi7rAaZ6mp6JYa0JvOAE2KGo6Zpfh+F1DMZulxsbaZs1s+RI2URQzExHa4QMdR0xAcTiVj0ZQ9NDU3Mfs72uofrLQAeACp/aoXq0uVOy6euD7xCAHJ8sn0qmzM6l0fB+3f1xgBbSAJaZkvHsZ+YBk5D2+/skteYZqbDw0G14Qn8JiWYx9UeTtk4fyTDUC+PJSl4vX438ZiT6sBXcsfXWxPi8lkRTSR6bSqd38sl1Xqff+OJeaKRYL2QSwG0M9EUKKm3p3mlr4X9Ana9rqemXKIOLiDBft8VuxFHbte2zJo4yuVVrW81Mcog9+6OG5qpvecolXFPFShuTzeIL/Gs5GGAkIl5hiMQ7qZ4YXQHT3TJ9Bjy5oljY/+u1mw9qMXKSyhXMTmSjjWK1quYvJmYwoksMihiEYnsAfzwSHFzaPwA6l63qz2tD4tkOKBCIHpeuweTpl29FQboyU43HI+Tnw9LiDwggGcSkBiUUf5JEkPyAPC5sicIyFrKI0TeBDK9rTLZtKrbKwUFYpawInRR5RnmurdrdrWLbl430RRY9Z2CqX1UYTyBxja4vEie7uIAmKofgIw7A8tTdHH/mOZSj1amDjJRFZA1+g2yiptQYcZzWmRB3ytKLW1LrNWUJw8LPb7XT3Ipw7n5Zz9FUZiaut2meq2ywbjqgjhgYbEFOtVBzFjkYuzccKs5OhUHP31e2LUDchC0nkCc4jpmQtt41GpWvnaSSEFViRzs3GPVUgGy0TJ9T0mB7bL0EIPBOzKqDRrbm8RqAkbcXYr3JW7x/h0O+eZYGuqa16R9VNSMuMc0Joo8GznK/7qlJ7osXBQHNAw2AUz7BEhPN8BMIa2CIil52SMkBgabjVXa4qHsGckT3xIMk40M4JvDxh6MD1vK6OgMYqnAPJIhwqMr0ni9Erq7Vbv+yCqYit6w5yD6E/jwXhUIJA01QiAVsYo+kd+WO/DdB2yRKJKIGi4HHvzAsf9HXL3cb6g7tLG1pEkw0BwSlh2N1K5eGjarVZd0jIRww1H69ZYKOpaPF8Kp0eF/H+wRvAvvKdbruxXr7dxpZUHosMfIRut6Kv3207WL1CkNLagadb+nrF4NKm7B5jB/Yl7fzmefyO7utWMF5DbAqBEs4uBzM2wV/gInkeDQpY+7DZ/Z8QItzUhQihJhsI63Ypd1s4gpM8FZnkDJovr9Nmuz0vsIjfJ0HALA3VHvldXY9N6kjm6yXUCV6IBAWG27MsaC4tffTr24tr1bYfMGMzoY3GZOYcu4V1q0+2ONidMwKDtighT6SBSB3nI3I+/frbURebkdI00uTu7Y1q995G3Of5yWKYt/5roHYGhvZVL08YOvB833ZQQJKRBJgNZYal6x2v65EmsJttF6R2QOJ/xRJKEAiC5PazCdCwHWCeTTIunJYYwQ6gA9/W7cZKu7K8UTdLTpQOBYAhD2npWmut3Ki0lWjcAWu3gVf2jRKk+shSLNyvdKZ8AeyF4PVvaM/0Je1MZ5y1WoFleU7LsqOo5Qe2LeQDPBrl+YN0weB0MIoj5XFWaclI82wV8zwQkwDqxAga4QmOCzKsKhCWYjpIwyQm4Ae0G55pmeW6DrgzwpEYi9XrgRkA7TXY/ou4Dhzd6VRsigxtNBJomhxSZPRXp283ARarKYHsGa4dOhBYNQp2j5QTpMCjcM9utJT1Eqh/HJRiGJKyW3qtWW7pqvFkO1sMozFMZAVRTotgTfsYXcyhQ3leN08WOnhes/pq7cCWVh1fVy3MRVTgYySo8Xc+WEdTlOUva2vLLVxWIxMRclsZ4RlIK4F2Lxq/flEsZFNBIGDbZkj7NAug4QuqtxuOfz/AgZK2dyQkWIDjOCXJiYn4/Hgke05EiSFmYUOVPGAW1vNvUPHxA08XVGmjYnOL3LEXlCSDSASzHFQF1Nb13EAlfVfK5BGdJDnAhI8v0J1IIVNCLQdhDvJ0hIGI10ekhzFcFJu6QJIkumchs4Ym0kM8umkG5VL4mpgBiyvSHibOHt/rsZ8SoWVBfDr67cjM2c0HneUPGj0bDRdxAZePyoldi4P+6qy1nM1uMeDTs9P8ZHyASOt1vMMssCEewzCYIZwdmNtQ6rXbt8ymTU+9GU/nqKizuHV35V8+XVsqKU8cMIbHMGImPzN35XdmZ8TYPkrqia8/rwrH3j3Pq+OT207IZ3Zd19QJ1sVEDKNgO/SYBfhwLdPSKzW31SF5UYxLImis+xOBl2wVARHKxVPx8XEQJEtg9RB4jsPJCT/AItncjmYBSGKXCrrwzWAGfEADxyGOcIoRosk0nZ7IDVNGNu2rjQRIDcxs7rCnXbUhel1s4/gWbTiOaBokDjgQXJgFzLANAhnghQNGOMQwe/+yhXVxUNNgoGEHs0IAQ1/T3js5eToWS+CugxSQGLYsSXD4nsVhz3fANPWqKargzcFRgh/Ud/mx/V08j984iXCJl+HfWEryVPeLvo1GADJESmREMbQ4CGAKllU12iWO9Bk5kWWS2XyeTHOo03a8I30QfAwD5rXRLd1eWSrfqvq+EP1WLFJM04JCNI8Yu+eEVqSmi6lkEqQwMhNwLxQbHjGMg7dH6OAATDwH6V3fNk0h5dNxnKJ3OMBQG6971qo50wnIudRdP+athaT+ESXwkeN6rgOytIDAvF0C44jqp+82IJQgNUeoLWG55iq6Mz69reHv+Q6Ytlbh8y4lFhiOsvVuaD/1jZbAQk6z3ejc+pJUfPbMW1JmiozT7U61c+dGxyHYI3wQgKZS1ebiwqc//WJR+wL7diSRf0vgZV6kqAtjXOE/jR3CLLjt0Iq0qmGPxPcoeXI+hTLgALHLLIAk6xuCxAgd7Ad8AHIJpeUbHpImcV4iwWJtoApB82yiEHOCCWzF4v3anh0x0A6abantylYgwomLRE9B9kap1K20KEQYpS2CxsASAWFqCVXqdQu0AO7wqvtBYDimpdTLL1qzMDAhBF+hbWMOmG0SiKEw3EWW67VVI+SxXWBXHr9DQjmLDw4gAeGAIAbBKTwgCAGpi5BmgyBNlDVXU/QcZqAsSBVM0yxXtLbryWdJKSHwPuV6YH3jH41aBwf8gq5d07CrG+1quxFEAjGej0t5meId3AS/A3Wr63OrtZTB9WwrtmXYMHfHNdpmc622srxRbmxpZA00RUKEomiOYhCVEvnUbOqQ8dqV0IpU6mJdeY5KnT+3zyrkkDe+pluPX+yvaRAnqhvftuxm3dMCPorjUYHccxWGbyMVleUrV5CdNfF1FpjtgSPfRH5Vb7crXxKosroOSguvG1ibWw394TqDEaKMNreWQ0EDZtawxn2DyypTRiqxN/UgsFy/2WlX18tkG185oDt4AZqFXufgyNHpBHoAuAAJfEDqQcuwVrbqiMHm82A1/vgd0pOzIKOLaA+BzpTgQ9+s3UkBA8DxLDGV0ysa/qjr1qtIBLZYdaqPOh0niJ+lhDGOE0w3xJPfcLE6av3OI6Xj0mevcWMFKc5zOAFu0JGIdm7SWGnrN7Y6K040tK3YtqEI6QLABZsffbq2udmgp5xsImrJYGS9X9jwDc/sGN0/frGP0dDzqvoY3bu2VQF3vw7GOoMM9/E79l3LNToQBKFj0sALxGMs1zc66HOPare21moZBF3AOJkM7Ui2C2xunmURm0U2Jqh1EgsViv1/BC3wsWJKBxs3gXbAuRLwBAghHSsIXJwSfYpFIcXQK+AzT/MEDQ7zEGdh140STmnwaQTWAhQrPgjgd3vdfusF/Nn2PtRam66gk2yGomMMSbsSjBlrNDwq0M2IDvM5GiVAjAZP23BUzWQSEBkCp0LnyIECkyBplqEzTLfhdRQDWS2HdS1DrXQZHadjEpeIkQAadeCdr/8SGENXa4KmeLPpK5gQGU8m8jLP+jhofhFNsFwiKypBNyhtdE2vnpiM8lEQn9IYRDfQwE6kowd2IERTcgqLNyqh9HUAIX79s/lKPQ4v31dq6jm8/Hjdu9HYaizUUTQdM4OBY/XY/QIu0Dfub26ptytxWkp+67VMfqynre9xj2qz+vBBp+7y5LgbAQujJ4u4wjNQSI1Pv/e9tGmrdCyAHQR7wq5hCrPSdDpbUwGTvn6GLyZ7zAEo9Trprs+ss2Bq7dO9gCwwB88lDJUj8Wxx9jKZLszwmDzAS7iN569Z6Hsfqi31Pp12+fQkKSYJwGtjAhkUOss6uBM4uRqSHyPl9rSOsXzXAOtMeRyXD7fOBOkqlhoLbC1YVJDfCaK6iSOQGnhUDHqExgdmeeylfC4vAC7QFj+rltVHVDGIjV2Pgu7UZwPTsV0vwANwNE9MCer6TOd+p71RyXNg0zgTIWOkhxwTMTw2dT06pk/LraSKlTtfAxp/LpM+vJGThQ4OH+POXZIR+EyRBgcBkBCH6HnnwVP8hRPPc1W9jWmNjt1qdjqNWgdpjgef8q4EC5QJVm2lWV4v637DQUK5zkcqGhWVKBbkPPiR3YVnIEQiio6P0Zrp1yH8Es0nZS7AyWBFd70MPomEfL7ATMR7qMWRfZ3u2AjzRCArmRAdAHkN3k9wGrMQNiOWGYsWJ/NsEB/Q0j9fzULgQPSCmlLdLK1urmm0IcWjyazIsgJMEo8JglpIBPV2q3pvWTMce3yfv2MI7n4Lza3V5TWj5gpsXoxnBCCdQpus4dKzgMwwbCPuN81Op1XSPUHuCllGguAgDDAXvekPvzP8q396g+KjF+uBC0/moxdj+NUn/vJAR2h16rXFxc2aXRbSlBjorbrqorZrwZKA9gcsXwnQg/q0hGmeZbRXNryAjc0kmAjBBAzJyVJeirjqGOUGSGcGluyJfZ/ACicLHTxe9+67oP4zwLyXTmTB+fAx1nIHAe17pm1UaqsrW7950Oh46uQUlx2fnk1NxCPxHXcFq6PU796urq8bcbGjcZUbj9SaEf3+JUbIxgjEDsgJDrYPkS6Qo3Y3Kw9+VdaQmH3niiw6UrljqQEn4KTEkLsSyZ4OnGeD8YBDGA4Md+8bAibBUV3aCMDuhWRYsFw+Ev0c7P24dwAXGMsfPlqo/NeHEVVIfuetyKUZPi70CSFWiEvTr0f9m2u//qf/0IVs+8fvTV8e9HcMe+u3sLzWeL+ccqXC78UiF1M9vwYw+N5fQpmLSNlnIksVdWtlNdAijD9BQoQLkoUeQ0Oux5f+6d0yg630VTo2BidzfMAi4/HvPv4pBipPp6m3a0vL7eWtjpm9Z1vVuy18HSLkgEVUAMohDKcZMhKhA5eVk75vGncWvZpVkq7iYipDpljRz0GENdtjgeZ5+cvJQgc4wzLxnCyi6ewkIWeKh1nLHw7zUHy1J8LargOsn2cHRttVVxXVW17SwGtJU0wbrAmEZCSVnZyQ8xLoET3fVuxuo7m1tlS3a15EyE/mLLKzUCWUrbXVdECycxkxIT4+Sk9II4BwHHyHQWu2tUw3aI9aMz1C5BNkTCZAULddejpwoJD3iGTfRl7LdtQWJuoEF6OoCBmQz0N6YKqtra0bTX+RWkEQEGy3YHab6NY3u4RGJXk5W0iJRRmCQPSfkxQvxorZlKJFP2uGbvy3v1hQ1qpAPw9sln4LZfBKFiYiqcKYzA06UO921LuAbx5kLkImS1oWubABUaLoPM9kYoD4hise8iukm+AMaJebTQsZEbtPSh1S8alu9XQBrt5RO20F71ImJzqu7zMg3oCIWL7EglsqBM7EsHAnYeFBD0MnSIrAIciZEJFonu96RgcjXRwHB1iIm8gDL9lzxiBA3vJUQzjZlQZW+AQMlBBkbuoy6SMRXO7opz7/A/gMQRIHiziMEXoWBF572az+cnPTWiQuy7Pnz19482xuLJ6OxiOizIGgEMJ6mFZ3rf3go7Ut/RaaDsbG3jwTHyO7TtpZK+sf310r1QL+e0VBeJxXPIZDFJtkdAxd/La1vrZy/8HP1xuOYmRi45PXOLoY70nkjoKwZyJ9yzJbVTLqUXEJB8eB58NRt7ZWPnv/324utf59OPxJdGxq8rXvT81d+L1LiUlwZUoJgAv2tkLPlyF9Qfy+FNv88t7iL/7x9t+X7vteHQ7LndJvYebcpe9PZKYy0Xz0Cec1IbDcVI7FGbzh83h8imMKT0XfAe9hmq5X1aK6R4LZcyxCHt/wcmfQISWiGlYd1L9LdWIzaMYlx8aiufGzF393bAYkBaFJOviuDWFiDCcwwAigZECeb2n56bZPMmRGBLLu+DZfuyM5oRd7e+AkDBCjGFLOwJj2uxH0BxfaCxqDfmke0sA0qLFldQHDCyLweGAHsEfU+1hgg9EYiLBFzuZxIRaR09np6cnJbBo04hBk2dOtdkdpQrjLdaXSaXk8npiMZIq5HF9k2ohvE3RlEXR/jc2VZTC9xSfgKIUoZ4dCCmQLBENCKIYoQTNOV9FaDc+mMNfz3Q6opskGT1ssw9EQzJmAFgaPEvCDcBvrVle3hSlcyHA0+9RhWPaGAsgQiNs9hAgCezHDRDKZyGbv3B7sEOJD86Q8Gc/PAo9QPOiW0PNl4JN0IclwpG7cvV/dRBS4AQ7IBfotyNnp85PDLfT6BeSSAW9/HoXcQK9gFAsrK5pCZhxwCp+VILZC/wnQ2BQFMQszcRcjBZYeWsEA9Cxdy7ObnuRi7DjDJuhnDyXomaqpPKxsri4o7JpKua1S0IhX2jmRleWJWLIfZXt7vIf/AY+aaCoCE/CAzwGF4hBQD3/liLu433OVwGF34gM79ojaX9vtw/f219b98To64JdmQpAyZOLCGJP5zvTMGCuxg6ccuLGG2vTkbOytmfMeP1nIpLOJWEyWQFkIi9lrrbWycve3D8vdwCuc5ccLb2bHMnEeAn4GRARLXMj4kd/z7i5uVj6/idZLxjtvTbMT0R2iet/Yw3MMJE21jUq1GmjsJTEHEUdMnq00HtitakIqJlPZRD4mx3ECWthlHaAVEGF2y6tW2+fi81QiTR0/egLgASB6PQ+CMm6PajuiwRuTfzX+vYOhU2k+IqQmorFwpvumMfAz5Pkjk6/P/2R88g+6bwfIGLATOqqFfr/RWHAJRSE8xUCUhLC1vtUGEOAQZn6nIxgAC4bZU1cEwORslB+KPgDowGm6vtphQDIbIYmQo3nmLWsq9crNXy4ulW6759sUNa0uSVvKHfb1ujt1BdhGEuzEhtD0zgj3/vYcFCSAMQWsxJMq77124CrAKN8XYbFwApzoRujgAICe9QZsJoETYqliKltMSPxQkA1wNQlomUtIuUtxCEswm+XiYriXwowGalPpNuqtRmWz3ez6Hh6lEsX4WGEqzaaF/n4LoyGIyUAMGj5qPmgHjmWHFnwDBc4GMKWDyLx6vVZXdTUgjI5m2CwmZFOTWYrCZiN10rM2W5TmO4GtmxreARs+HCcsA5zkTQziHTDpCOZrRr3id0wyOitIaeBJBvrYvcSxgACqNRQx4sjFwB+wq4Gbvm7YDo6ZSllrCGoAQT0YSQiVo9sRDcKgBrtNHPcCYMvD98nO59JP/Wq/X/j0M/tf6bXWs9oYfgJQBNsE+HcYRRiyewB6CMWQQpQMRiKDaHS4ncf+AumMq0Ikic1Nrdbm6OT5HMPOBg940i9bDaVCrNq1DkOQwA2BrUEAfOcOWj20VcDnTEwUxGyMHQrcfWhluNnP66HrDdU1wFcWx7xuw1AlDXEQsx/Wa8/S7agWvq77z4xqv64BDvYz4Jd2qRfEoh+ZkmRg16YEAYALe26g9OpLtD8nMRjgA3Zb9tvPaFDarP1HWdBQbHZ+ZjqdiGQSEZmNMEPy4f5ZlyC1bwsWJFYZjzL902lHGg5aac/qbtUqv6zb7cVgMmAzU7HZsbw0AZZNNC6Rk0CEZG3cgbCtnuJaTb21sa60lHqpYXBV6gLEO/j+OYzTzdXmmAoktChkjpAygLsjiLwQBr7fGIUM3N1SNlbv/HJhdaOpMLiFcchPJfKT07I0nkbik0V0A1A6yZeOjbptcKyioxLi48S+mBRPP3JXRd2Heqe2Yp7Vpeh3r5wdG5OSwRSmNyZrWxDn8N6dbhO8KmwbVspxHaC0HtM2xmeJ5GszMzO/ez09ww1IaI94B3L8QF6P8trabxfUUsslKJKiJAg6n8rm52LiWBxBmpwTUl4qdDDgl/ZU4OvVB5E+c9jBA2YBGCUxQjo9MzOejUU4NBhruN9+/6wTSGeGBSEFEiAWSu8BhNSi4kWRQVmRtzzE2sgK/QDBhFEUktlEQo7xGNj/9xuJAatp6XYXaQr4A1gQen0fy4kzAh2fkgg2HeVBqMHse9xrBXIrUHKG94IYsNd0QGMQvHWvQPw/ki+KQJPE+CxM5LAW9mq/RFdADuEiy2NZPhJwPPMEeeUTJga5IYRMjqUT5wuZ8THwGcq43WgUtzELAk1p4IQMnOczFpzB6BgvsdNZKaB4YVdkckRzGM1SsTExlUtH2ROVIAd7Al10xHxe6tv99GdAXtRMOiD5mCTwHAXWgUdp+oF+dMF5N/zcCYhJABd9IxwrdFBNgME0a9d9zwFaHQRsER7C64fJ33aNksP6vgdhz9z+6WObNgQM9faYBaBRH+tCGwK7b1gN0WQdOoKROI+ZIFTdZRZ8nA6pH56PyhzH7RdVhu+/nCU0o7Y7gHAhWjkYAz17srk+s2A6zS4FsAJLE4AS4MygZ66u6zqkY9MhVm+/PAOz0HPZ1ky3poKnOJWOgqPbwEF7gFnAwROGlmAQskSz9DBJ+42u1KuIDr5RgI86H0Hg5EJgiFU+ucMcjWwEgREEXjwERujgxcN41MMIAi8JBEbo4CVZqNEwRxB48RAYoYMXD+NRDyMIvCQQGKGDl2ShRsMcQeDFQ2CEDl48jEc9jCDwkkBghA5ekoUaDXMEgRcPgRE6ePEwHvUwgsBLAoEROnhJFmo0zBEEXjwEBkwpX3xnox5OIgTASTwwIMaI0oGzIXQ9ZgcNbE/iiJ91TP3sT5bfMCDSHcSZIdhhj7VD2w1DpIWxdUIfR0jBBlbq8P+hNU/BzRE6OAWL+NWmAM5Qzlanpt26iwe4eOVKhs0eIwv0V+v76327l/2pWXc/2ciAu/SbZ/jcU6ADwAV26JAaOq0QEGkavFsgRMEpLScRHfTddcDNR4XgF49PqQA5PgKGghhEvTMNJtPH2wMuRqnQrYgBb8WBBeydEobtdnQ6wKldNxLPNCwFcqlirhgjwB+ICNMPPrH0HaJUVat1bNV6Fqc4iMIsxLKCKD67i84TR/mkCq6tmY2GFUgVRcKjTzuSfqYGyw3aSAbvz31wHl4FLsJ4hG1qta4L8QeTERpcM8PwknvlGOu+99IhV4MpVUkMEiV1tveS2UTqylrZvPeg6dMQvzJu6yz4rZEUA3uEJnwWUlgbWr3r6jYKMIguQTJ0GObEgyjOEDKRF3mIzkYAUjik09Nxa3A5TsqM+nkQqtXKahsyAj0uEEUQ8K6blNOpuSuZsYy4G2WoH+cXcuAtiO8R8uTl1DA66J0SSsO4uSHDKXHlTDybCF2gARfUv/io7aDu2W9xGX6afyp00I+esLa4+PO7zZUauC8fu0RzsxNv/HBmZvZCHPK7H/v1r/oCxEqgxnhWn+Q+rZnUqlJoNdNPOZJ+pgZFQ1+iy5DveB+ch1chdzll0vXy0oePDEiT+u68LDD7Mjg8/bo/fso4GyXkiXQ6fXYcclOHOTX6e6mtab7brFfUjbuWi7OkkVvKiBAoFVKmRIvn44ybaX9cKy3/6qG22gocQmQEIZEQwfEQoiKGaVUmp9JpiWPwvSi4jx/HS/j0JKKD44MRUAaEyzdMxYA4QGxUQLZuNVe6XWzL1SBEgRkfahICE7nNklo1qwoDewH8Z+F1wAaWoVRLjaZDYJNhcsLH4aGB9iB3ktOqGA1IEBU0nUCE7OQDNIUHkZe0ju0HvRwBzIGnYSbfLk1ttXRRQzPRgXaf32XfTRjo/rLRFwAAHc5JREFUl3LrkPSh/X7MxnKrslTT0bozzlRUMxlkDgRsPISKcU2kVswuVkGQb2o/nH1Ld/ZWITDjLtK01ipEoqPd1+eoAAuX5RhsOISi8h0dEj93PUgGmY5SfBhGbgDYR4IMSH1Dh/3hkXSEFelcUnGx/YKDwDbsNqxjpaVTTYcBNqIfXQEkBQROUAR4t0MgM0ivdYwRHzmgk/rgJKIDkovw4+dyyanI0zILpCgHEAlv7eaWh5HZ+Wke30umchDy8P3qW01D8XFRpBL9GDthdmbL71bcqBHw0wyd5dG+0EoH2+nfCTzCczk+NnU2d77AJafCYPB7mMSFHbZ8q22jcvYyKWcPPA0z+bY9doMngTl9fEiuowbwxPsQMgA17m4tLv7Lp2tLJQjzcUhxrQ6ki1JtrEaaOBO5z/uQWmBfvRdNxTxp3cO4mMpKZan0SMNI6cwFuZBNAX144PMcZhbCvZQUsobQTHt+PCFDLCJTg7x5OCVAHNswnUWfWcA7EAuS46LFYu7CmJAuCGSCJYBZADQA/AFJsRDWBJBELy/GPsCcnp8nER3gJE1LMZwx8W7XsGzLxw8RIAxJDSArgWpU9HYFjmdamrPpAyfbzorBCQNBSOwG5GQ1CSnJCQkecu32+P+NTmNjpdnqWDq59NAyq1tYGGZ/X+ndY4CMjCTjoshCEI0gwAAjkEwsNjFLpwsXIig9EOvKrqyqbrVq41Th3GFPw0y+a12sQYX5zF8QOkCeGegVq1OudUzICSMPB1nvT5CgRSJRIDyc8MIQbAw5hAsCzwS+wOyAZMEUNW8m6oGcxVR0iFFul2tlFW+gkm/SmwJDOgHrGoHnwKpZQJfX1LoNuaqDnRiHQIUN5bkWINs9TtMsKwEwIeKTlCI5i97l9ocWHgDkOZAzqd3VMZqyXfdA6J5BREBTfbqBoaUU5xJSteXghBhLi/E4rBoFQVk9DZLkag7kiKTDwHkGpIokCCYazU/BSp0fXsd92+C0/jyJ6KBHupt2t1x5+KhabdYdUjuQ02JYagAhDA+cEYevWC/rrmNsdUTNZbISEAdhBgRfU+315fqj+3eX60s1++HWZ5IQJmc8rFFgNuOpwszFd96YmcmPs8GhgU4P7/ybugtoxvf4SCp37bsRTJ5PocNSpPQCswfICcJA3xQWDEIU06tB7VbbEx9FeM+DzxAilJcrN5drK48ayoNVi3iAaDcODHemKvkZdRPTurBqSqusr1cMLm3K7o6uYn+ea4bkPSYWz6TPzeQycQhYho6WIDgBJEzbbDxa37QQlf6ciFXDTNnMwCoNSg2SYTqUnaJ3/bWHmodUCRIkxGHVqEBD+pKmugvKGKJlCKu7M8KdV17JvycTHfTOcMtoVZqtalvnIx4ZaoQGP07XNPV6BQ/8riVLGKTFerriWoFZ1tX2lis5ZGSCY9Ksx/qm2VFry3qrCknco1Gv43c2ux3kiinQL+zj9p+umxNWKxSSM0yETUtzKTF/cQzlpf4IQ4mJqdudGsR+A1pJgKCNAMlBOG/PRN1EZXWzi7UCJiCeil1/ZhB4pq5VlpVyteGmOgEnEhA8eqAxCE/HQDgxUPfhwM2EmbJ7BQscDHJwOk7DjGiBOJ7kQXex+xrEnmYxtWMH5abBc24ySQiw6OWK0nUVLE5ALu4hYmj3vVfu4mm/o68fMK4HGT9ERAuFczNiWoa0J4Nj1cr18o37Dqp4qKAhaXt7P2mUgam55UW1rm+wkwEkQqA5zjdxp95pde89iijGpbffG8ewlnn754YbqHPfhwyx+7j9IWaBBflCL4HXk/r9Zp9DDOiAT0KOMdmj0EDOaMAFIDHp1Fo3PwDlHz/77nSWPzzT1HALBE2IbHQ8cyUu5+OFMpZUcRdd86PFN4tMQQJmYQyI+omQWVhQpY2KzS3uJU4CyjzNy6nYpevRmXwWotEOMAv9NAeeDYi+bJk2XZzJJotTHJK3pRig/TPqGzXJW7MRXXjzXHIyKQbbuU8wp420pZW6u7buui14O5QP7xaap1ITklZ3GzWn7epzvGC4TvVRp2UH9FlCSLCAXdAh2SV3G3hVLgY/sZM159D8A/TFtm/5HmgQQ7564NgCktU0NNt3Gc+F/EBPgdx7FIfeUFbu1SteHU3SrAgSIsxWrMZKt9WuIxnFUzNnZ2JkqV77DIR/7elZqXBxnyzgIIzsMAc0BEaFKP7VwMZLIrIGAv66jRKE6W04QY0pUYc8PchdH+zhq94Bi4BASIN6LOMxOzmjwzZ923C1UrfaqrQIj+Emj7aZGG4Bh4wEBMhPQIXDAfO1bHexBMoFUiYfR7kINAyxo8NiU121IXpdbGMnqDQY8gAGoBlazoylJibyCEkDa9p/y3c8R9c8ME6QYmJ2PLPHwwOkNSagmhkLJERj+XxmIg0U/jYNYNFBp9qxuzYk3DR6kW4h56pvWpbV6VpWux7YASh4ILcG0v0tnuzYtZWluh7gXLKG81zN4Q3VAiuXo9axt/lAsgAmLhLDUnA4haFXT105uegAAXfnrXaa7fLtLlqMSpABZwD6WtPYXOqwwHNaKDlw/+jLUGqgdzZX799ereJG7jW6lxjE0RRl+csO5G+ffptJTouQZUQ7RIJ4dLNgrwKIy+m2G+vl221sSeWxyI7cDN5yuxV9/W7bweoVgpTWDjzdOsBdP6arZ310SM7osClX07XFNb1mBpPzVHwC9Dn9LBKHdHNEC4fUPDG3ABcgp96t1+4+rFTLDc9sG5DdzXqEKcH9jmLp2tK66eL8OHkrUWuV4xMJpI2peldVDl1HyGMDKmw+kU6dnUml42kSiSN08HWtNTCLFM2EeftMADpFw6e8D/gEpATOZoV0KgoXh6kA9g0VrAN8Y1Nvl2qa17QZzMc53yHstuG2N2tO3aQjszE5HxMghZHqgpQZUkFurTza6rqBgBIDKrdDdO/7ejpRPw/JarlHSIFeoH3/y5rmbyaiYJO3uEB0QJtydBlilHpalT7eA+VKL3S8B7lVTRcDI94wU9SzF1AngPbHghRqBhEZoLZ6zMJWrdqsALNAbcUcwtplFpDdQN1que6oJsS1D7U0g/0HRJhTi2XdHCTEMNROQ1WNgIgmBUEC/A/mp70o64NvhNfhnlEVoD1NFhIIizyJjlRY7X/1Zf09eOKenDkASQlJPCemrgtZy7YxBixG9+XVBWLSDhMjMVIarI6enO/YB93V+j2tUVZSZ0wxIwrxmK/Tek21lQdGwcbly3JkopcPx0JAlNZalcXPHphVV/6c9XuZ3LaBc1D3jkGCJJyS5MREfH48kj0nosQQs7ChSh4wC+v5N6j4+IGnB7nr57oKh2S13PtO9K7S3lwBu2oiucFK8gKDHUw8Mzya/VqVPjoAfV/Iu8EHbNgdGo9ABqoh6d9wG0/6BZlhfaSrSmXt3k1zpTZAT4WahXajtbxUBs1CmejIKyBF3qYZMVdB+tqmQW9pfJpLgw1HP6e2lJQuMPkZsKMGBBGAeKBWKXdu3zDZCPudi7lsNsIykBOJAUt2rFNGFu+S5O46Ro2KsXQLrFTL2QukPDYFCX3FHrNAImAWTmU5iegABFG+pbqWaYH6ijh8Z0FqEQ7MyfHA1mzMw0kORANHlTCjoWm0K+udehOUSmNyLE84PIfgCMMgAxKbTLPAzMp830AYxGvHLTjYtDCQdjRNpyeAeR6yO6B9tZEAqYGZzR329CB3fdzOn6W+Yxq20tBAp0DKhMgno4LEDZ7ngDJc2zS1luoFOBGNUhzDhNrHgb5817NsU+0Y7W69AWlVy5ZINkGcAEoMU3UDH/xNjOpBych+uwOJpEHrz7AMaP7pw5d6oNNjXfZzapOBSFoEpGL3cXBLxDAwEAVfFZgsDWYOIh9KHnBI1g4p9GwGNhu4L+yuo9zy1SqF2/j/396VNrdxZdfe9250N3auoKjdlke2PEmcSqUmrsnn/NZ8nqUqmVRlXFHKihfZsmRSJEGC2Nfet5wGRBFcLVHyEHb1K9kgCXT36/sa993l3HNHZpErLc9FMd5qHr+kDy+iOoAuCNrPO63Wi6bfmZwIEZ8S7VGe2bizMv80n/gUmfqQjdGo/21ds2127T5XEvnvOnhsZVJSDJ36O5UBfMXMvd7T8YgUjbL06JN/JfIbt853Fhaor96Juz31ywVdLe1mvf3lF30v7m88EisrtzXGPGpgOT3BFP930Nx+/MMkZuWHD/SlcuotU7DaXkGwRNpnLNhQ9fr2wbOGve1zccFdyt0xgNGePPdHHdSbtFsHZyIjp3EHsmRyhc1SqThtqJsuIlwSipCU3NLa5m+48q05e2rqLBy0tWlmYeXR3eLKcWZh6iwoz5vB7paG/R6O/ln0ChpXUVSn2Xaev0Cra4llDnZ30hIRNPhEzYKeJHqab5zXeaek+ev/dRHVAWoKgv7LSafdGOT6Hq8LCU+FyCo7QTJ000p1TaH5FAjsuilkPhcn7HphqucvXi+SFejckiy6Fd32OWprCGsSlSmqpKBQ7dRhkIkoSmK1dguZhQ9P7vanPjr9FbuOE7jwdQ8XLrNwtqvltD1ZVyLIZo+LuJWHvzXXVlGspc+FP5NoQnrNfTrp73gsJa/d/XB5Y3mqDqa3m8AS99zhsN/sdA/7EwvVv8i2koD043uI7oTvFjg4T8DTv+FrSlIheuQmARotE+Ql5uCF57jsjTST5QYBSZ1s033ZIb++9xZSHYROND5AR8Mo/4mirN4rEmUuzSo3B9FXhxWY+/c3xJKRevittvfV08jr2LH/em8/vUYJJaBiTy/nP/ksTrx+jt5uTiL6ZKjp9DFv83uSAOraGw1ae4fMgHo55+umZ1mIzML87cx6GTvDl+yGL5oPldy6RCCWNj9IzyLaz2146YQaCeX7nARdcOwtJ0jI9Zx+p77VA/YQ0bhlQ+uxD3lYUlVtLZdw5r04uIF6E6f1/CdxB/POwmwOF8UOaNKlqGHvsP/9N30/5pv0yNi9LHYwTWoKnFop35a1dR84iDiZkORBvT5xPegS5dGny8srKWCFnhY4h63J0HYmERkFF2dc58X0a/x5IdUBYgf+KI7JWDSQACsuESt8mlWOqICb5BOuWCyrq2V0MI7iaMREYWQHCZqZXmjlMQlgMwq6LQN3EyUjmrICgNmOQ2rvtq5gygncEGVRiK4D6nPhLN7tKu/r6CT2CK/rWoPe2LBIrt3syHykqbIsYGNHMi1F8tvY9388rLeCQF0VixXU9CpnXTEYA5wsKpqhqKygm3yFN4qmQuhpf/MUtw1h+/ToCrgDRhTlyooWsZrDMIkPUOL0iw3gCXAEDlAFLkX7FIe4EQyaY2kjjMSgJIlXJU4RUXaEKeBN9NQWmTxFO37cT6OJqm76gWiaMU5scAEoGFyuhH7cQDB6DNEPySAgGDrh0Hj17C2/rzVY4PMsojpYYHGdM7UopJ2JyFCV2s2PmNL6pkTqx+hYIuxea2bhzHyRE0R0MLB64e63zSH359GdauvWh/du1CpGSUBSNUXydxq7f3litUK19Nv82s2CBlaT+UECy2QqBa32sR8PFR6VCT6Si8dfzPnPXuFnIVcq/+ZzvjbOjcSQEPM5WRCmnkw8ooLd3YPxEPY8pX326fLakvY630SG48TbbwxDulXgwSSTgq1nY4q87A++eTyG3r77kA7DNDHqj9uDZ9tBX98v/U7Ir4PfgSeYmBApJpElRpZOIqOPzvWrf30ttYW7U0BGJv12HGkHZEzyaVa50Q1bHXB1BAcHEuV7JNlodryhLyHqHWOzYJAlYJF4YphUs7/D5g9b8ULcAWIQpGQoilJWeZnHHoRS+sR2hZASjXI1V1tbFhITRsLRQIjtypmFGdeQGybDWCMYPif8ZCLw6KqXvFI8wecldbBcHAVUaCVjq1/f37K8rlrnRCEesaPnncNxw0E4obJcMWtlCfn2EyMF5EisRBjIwks2EXJcnMIMEnAuIoKC4qaJ74E+CI5S96czC3JadHAS7SeosnCblvoU0XJ8uAV5QtENmRNiIe53LC0x1iuUUFitFWqoQj8aCShtAlkc+b7MkZSszDQIZpW2hG85o8FBL4lIaj1IL4eDyDhI/LE1jveDvuAZNZ5BXaoTYx1JmaFV9gQi/ugiR68zvOMEDiKqHtxhyBGibpRKuvamLFJHJ1q411NLvUDzc6zRYe9pP2kxu8keO0BWuTkOvwPIlM2xI2E/5yNK3HXEbWujKBkeQRo8I5dRncjxAk0BNnz1W7kMd0DmKkztk83Nzd/fKd/gsW3CSQgmIeckjMgxvIBd5VgXXH0K0yNnXEOjcfIkvkdI5YcVWnhnKBzJKrR6s3ir+ln+4QeToet1u629nW/+86/doBFXYIjrVscwzOKDf1q9e/tGSTsRNbj8fiInsQ+GvdbTrX6rn7JCheOzmMvTmQUeuIHTaD98XVFW5gT7jw/73g/yR3xx49FGsZK4we6BOwh5dZM1C3RKrXY8XqEMcvFdFLsh2HxUJUH6LtHthBPXyq0nggj9xXjYSGJGUnNrtyKadbcsf7zv5CUmtIcRF8RcPmHg8aQ644IxwzsOd7/+vz/88esfDr9yCuTKg09/9/uP7itvyCJ1wYmv/8+Lqw7eRjb4BiKozeXKZkwwEs+xTool+tkHovRR3w8mfVKxacQ5WI0B88J7UwcxkBftw9EkHokbFI8C/fcwSHjdvCnjn0lU/b4/3t6LD9vftSaH7ee9Tn9C67a1Wku4D2LEa0BFwEYpaeD7u6c3uYV0NdO6RZ5naYuyWqMoeuE1Gv7I2ev5tCpu8mZREk96MAARk3RqrqUqem6EbuQ2x+4g4nSF1gGgiAgfFkJMp3gTHWFD1Rt4wE70TGAROoTCsEg7cwA7wsK7yMBMY0W9xrjTaI7cth3hASAnvYN6p6DlV0VJx7YwH9SYm8zi/7i46kCUtYp+v6RtflKNl1NnQdnvhsHBGsHmP70jrRSg4w/2Ufn2pcRHcPx4XpDLFRksN5zAR07KdnbVcRnuYN5ZIKIRYTc8t99ichF4uikB5H8n9qyrzmB2HCzlXjeNk5olWiww4is+j3c76dzRqHrmAOqs1NY2b3dtqu5MYD4TrDdwpWdbL5D719kNgTXhFPBvYvLQIikt54z8fdXffOUsnMVcnqlonHcW5vIX4CzR7/wLW9wzWttbu//zv49bOwNygsKljbXPZe7mlKVi7lYu/NFzouZeMPGS6h1WWkLwk7KmdFDgRqOkshwPbrDfD6xhp10es8U6kzeUPMOIs9qNi/RvaNvW3o5jJfRH/3bzIfPPUj+y45f1vv18e1K94RrnV4VeOMVFemNx1cHbSCndTxhGYJRXXCTAmb/DgEzeCHcQW3bY3fPGti9vUHJZ5IRjX/aNL5/i/fHf6a0Ivk7goVR3wtoxqQuMplBvTOpw2bWTOEL1pe+BNHFiWZZrWWPwDItVvcbcpUalqgOcJ82rrOjSw73mCzcZmIquajn1OPtwUcgdZj+r8IqSlhlOh8+dxVzCBv+JisbZsQnNEpLGWALvdYB/aDaHdUshCktIDNiHL/txr0+l9IUgL2PBcIZ/SHSA4whEZixD0qhUBSYRPRES8GKPQxnRoKLG6ToNQm1reoEUdcKAGZlYXdb59rg7bjkUGUtLhKGnCYrZJC74fwKi9eEw8BOyfNvI5x+aPwaNdvtH2+8OfDe1PU4aKBecZSH/vLjq4G1iByXv56XkOH/pQtceH+54g1g0H7D5EpsSeb7dgB4I4ziKAJI7dWBafwkY8NCTUJJvkKwBzNT78EJSXTBuddr1rb0fd3aa+y8mHiPl7m2Y65uffaBoyNQBn+WPo3Gr1zjY/vLJDz4flG/i3ePsw5tYCqfu5u1/DfzJqL/drj/de/7jy7ZHFW/fWDXXdFFJGnv/9eQZSpXZHCWrYDrO5TQ1Z2iibPCUqoi8rgqiKND45oNBLU44IjArSEIWJcmYsz5mM+Jz+cLHf8/sGcSz/478g3j1vl6FmXmRwnv72/ilHbGI6iDV7DSLuqC0483se4IcM6cLclwmJOSbATA/K+fIs9xxCzveyCHG3X27TY4TmS1Smpi8x/Deq+tOkXme5XSa8chlcjdltYTY99lJARBPJqDfZdIQIzh5UD3hja1he2I7fkCRoBizuvIkkUHKqaKY8nX8Ku0E0Q9Ca0yCCQoURRxiiFdWB7MMhTW2Wl2YMk4c2xO73xm5tgtNBNNYlfXl8krtTjVfkUVwkCR2DyDxOhUM2oPxAHCwoT1sN+uKmBBSVeFYhiHQvAAVDbbTbtjNUSvkQyMSuXfJ1WOZQTo9sXttmCyjiHNCL/QHtk25fFmsMje1O5Jq1GQfS7s76XteWumKhGEC1AnSGdbYDkBHSXmuRbsWx4ssA3kKeYMjBU4uG+BfTtr14cA/ZEatIUmIMuoYGQ6sDZxYMHy7RFIGT1LLpmjkodXPebrmlxZqhkMdhz9Mmj/028yTqbNg8bqs65zAAS57RNE0f9Av4+eFVAfgr2ZExSivFj6sqmufFpOKHJGxB4YbO4QZyEgciSDTXOwAtB6xO+4cfv+H7e3tpwd0Y0R5BGOsFu9J3JqZ4PPveTWmyDzbdnd61QkhVRS5fIE3i3LHmE/JSBkG5qlDhY1hfefbv7zYqfeGPOWhx0FczC+v3dDVlRKhvA48RD5hd0LfHktmwuYpRpgxBV3tLmYZiuaz7T/+tbs3oaX1ZWMpXyk8uL8qyv/AiJIkGjlRlTSBm12F5BW2eKsiVf9x5eEDa4Tsw2DgNV/ugJfdkDYkRQbRmNU/fPn45c72zv5gz08LPHzwL0JPXHUg1OPavZd7X/zH1svmU1f35Ep1da1S+qDy6MFNCehnpA45GYSugVe7/TESmQHYTykE/KI4dAPHAv+R7Ufj8cjtNL2YDlgjX8zf56pmTlpa9UY7h40vnhy0h3VV981Vs1Q1qyVO5mc5Ai8JhsL9QJBqer6kMcrlrgL8UkmSV9dF++vo8b+/2Or+KZDJ0p3aw88/urWhKK/iDleVwzUfd/UF/PkmjmpT1liH7bep1GhtqXZ+MxIUq0oMMxl04WZLUgoBOB4knhy5IufXq7qEx1SgsflMNQLFk5whyGHZEFEyz5+nJmh8PyobOtBpqoyGG+d95NWFgHPgzA10+ivlpJJA8OfpHBLswHpZihIDTYe4hCPRAu14UJzESDWluFYxpIpIIIJ1NLBBcaxAgfEhNYvONYeOPvpWryk8Q5BBo1oqV5YLuYIG9MSZZwDsZ5IJilGlCMakoT/eaTf6MWCiDKqLjqeI64IliZRLnFYqgYgxlfOJuQDtx5o1lSerikzLpJDiGGWgBgAah0qRYTZdnLFAZwNe1DVzpbSiFdUTwbni0UViVFXC93HGgBVMLHvoxmMb7NsEBU8LOwoFEAoHw4rTFEKTOixuM41c8EKuUs6VKyijhJDTBBQjyGLZkCi5mFPNuVWkQHtkVmCR5GUBoYzXTwLCyaxZVQudsia0JLrhKKRiLq0UllZ0FbCYo+n9El9Tg2vR5j1rc4ZuKBadJ1jhglZl2E881w2GA0w/bTTKkt5rZwH9NWLEhyXJNFN3MkW0zh7jaTs2EK4N3JROW5eRzjptGYK60x22AHqeUqfK57dmmzkLTjgaBBEJFi8J5bJ43E58V6ZinTUaw9kCTiMZSiJRVgfT+5WzEFMchfinJOV0URRRtH10hjeY55uv2ryzYCHVrsi8JKmigFJ/gU25Si45VQK4TmijHnoyTjDb6Z0eOwuwj5woSHiQUxQkjJNt7N6mKdtpZyFGVwNZlWSYLgjtoRLrSDJzc8WjC28hjsI4CECHlpYuh1EYIhpDRCSiIPyUrB23F4S2ZbV7lhM4DLBcsqRqgDqiYwKMCxgIvp9M0pJnWkUFBUgTj0YSeJE1CGLC5UF/krKkvHpYfr0wpEVUB0fLkb1mEsgk8DeVwOm98W968eximQQyCSySBDJ1sEirkc0lk8C1SiBTB9cq/uzimQQWSQKZOlik1cjmkkngWiWQqYNrFX928UwCiySBTB0s0mpkc8kkcK0SyNTBtYo/u3gmgUWSQKYOFmk1srlkErhWCWTq4FrFn108k8AiSSBTB4u0GtlcMglcqwQydXCt4s8unklgkSSQqYNFWo1sLpkErlUCmTq4VvFnF88ksEgSyNTBIq1GNpdMAtcqgf8HGaGqg7K5Nz0AAAAASUVORK5CYII=;" vertex="1" parent="1">
                    <mxGeometry x="-190" y="1470" width="203.81" height="86" as="geometry"/>
                </mxCell>
            </root>
        </mxGraphModel>
    </diagram>
</mxfile>